<?xml version="1.0" encoding="UTF-8"?>
<svg width="445px" height="44px" viewBox="0 0 445 44" version="1.1" xmlns="http://www.w3.org/2000/svg" xmlns:xlink="http://www.w3.org/1999/xlink">
    <!-- Generator: Sketch 41 (35326) - http://www.bohemiancoding.com/sketch -->
    <title>The Miscellany News</title>
    <desc>Created with Sketch.</desc>
    <defs></defs>
    <g id="Page-1" stroke="none" stroke-width="1" fill="none" fill-rule="evenodd">
        <g id="Artboard" transform="translate(-59.000000, -77.000000)" fill="#FFFFFF">
            <path d="M59.9768888,88.2248888 L59.948,88.196 L59.948,88.092 L59.896,88.04 L59.896,87.988 C59.896,85.4919875 60.8839901,83.4293415 62.86,81.8 C64.9746772,80.066658 67.1933217,78.9746689 69.516,78.524 C69.6546674,78.4893332 70.1399958,78.4200005 70.972,78.316 C71.0760005,78.316 71.2146658,78.2986668 71.388,78.264 L71.752,78.264 C71.8906674,78.2293332 72.1333316,78.212 72.48,78.212 L73.104,78.212 C73.1386668,78.2466668 73.2253326,78.264 73.364,78.264 L73.78,78.264 C73.8840005,78.2986668 73.9706663,78.316 74.04,78.316 L74.508,78.316 L88.132,80.552 L88.262,80.682 C88.2793334,80.6993334 88.3226663,80.708 88.392,80.708 L88.756,80.708 C88.756,80.7426668 88.7906663,80.76 88.86,80.76 L89.692,80.76 C89.7960005,80.76 89.9086661,80.7426668 90.03,80.708 C90.1513339,80.6733332 90.2553329,80.6473334 90.342,80.63 C90.4286671,80.6126666 90.575999,80.5693337 90.784,80.5 L91.252,80.344 C91.3560005,80.2746663 91.5033324,80.1793339 91.694,80.058 C91.8846676,79.9366661 92.0146663,79.8413337 92.084,79.772 C92.1533337,79.7026663 92.2226663,79.6246671 92.292,79.538 C92.3613337,79.4513329 92.4479995,79.3213342 92.552,79.148 L92.786,78.758 C92.8380003,78.6713329 92.8986663,78.5760005 92.968,78.472 L93.072,78.316 L93.176,78.316 L93.228,78.264 L93.228,78.212 L93.332,78.212 L93.384,78.16 L93.488,78.16 C93.5226668,78.16 93.5573332,78.1426668 93.592,78.108 L93.696,78.108 C93.7306668,78.108 93.7653332,78.0906668 93.8,78.056 L93.852,78.056 L93.852,79.096 C93.8173332,79.1306668 93.8,79.2346658 93.8,79.408 L93.8,79.668 C93.7653332,79.7720005 93.748,79.8586663 93.748,79.928 C93.5053321,81.3146736 92.7426731,82.6666601 91.46,83.984 C90.2813274,85.1626726 88.9640073,85.8386658 87.508,86.012 L87.196,86.012 C87.1613332,86.0466668 87.0573342,86.064 86.884,86.064 L86.572,86.064 C86.5373332,86.0986668 86.4333342,86.116 86.26,86.116 C85.9826653,86.1853337 85.7746674,86.22 85.636,86.22 L84.856,86.22 C84.8213332,86.22 84.7693337,86.2026668 84.7,86.168 L84.284,86.168 C84.2493332,86.168 84.2146668,86.1506668 84.18,86.116 L84.076,86.116 L84.076,108.58 L84.284,108.684 C85.4626726,108.822667 86.7106601,108.380672 88.028,107.358 C89.3453399,106.335328 90.3853295,105.321338 91.148,104.316 L92.24,102.912 C92.6560021,102.357331 92.967999,101.924002 93.176,101.612 L93.644,101.508 L93.644,102.236 C93.644,105.182681 92.0320161,107.938654 88.808,110.504 C88.599999,110.677334 88.2706689,110.937332 87.82,111.284 C86.8146616,112.081337 85.6880062,112.653332 84.44,113 C84.2666658,113.034667 83.4000078,113.242665 81.84,113.624 C80.2799922,113.797334 79.2746689,113.884 78.824,113.884 C74.9066471,113.884 71.3533493,112.722678 68.164,110.4 C64.8359834,108.007988 62.8946694,104.870686 62.34,100.988 L62.34,100.832 C62.3053332,100.797333 62.288,100.728001 62.288,100.624 L62.288,100.416 C62.2533332,100.381333 62.236,100.312001 62.236,100.208 L62.236,100.052 L62.184,100.052 L62.184,99.844 C62.1493332,99.8093332 62.132,99.7573337 62.132,99.688 L62.132,98.752 C62.132,98.6479995 62.1493332,98.5353339 62.184,98.414 C62.2186668,98.2926661 62.2533332,98.2146668 62.288,98.18 L62.288,97.868 C62.288,97.8333332 62.3053332,97.7900003 62.34,97.738 C62.3746668,97.6859997 62.392,97.6166671 62.392,97.53 C62.392,97.4433329 62.4266663,97.2613347 62.496,96.984 C62.496,96.8453326 62.5306663,96.6373347 62.6,96.36 C63.9173399,91.0213066 66.8813103,86.9306809 71.492,84.088 C71.4226663,84.088 71.3360005,84.0706668 71.232,84.036 L70.92,84.036 C70.8506663,84.036 70.7640005,84.0186668 70.66,83.984 L70.348,83.984 C70.139999,83.984 70.0186668,83.9666668 69.984,83.932 L69.568,83.932 C69.4293326,83.932 69.3080005,83.9146668 69.204,83.88 L68.892,83.88 C65.1479813,83.88 62.2880099,85.3879849 60.312,88.404 L59.896,88.196 C59.9306666,88.2075555 59.9576296,88.2171852 59.9768888,88.2248888 L59.9768888,88.2248888 Z M79.656,85.596 L79.656,97.868 C79.656,99.6706757 79.0666726,101.317326 77.888,102.808 C76.7093274,104.298674 75.4440068,105.511995 74.092,106.448 C74.0226663,106.517334 73.9533337,106.552 73.884,106.552 C73.7799995,106.656001 73.6586674,106.742666 73.52,106.812 L73.442,106.864 C73.3899997,106.898667 73.3466668,106.933333 73.312,106.968 C74.4213389,107.869338 75.6173269,108.527998 76.9,108.944 C78.1826731,109.360002 79.4999932,109.568 80.852,109.568 L81.32,109.568 C81.4240005,109.568 81.6146653,109.533334 81.892,109.464 C81.9266668,109.464 82.0133326,109.446667 82.152,109.412 L82.412,109.412 C82.4466668,109.412 82.5333326,109.394667 82.672,109.36 L82.88,109.36 L82.88,86.012 L79.656,85.596 Z M72.792,84.296 C72.0986632,84.7120021 71.5960016,85.1626642 71.284,85.648 C70.5906632,86.6533384 70.0013358,87.7106611 69.516,88.82 C69.4813332,88.8893337 69.3253347,89.25333 69.048,89.912 C68.839999,90.4320026 68.6146679,91.0559964 68.372,91.784 C68.3026663,92.2346689 68.164001,92.893329 67.956,93.76 L67.8,95.008 C67.7653332,95.2853347 67.748,95.7013306 67.748,96.256 C67.748,97.2960052 67.8866653,98.3706611 68.164,99.48 C68.6493358,100.866674 69.0826648,101.906663 69.464,102.6 C69.4986668,102.704001 69.5246666,102.773333 69.542,102.808 C69.5593334,102.842667 69.6026663,102.894666 69.672,102.964 L69.828,103.12 C69.828,103.154667 69.8626663,103.215333 69.932,103.302 C70.0013337,103.388667 70.2613311,103.76133 70.712,104.42 C70.9546679,104.628001 71.2666648,104.957331 71.648,105.408 C71.7173337,105.442667 71.7866663,105.520666 71.856,105.642 C71.9253337,105.763334 71.9686666,105.841333 71.986,105.876 C72.0033334,105.910667 72.0466663,105.928 72.116,105.928 C72.1506668,105.928 72.2026663,105.893334 72.272,105.824 L72.48,105.616 C72.5146668,105.581333 72.5579997,105.546667 72.61,105.512 C72.6620003,105.477333 72.6966666,105.442667 72.714,105.408 C72.7313334,105.373333 72.7746663,105.321334 72.844,105.252 L73.052,105.044 C73.0866668,104.974666 73.1386663,104.905334 73.208,104.836 C73.208,105.113335 73.3639984,104.628006 73.676,103.38 L73.832,102.756 C73.9360005,102.478665 73.988,102.028003 73.988,101.404 L73.988,84.92 L73.936,84.92 L73.936,84.868 C73.9013332,84.868 73.884,84.8506668 73.884,84.816 L73.884,84.764 L73.832,84.764 L73.832,84.66 C73.7626663,84.66 73.728,84.6253337 73.728,84.556 L73.728,84.4 L72.792,84.296 Z M105.5,78.212 L106.696,78.212 C105.690662,79.1133378 105.014668,79.9626627 104.668,80.76 C104.321332,81.5573373 104.061334,82.5973269 103.888,83.88 L103.888,93.032 L110.96,87.104 C112.000005,87.9360042 112.797331,88.7506627 113.352,89.548 C113.941336,90.4493378 114.374665,91.4546611 114.652,92.564 L114.652,108.58 C113.99333,111.700016 112.364013,114.100658 109.764,115.782 C107.163987,117.463342 104.373348,118.615997 101.392,119.24 L101.236,119.24 C101.201333,119.205333 101.158,119.179333 101.106,119.162 C101.054,119.144667 100.941334,119.101334 100.768,119.032 L100.716,119.032 C100.681333,118.997333 100.646667,118.98 100.612,118.98 L100.56,118.98 C100.525333,118.945333 100.490667,118.928 100.456,118.928 L100.768,118.148 C105.586691,116.553325 108.567994,114.005351 109.712,110.504 L109.712,93.24 L107.736,91.42 L103.784,94.644 L103.784,107.748 L105.396,109.672 L101.288,113.208 L97.232,109.672 L98.844,107.748 L98.844,90.952 L96.14,90.848 L96.14,88.092 L99.052,88.092 L99.052,83.88 C98.6359979,81.8693233 97.8040062,80.3613384 96.556,79.356 L96.92,79.252 C97.0240005,79.3560005 97.1626658,79.408 97.336,79.408 L97.544,79.408 C97.5786668,79.4426668 97.6479995,79.46 97.752,79.46 C98.0640016,79.5640005 98.5059971,79.7719984 99.078,80.084 C99.6500029,80.3960016 100.057332,80.7253316 100.3,81.072 C100.334667,81.072 100.369333,81.1066663 100.404,81.176 C100.438667,81.2453337 100.456,81.2973332 100.456,81.332 L100.664,81.54 C102.08534,79.7373243 103.697324,78.6626684 105.5,78.316 L105.5,78.212 Z M127.392,87.104 L134.152,94.072 L125.208,101.924 L125.208,107.072 L129.524,109.152 L132.748,106.76 L133.476,107.748 L126.508,113.208 L126.3,113.208 C126.126666,113.208 125.884002,113.164667 125.572,113.078 C125.259998,112.991333 125.060667,112.939333 124.974,112.922 C124.887333,112.904667 124.480004,112.636003 123.752,112.116 C123.682666,112.081333 123.578667,111.994667 123.44,111.856 L123.284,111.7 C123.214666,111.630666 123.128001,111.57 123.024,111.518 C122.919999,111.466 122.738001,111.362001 122.478,111.206 C122.217999,111.049999 121.897335,110.937334 121.516,110.868 L121.048,110.712 C120.943999,110.712 120.814001,110.694667 120.658,110.66 C120.501999,110.625333 120.337334,110.590667 120.164,110.556 C119.990666,110.521333 119.826001,110.469334 119.67,110.4 C119.513999,110.330666 119.176003,110.261334 118.656,110.192 C119.800006,109.047994 120.372,107.696008 120.372,106.136 L120.372,91.628 C121.585339,91.1773311 122.815994,90.5360042 124.064,89.704 C125.104005,89.0106632 126.213327,88.1786715 127.392,87.208 L127.392,87.104 Z M125.208,91.732 L125.208,99.896 C125.416001,99.8613332 125.658665,99.7226679 125.936,99.48 L126.716,98.856 C126.785334,98.8213332 126.846,98.7780003 126.898,98.726 C126.95,98.6739997 126.993333,98.6393334 127.028,98.622 C127.062667,98.6046666 127.114666,98.5700003 127.184,98.518 C127.253334,98.4659997 127.296667,98.4313334 127.314,98.414 C127.331333,98.3966666 127.409333,98.3360005 127.548,98.232 C127.686667,98.1279995 127.790666,98.0413337 127.86,97.972 C128.172002,97.7986658 128.501332,97.5646681 128.848,97.27 C129.194668,96.9753319 129.489332,96.7066679 129.732,96.464 L125.208,91.732 Z M179.132,77.016 C179.513335,77.2586679 180.03333,77.6399974 180.692,78.16 C180.830667,78.2986674 181.055998,78.4979987 181.368,78.758 C181.680002,79.0180013 181.905333,79.2173326 182.044,79.356 C182.044,79.4253337 182.07,79.5033329 182.122,79.59 C182.174,79.6766671 182.217333,79.72 182.252,79.72 C182.425334,80.1360021 182.685332,80.7253295 183.032,81.488 C183.205334,81.8693352 183.378666,82.4586627 183.552,83.256 L192.132,77.12 L197.748,80.968 C197.956001,80.7253321 198.302664,80.4133352 198.788,80.032 C199.134668,79.823999 199.602664,79.616001 200.192,79.408 L200.348,79.408 C200.382667,79.408 200.417333,79.3906668 200.452,79.356 L200.504,79.356 L200.504,79.876 C200.469333,79.9106668 200.452,79.9626663 200.452,80.032 L200.452,80.344 C200.417333,80.3786668 200.4,80.4133332 200.4,80.448 L200.4,80.656 C200.295999,80.7600005 200.226667,80.8639995 200.192,80.968 L199.984,81.176 C199.359997,81.9733373 198.892002,82.9439943 198.58,84.088 L198.58,106.968 L199.672,108.892 C199.776001,108.926667 199.879999,108.926667 199.984,108.892 C200.122667,108.857333 200.209333,108.814 200.244,108.762 C200.278667,108.71 200.356666,108.658 200.478,108.606 C200.599334,108.554 200.686,108.510667 200.738,108.476 C200.79,108.441333 200.850666,108.389334 200.92,108.32 L201.076,108.164 L201.908,108.892 L196.968,113.52 L196.448,113.52 C195.269327,112.895997 194.37667,112.124671 193.77,111.206 C193.16333,110.287329 192.773334,109.065341 192.6,107.54 L192.6,83.672 L188.908,81.072 C188.873333,81.1760005 188.821334,81.228 188.752,81.228 L188.648,81.228 L188.596,81.28 C188.491999,81.3840005 188.396667,81.4619997 188.31,81.514 C188.223333,81.5660003 188.145334,81.6093332 188.076,81.644 L187.972,81.748 L187.972,92.928 L191.092,92.928 L187.764,97.4 L187.764,106.136 L188.544,105.98 C188.682667,105.910666 188.873332,105.772001 189.116,105.564 L190,106.136 L181.524,113.52 C181.003997,112.895997 180.172006,111.994673 179.028,110.816 C178.26533,110.087996 177.260006,109.273338 176.012,108.372 C176.428002,108.094665 176.765999,107.748002 177.026,107.332 C177.286001,106.915998 177.433333,106.534668 177.468,106.188 L177.468,106.032 C177.468,105.997333 177.485333,105.962667 177.52,105.928 L177.52,97.4 L171.54,97.4 L171.54,107.54 C171.331999,109.51601 170.855337,111.240659 170.11,112.714 C169.364663,114.187341 168.038676,115.218664 166.132,115.808 C166.097333,115.808 166.028001,115.825333 165.924,115.86 L165.664,115.86 C165.629333,115.86 165.560001,115.877333 165.456,115.912 L164.312,115.912 C164.034665,115.912 163.584003,115.877334 162.96,115.808 L161.556,115.652 C161.243998,115.582666 160.75867,115.496001 160.1,115.392 C159.787998,115.357333 159.337336,115.34 158.748,115.34 C157.950663,115.34 157.205337,115.521998 156.512,115.886 C155.818663,116.250002 155.229336,116.934662 154.744,117.94 C154.744,117.905333 154.726667,117.853334 154.692,117.784 L154.692,117.576 C154.692,117.506666 154.657334,117.368001 154.588,117.16 L154.588,116.692 C154.588,116.657333 154.570667,116.588001 154.536,116.484 L154.536,116.328 C154.536,115.149327 155.003995,114.040005 155.94,113 C156.945338,112.098662 158.037327,111.474668 159.216,111.128 L159.528,111.024 C159.562667,111.024 159.614666,111.006667 159.684,110.972 L159.788,110.972 C159.892001,110.972 159.978666,110.963333 160.048,110.946 C160.117334,110.928667 160.186666,110.902667 160.256,110.868 L160.36,110.868 C163.480016,110.868 165.265331,109.758678 165.716,107.54 L165.716,106.552 C165.716,103.709319 164.502679,101.456008 162.076,99.792 C161.937333,99.6879995 161.625336,99.5840005 161.14,99.48 C160.931999,99.4106663 160.776001,99.376 160.672,99.376 C160.394665,99.3066663 160.23,99.272 160.178,99.272 C160.126,99.272 160.065334,99.2546668 159.996,99.22 L159.268,99.22 C159.163999,99.2546668 159.077334,99.272 159.008,99.272 L158.748,99.272 C158.643999,99.3066668 158.557334,99.324 158.488,99.324 C158.314666,99.3586668 158.002669,99.4279995 157.552,99.532 C157.309332,99.6360005 157.162,99.688 157.11,99.688 C157.058,99.688 156.988667,99.7139997 156.902,99.766 C156.815333,99.8180003 156.737334,99.8613332 156.668,99.896 L156.668,99.844 L156.616,99.844 L156.616,99.688 L156.564,99.688 L156.564,99.584 C156.564,97.5039896 157.88132,96.0133378 160.516,95.112 C160.620001,95.0773332 160.793332,95.0253337 161.036,94.956 L161.504,94.8 C161.712001,94.7306663 161.876666,94.6873334 161.998,94.67 C162.119334,94.6526666 162.283999,94.644 162.492,94.644 C162.665334,92.1826544 163.115996,90.085342 163.844,88.352 C164.641337,86.410657 166.045323,84.7813399 168.056,83.464 C171.869352,80.9333207 175.561315,78.8186752 179.132,77.12 L179.132,77.016 Z M171.436,82.892 C171.019998,83.2733352 170.43067,83.897329 169.668,84.764 C169.113331,85.5613373 168.732001,86.2719969 168.524,86.896 L168.524,106.448 C168.524,107.418672 168.16867,108.328662 167.458,109.178 C166.74733,110.027338 165.993337,110.659998 165.196,111.076 C165.265334,111.076 165.334666,111.102 165.404,111.154 C165.473334,111.206 165.525333,111.249333 165.56,111.284 C165.768001,111.353334 165.923999,111.388 166.028,111.388 L166.132,111.388 C166.166667,111.422667 166.201333,111.448667 166.236,111.466 C166.270667,111.483333 166.322666,111.492 166.392,111.492 L167.12,111.492 C167.015999,111.492 167.379996,111.370668 168.212,111.128 C168.87067,110.954666 169.355998,110.53867 169.668,109.88 C169.668,109.845333 169.685333,109.810667 169.72,109.776 L169.72,109.724 C169.72,109.689333 169.737333,109.654667 169.772,109.62 L169.772,109.568 C169.806667,109.498666 169.841333,109.420667 169.876,109.334 C169.910667,109.247333 169.928,109.195333 169.928,109.178 C169.928,109.160667 170.014666,108.805337 170.188,108.112 C170.188,108.007999 170.205333,107.904001 170.24,107.8 L170.24,86.792 C170.24,86.6533326 170.257333,86.4973342 170.292,86.324 C170.326667,86.1506658 170.361333,85.9946674 170.396,85.856 C170.430667,85.7173326 170.465333,85.6306668 170.5,85.596 C170.569334,85.2839984 170.690666,84.8333363 170.864,84.244 C170.933334,84.0013321 171.123998,83.5853363 171.436,82.996 L171.436,82.892 Z M183.552,97.4 L183.552,106.344 C183.552,107.072004 183.638666,107.643998 183.812,108.06 C184.020001,108.614669 184.297332,109.082665 184.644,109.464 C185.060002,109.394666 185.415332,109.264668 185.71,109.074 C186.004668,108.883332 186.290665,108.649335 186.568,108.372 L186.568,97.4 L183.552,97.4 Z M175.076,81.28 L174.764,81.28 C174.729333,81.3493337 174.677334,81.384 174.608,81.384 L174.556,81.384 L174.504,81.436 L174.348,81.436 C174.278666,81.5053337 174.209334,81.54 174.14,81.54 L173.984,81.54 C173.741332,81.7826679 173.308003,82.3719953 172.684,83.308 C172.233331,83.96667 171.886668,84.62533 171.644,85.284 L171.644,96.152 L173.984,92.72 L177.52,92.72 L177.52,83.776 C177.485333,83.3599979 177.216669,82.8920026 176.714,82.372 C176.211331,81.8519974 175.665336,81.5226674 175.076,81.384 L175.076,81.28 Z M186.568,83.152 L183.448,85.388 L183.448,92.928 L186.568,92.928 L186.568,83.152 Z M210.592,87.416 L214.388,90.848 L212.88,92.824 L212.88,107.436 C212.88,107.990669 212.957999,108.432665 213.114,108.762 C213.270001,109.091335 213.573331,109.359999 214.024,109.568 L215.22,108.58 L216,109.36 L211.372,113.312 C210.539996,113.312 209.846669,113.034669 209.292,112.48 C208.494663,111.682663 208.061334,110.816005 207.992,109.88 C207.957333,109.741333 207.94,109.533335 207.94,109.256 L207.94,92.72 L206.744,90.64 L210.592,87.416 Z M212.308,79.044 L215.428,79.044 L211.268,84.66 L212.308,79.044 Z M235.396,83.776 L235.916,83.776 C236.436003,83.984001 236.765333,84.2266653 236.904,84.504 C237.181335,85.0586694 237.337333,85.4746653 237.372,85.752 C237.372,85.7866668 237.389333,85.8386663 237.424,85.908 L237.424,86.74 C237.389333,86.8440005 237.372,86.9653326 237.372,87.104 L237.216,87.728 L237.216,87.884 C237.181333,87.9186668 237.164,87.9533332 237.164,87.988 L237.164,88.092 C237.129333,88.1266668 237.112,88.1613332 237.112,88.196 L231.496,96.256 L236.332,99.272 L236.332,109.256 C234.841326,109.880003 233.76667,110.399998 233.108,110.816 C231.929327,111.509337 230.95867,112.167997 230.196,112.792 C230.161333,112.792 230.109334,112.818 230.04,112.87 C229.970666,112.922 229.91,112.956667 229.858,112.974 C229.806,112.991333 229.762667,113.017333 229.728,113.052 C229.693333,113.086667 229.65,113.121333 229.598,113.156 C229.546,113.190667 229.502667,113.208 229.468,113.208 C229.086665,112.999999 228.497337,112.722668 227.7,112.376 C227.145331,112.167999 226.521337,111.977334 225.828,111.804 C225.758666,111.804 225.620001,111.769334 225.412,111.7 C225.342666,111.7 225.256001,111.682667 225.152,111.648 L224.944,111.648 C224.735999,111.648 224.580001,111.630667 224.476,111.596 L223.54,111.596 C223.435999,111.630667 223.280001,111.648 223.072,111.648 C222.621331,111.717334 221.824006,111.925332 220.68,112.272 C220.402665,112.376001 219.969336,112.618665 219.38,113 L218.652,112.48 L224.84,103.432 L220.108,100.52 L220.108,91.628 C221.772008,91.0733306 223.574657,89.825343 225.516,87.884 L225.828,87.572 C225.862667,87.5373332 225.897333,87.4940003 225.932,87.442 L225.984,87.364 L226.14,87.208 L231.496,89.132 C231.634667,89.2706674 231.738666,89.34 231.808,89.34 L231.964,89.34 C231.998667,89.3746668 232.050666,89.392 232.12,89.392 L232.666,89.574 C232.718,89.5913334 232.830666,89.6 233.004,89.6 C233.316002,89.6 233.523999,89.5826668 233.628,89.548 L234.876,89.132 C235.084001,88.9586658 235.274666,88.8286671 235.448,88.742 C235.621334,88.6553329 235.777333,88.3346694 235.916,87.78 L235.916,86.792 C235.881333,86.7226663 235.777334,86.6533337 235.604,86.584 C235.604,86.5146663 235.500001,86.3933342 235.292,86.22 C235.257333,86.0466658 235.179334,85.9340003 235.058,85.882 C234.936666,85.8299997 234.876,85.7866668 234.876,85.752 L234.72,85.596 L234.72,85.544 C234.685333,85.544 234.668,85.5266668 234.668,85.492 L234.668,85.388 C234.633333,85.388 234.598667,85.3620003 234.564,85.31 C234.529333,85.2579997 234.512,85.2146668 234.512,85.18 L234.512,84.972 C234.512,84.9373332 234.520667,84.8853337 234.538,84.816 C234.555333,84.7466663 234.650666,84.5906679 234.824,84.348 C234.928001,84.2093326 235.083999,84.0706674 235.292,83.932 L235.344,83.88 L235.396,83.88 L235.396,83.776 Z M228.532,100.416 L223.488,107.748 C223.557334,107.817334 223.661333,107.852 223.8,107.852 C223.834667,107.852 223.886666,107.834667 223.956,107.8 L224.112,107.8 C224.597336,107.730666 224.917999,107.696 225.074,107.696 C225.230001,107.696 225.377333,107.678667 225.516,107.644 L226.296,107.644 C226.330667,107.678667 226.451999,107.696 226.66,107.696 L227.076,107.696 C227.180001,107.730667 227.335999,107.756667 227.544,107.774 C227.752001,107.791333 228.115997,107.851999 228.636,107.956 C228.878668,108.025334 229.242664,108.146666 229.728,108.32 C230.456004,108.597335 231.166663,108.943998 231.86,109.36 L231.86,102.6 L228.532,100.416 Z M224.736,97.868 L227.648,99.584 L232.276,92.928 C232.137333,93.0666674 231.981334,93.136 231.808,93.136 L231.548,93.136 C231.443999,93.1706668 231.357334,93.188 231.288,93.188 L230.976,93.188 C230.941333,93.2226668 230.854667,93.24 230.716,93.24 L230.248,93.24 C230.352001,93.24 229.433343,93.1186679 227.492,92.876 C226.867997,92.7026658 225.949339,92.3906689 224.736,91.94 L224.736,97.868 Z M249.436,87.104 L249.436,87.208 L249.176,87.208 C248.967999,87.1733332 248.751334,87.259999 248.526,87.468 C248.300666,87.676001 248.118667,87.8319995 247.98,87.936 L246.732,89.184 C246.454665,89.3573342 246.229334,89.5219992 246.056,89.678 C245.882666,89.8340008 245.726667,89.9639995 245.588,90.068 C244.547995,90.7960036 243.681337,91.2466658 242.988,91.42 L242.988,106.24 C242.988,107.453339 242.520005,108.597328 241.584,109.672 C243.698677,110.088002 246.12532,111.266657 248.864,113.208 L255.416,108.268 C255.207999,108.059999 255.104,107.869334 255.104,107.696 L254.948,107.54 C254.878666,107.470666 254.826667,107.401334 254.792,107.332 C254.757333,107.262666 254.722667,107.210667 254.688,107.176 L252.088,109.152 C251.602664,108.909332 251.195335,108.692668 250.866,108.502 C250.536665,108.311332 250.250668,108.146667 250.008,108.008 C249.175996,107.661332 248.482669,107.210669 247.928,106.656 L247.928,91.836 C249.418674,93.0493394 250.961325,93.9159974 252.556,94.436 L254.896,90.952 L249.436,87.104 Z M266.44,87.104 L273.2,94.072 L264.256,101.924 L264.256,107.072 L268.572,109.152 L271.796,106.76 L272.524,107.748 L265.556,113.208 L265.348,113.208 C265.174666,113.208 264.932002,113.164667 264.62,113.078 C264.307998,112.991333 264.108667,112.939333 264.022,112.922 C263.935333,112.904667 263.528004,112.636003 262.8,112.116 C262.730666,112.081333 262.626667,111.994667 262.488,111.856 L262.332,111.7 C262.262666,111.630666 262.176001,111.57 262.072,111.518 C261.967999,111.466 261.786001,111.362001 261.526,111.206 C261.265999,111.049999 260.945335,110.937334 260.564,110.868 L260.096,110.712 C259.991999,110.712 259.862001,110.694667 259.706,110.66 C259.549999,110.625333 259.385334,110.590667 259.212,110.556 C259.038666,110.521333 258.874001,110.469334 258.718,110.4 C258.561999,110.330666 258.224003,110.261334 257.704,110.192 C258.848006,109.047994 259.42,107.696008 259.42,106.136 L259.42,91.628 C260.633339,91.1773311 261.863994,90.5360042 263.112,89.704 C264.152005,89.0106632 265.261327,88.1786715 266.44,87.208 L266.44,87.104 Z M264.256,91.732 L264.256,99.896 C264.464001,99.8613332 264.706665,99.7226679 264.984,99.48 L265.764,98.856 C265.833334,98.8213332 265.894,98.7780003 265.946,98.726 C265.998,98.6739997 266.041333,98.6393334 266.076,98.622 C266.110667,98.6046666 266.162666,98.5700003 266.232,98.518 C266.301334,98.4659997 266.344667,98.4313334 266.362,98.414 C266.379333,98.3966666 266.457333,98.3360005 266.596,98.232 C266.734667,98.1279995 266.838666,98.0413337 266.908,97.972 C267.220002,97.7986658 267.549332,97.5646681 267.896,97.27 C268.242668,96.9753319 268.537332,96.7066679 268.78,96.464 L264.256,91.732 Z M284.64,78.212 L286.148,78.212 C285.177328,79.078671 284.536002,79.9106627 284.224,80.708 C283.877332,81.6440047 283.617334,82.6319948 283.444,83.672 L283.444,106.76 L286.252,108.892 L287.188,108.164 L287.968,109.048 L283.028,113.416 C281.987995,112.375995 280.982672,111.52667 280.012,110.868 C278.902661,110.10533 277.724006,109.481336 276.476,108.996 C277.828007,108.129329 278.504,106.950674 278.504,105.46 L278.504,82.58 C278.122665,81.1933264 277.377339,80.0493378 276.268,79.148 L276.58,79.044 C276.684001,79.1480005 276.813999,79.2 276.97,79.2 C277.126001,79.2 277.333999,79.2519995 277.594,79.356 C277.854001,79.4600005 278.044666,79.5379997 278.166,79.59 C278.287334,79.6420003 278.495332,79.7459992 278.79,79.902 C279.084668,80.0580008 279.457331,80.3439979 279.908,80.76 L280.064,80.916 C280.064,81.0893342 280.150666,81.176 280.324,81.176 C280.324,81.2453337 280.358666,81.28 280.428,81.28 C281.156004,80.4479958 281.779997,79.8413352 282.3,79.46 C282.95867,78.9053306 283.738662,78.524001 284.64,78.316 L284.64,78.212 Z M299.2,78.212 L300.708,78.212 C299.737328,79.078671 299.096002,79.9106627 298.784,80.708 C298.437332,81.6440047 298.177334,82.6319948 298.004,83.672 L298.004,106.76 L300.812,108.892 L301.748,108.164 L302.528,109.048 L297.588,113.416 C296.547995,112.375995 295.542672,111.52667 294.572,110.868 C293.462661,110.10533 292.284006,109.481336 291.036,108.996 C292.388007,108.129329 293.064,106.950674 293.064,105.46 L293.064,82.58 C292.682665,81.1933264 291.937339,80.0493378 290.828,79.148 L291.14,79.044 C291.244001,79.1480005 291.373999,79.2 291.53,79.2 C291.686001,79.2 291.893999,79.2519995 292.154,79.356 C292.414001,79.4600005 292.604666,79.5379997 292.726,79.59 C292.847334,79.6420003 293.055332,79.7459992 293.35,79.902 C293.644668,80.0580008 294.017331,80.3439979 294.468,80.76 L294.624,80.916 C294.624,81.0893342 294.710666,81.176 294.884,81.176 C294.884,81.2453337 294.918666,81.28 294.988,81.28 C295.716004,80.4479958 296.339997,79.8413352 296.86,79.46 C297.51867,78.9053306 298.298662,78.524001 299.2,78.316 L299.2,78.212 Z M307.213197,89.5108486 C307.247781,89.60495 307.298048,89.652 307.364,89.652 L307.676,89.652 C307.676,89.6866668 307.710666,89.704 307.78,89.704 L308.508,89.704 C308.612001,89.704 308.698666,89.6953334 308.768,89.678 C308.837334,89.6606666 308.906666,89.6346668 308.976,89.6 L309.08,89.6 C309.808004,89.4959995 310.622662,89.2360021 311.524,88.82 C312.321337,88.4386648 313.031997,87.9360031 313.656,87.312 L313.656,87.208 L320.624,89.912 L320.624,89.964 L320.728,89.86 C320.797334,89.7559995 320.979332,89.5826679 321.274,89.34 C321.568668,89.0973321 321.819999,88.9586668 322.028,88.924 C322.062667,88.924 322.114666,88.9066668 322.184,88.872 L322.34,88.872 C322.374667,88.872 322.426666,88.8546668 322.496,88.82 L322.652,88.82 L322.86,88.716 C322.721333,88.9586679 322.530668,89.2879979 322.288,89.704 C322.149333,89.912001 321.984668,90.2326645 321.794,90.666 C321.603332,91.0993355 321.317335,91.7666622 320.936,92.668 L320.832,107.332 C320.866667,107.470667 320.892667,107.557333 320.91,107.592 L320.988,107.748 L320.988,107.904 C320.988,107.938667 321.005333,107.990666 321.04,108.06 L321.04,108.164 C321.109334,108.268001 321.230666,108.441332 321.404,108.684 C321.438667,108.718667 321.611998,108.857332 321.924,109.1 C321.924,109.169334 321.958666,109.204 322.028,109.204 L322.08,109.204 C322.08,109.238667 322.097333,109.256 322.132,109.256 L323.068,108.58 L323.848,109.256 L319.324,113.208 L319.012,113.208 C318.422664,113.208 317.920002,112.965336 317.504,112.48 C316.983997,111.786663 316.654667,111.180003 316.516,110.66 C316.411999,110.417332 316.299334,110.018669 316.178,109.464 C316.056666,108.909331 315.996,108.580001 315.996,108.476 L315.996,108.112 C315.961333,108.112 315.944,108.077334 315.944,108.008 L315.944,107.748 C315.909333,107.713333 315.892,107.661334 315.892,107.592 L315.892,107.28 L309.028,113.208 C307.779994,112.514663 306.766004,111.552673 305.986,110.322 C305.205996,109.091327 304.816,107.800007 304.816,106.448 L304.816,106.188 C304.816,106.153333 304.833333,106.101334 304.868,106.032 L304.868,105.512 C304.868,105.477333 304.885333,105.425334 304.92,105.356 L304.92,105.252 C304.92,105.217333 305.058665,104.680005 305.336,103.64 C306.09867,100.831986 307.571989,98.5440088 309.756,96.776 L307.213197,89.5108488 L307.213197,89.5108486 Z M310.848,97.764 C310.223997,98.5960042 309.799334,99.3586632 309.574,100.052 C309.348666,100.745337 309.236,101.507996 309.236,102.34 L309.236,103.068 C309.236,103.345335 309.270666,103.587999 309.34,103.796 C309.617335,105.633343 310.431993,107.487991 311.784,109.36 L312.356,109.048 L315.996,105.824 L315.996,100.728 L310.848,97.764 Z M308.82,90.64 L310.848,96.36 L315.892,99.272 L315.892,93.24 L309.444,90.64 L308.82,90.64 Z M330.348,87.104 C331.284005,87.9360042 332.08133,88.8373285 332.74,89.808 C333.39867,90.7786715 333.745333,91.8533274 333.78,93.032 L340.228,87.208 L343.764,90.744 L345.896,88.924 L346.572,89.6 C346.537333,89.7040005 346.502667,89.7733332 346.468,89.808 L346.364,89.912 C345.427995,90.8480047 344.786668,91.9573269 344.44,93.24 L344.44,107.176 L344.492,107.436 C344.526667,107.609334 344.57,107.730666 344.622,107.8 C344.674,107.869334 344.717333,107.990666 344.752,108.164 C344.786667,108.198667 344.838666,108.259333 344.908,108.346 C344.977334,108.432667 345.029333,108.493333 345.064,108.528 C345.098667,108.562667 345.185333,108.666666 345.324,108.84 C345.462667,109.013334 345.583999,109.117333 345.688,109.152 L346.78,108.268 L347.612,109.152 L342.828,113.208 C342.06533,112.965332 341.424003,112.549336 340.904,111.96 C340.314664,111.162663 339.916001,110.469336 339.708,109.88 L339.708,94.176 C339.638666,94.176 339.604,94.1500003 339.604,94.098 C339.604,94.0459997 339.586667,93.9853337 339.552,93.916 C339.517333,93.8466663 339.482667,93.812 339.448,93.812 C339.378666,93.5693321 339.274667,93.3613342 339.136,93.188 C338.927999,92.7719979 338.668002,92.460001 338.356,92.252 C338.078665,91.9053316 337.766668,91.6973337 337.42,91.628 L336.9,91.524 L333.676,94.644 L333.676,107.176 C333.780001,107.488002 333.944666,107.834665 334.17,108.216 C334.395334,108.597335 334.611999,108.891999 334.82,109.1 C334.889334,109.134667 334.958666,109.212666 335.028,109.334 C335.097334,109.455334 335.140667,109.524667 335.158,109.542 L335.288,109.672 C333.658659,111.440009 332.289339,112.583997 331.18,113.104 L327.332,109.568 L328.84,107.956 L328.84,93.448 C328.84,93.2746658 328.753334,93.0493347 328.58,92.772 C328.475999,92.5986658 328.302668,92.3560016 328.06,92.044 C327.851999,91.9399995 327.748,91.8360005 327.748,91.732 L326.604,92.148 L326.136,91.42 L330.348,87.104 Z M354.788,87.208 C354.857334,87.2773337 355.013332,87.3379997 355.256,87.39 C355.498668,87.4420003 355.689333,87.5286661 355.828,87.65 C355.966667,87.7713339 356.209332,88.0399979 356.556,88.456 C356.660001,88.5253337 356.772666,88.6379992 356.894,88.794 C357.015334,88.9500008 357.145333,89.131999 357.284,89.34 C357.284,89.4093337 357.301333,89.4526666 357.336,89.47 C357.370667,89.4873334 357.431333,89.5479995 357.518,89.652 C357.604667,89.7560005 357.665333,89.8426663 357.7,89.912 L357.856,90.38 C357.890667,90.5186674 357.942666,90.691999 358.012,90.9 L358.168,91.368 C358.202667,91.4720005 358.237333,91.6366655 358.272,91.862 C358.306667,92.0873345 358.358666,92.3386653 358.428,92.616 L358.584,93.24 L365.24,87.208 L365.656,87.208 C366.696005,88.941342 367.493331,90.6053254 368.048,92.2 C368.152001,92.5813352 368.307999,93.1706627 368.516,93.968 C368.585334,94.1066674 368.654666,94.5226632 368.724,95.216 C368.724,95.4933347 368.741333,95.6839995 368.776,95.788 L368.776,96.62 C368.741333,96.7240005 368.724,96.8279995 368.724,96.932 L368.724,97.452 C368.689333,97.660001 368.628667,97.9546648 368.542,98.336 C368.455333,98.7173352 368.394667,99.011999 368.36,99.22 C367.354662,101.889347 365.81201,104.125324 363.732,105.928 C360.715985,108.528013 357.058688,110.989322 352.76,113.312 C352.274664,113.728002 351.910668,114.083332 351.668,114.378 C351.425332,114.672668 351.182668,115.183996 350.94,115.912 L350.94,116.224 C350.94,116.397334 350.957333,116.535999 350.992,116.64 C350.992,116.605333 351.113332,116.951996 351.356,117.68 C351.529334,117.853334 351.633333,118.009333 351.668,118.148 C352.812006,118.80667 353.747996,119.170666 354.476,119.24 C354.580001,119.24 354.683999,119.257333 354.788,119.292 L355.048,119.292 C355.221334,119.292 355.325333,119.309333 355.36,119.344 L356.14,119.344 C356.174667,119.309333 356.226666,119.292 356.296,119.292 C356.746669,119.222666 357.075999,119.153334 357.284,119.084 C357.492001,119.014666 357.734665,118.841335 358.012,118.564 L358.012,118.46 L358.064,118.46 C358.064,118.425333 358.081333,118.408 358.116,118.408 C358.289334,118.061332 358.583998,117.714668 359,117.368 C359.416002,117.021332 359.814665,116.848 360.196,116.848 C360.404001,116.986667 360.646665,117.263998 360.924,117.68 C360.924,117.714667 360.941333,117.749333 360.976,117.784 L360.976,117.836 C360.976,117.870667 360.993333,117.905333 361.028,117.94 L361.028,118.096 C360.993333,118.096 360.976,118.113333 360.976,118.148 L360.976,118.408 C360.941333,118.408 360.924,118.425333 360.924,118.46 L360.924,118.564 C360.507998,119.153336 359.936004,119.569332 359.208,119.812 C358.133328,120.193335 357.370669,120.384 356.92,120.384 L356.296,120.384 C356.261333,120.384 356.157334,120.401333 355.984,120.436 L354.892,120.436 C354.787999,120.401333 354.701334,120.384 354.632,120.384 C354.111997,120.349333 353.384005,120.245334 352.448,120.072 C350.575991,119.621331 349.64,118.546675 349.64,116.848 C349.64,116.397331 349.726666,115.894669 349.9,115.34 C350.246668,114.265328 350.922662,113.225338 351.928,112.22 C352.240002,111.838665 352.534665,111.336003 352.812,110.712 C353.089335,110.087997 353.245333,109.568002 353.28,109.152 L353.28,93.136 L353.02,92.356 C352.950666,92.3213332 352.916,92.2693337 352.916,92.2 L352.916,92.096 C352.881333,92.096 352.855333,92.0700003 352.838,92.018 C352.820667,91.9659997 352.725334,91.9226668 352.552,91.888 C352.517333,91.8186663 352.413334,91.7666668 352.24,91.732 C351.997332,91.8360005 351.650669,92.0439984 351.2,92.356 C351.130666,92.4253337 350.992001,92.5466658 350.784,92.72 C350.575999,92.8933342 350.420001,93.0319995 350.316,93.136 L349.432,92.252 L354.788,87.208 Z M361.808,92.148 L358.48,95.164 L358.48,108.372 C359.762673,107.470662 360.923995,106.188008 361.964,104.524 C363.004005,102.859992 363.645332,101.265341 363.888,99.74 C363.888,99.4973321 363.922666,99.2026684 363.992,98.856 C363.992,98.6826658 364.009333,98.5266674 364.044,98.388 L364.044,97.608 C364.009333,97.5733332 363.992,97.4693342 363.992,97.296 L363.992,96.932 C363.957333,96.8973332 363.94,96.776001 363.94,96.568 C363.697332,94.8693248 362.986673,93.4306726 361.808,92.252 L361.808,92.148 Z M415.732,78.108 L418.176,78.628 C421.296016,80.153341 423.601326,81.678659 425.092,83.204 C427.102677,85.3186772 428.108,87.7973191 428.108,90.64 C428.038666,90.9866684 428.004,91.2466658 428.004,91.42 C427.761332,92.7026731 427.536001,93.7079964 427.328,94.436 L427.016,95.528 C426.877333,96.0133358 426.773334,96.3946653 426.704,96.672 L422.804,104.108 L419.788,108.06 C419.892001,108.06 420.221331,108.025334 420.776,107.956 C421.989339,107.782666 422.682666,107.696 422.856,107.696 C423.029334,107.696 423.185333,107.678667 423.324,107.644 L424.156,107.644 C424.190667,107.678667 424.311999,107.696 424.52,107.696 L425.3,107.696 C425.646668,107.765334 425.906666,107.8 426.08,107.8 L426.86,107.956 C427.345336,107.990667 427.830664,108.094666 428.316,108.268 L429.252,107.072 L430.344,107.644 L426.808,113.624 C426.391998,113.589333 425.976002,113.485334 425.56,113.312 C425.421333,113.312 425.213335,113.277334 424.936,113.208 L424.312,113.052 L424,113.052 C423.826666,113.017333 423.705334,113 423.636,113 L423.012,113 C422.457331,112.930666 422.041335,112.896 421.764,112.896 C420.273326,112.896 418.990672,113.155997 417.916,113.676 C416.737327,114.265336 415.801337,115.253326 415.108,116.64 L414.432,116.432 L415.212,113.208 C416.286672,111.474658 417.343995,109.394679 418.384,106.968 C419.493339,104.367987 420.325331,102.114676 420.88,100.208 C420.082663,99.4106627 418.748009,98.8213352 416.876,98.44 C416.702666,98.44 416.564001,98.4226668 416.46,98.388 L415.836,98.388 C415.801333,98.4226668 415.732001,98.44 415.628,98.44 L415.16,98.44 C414.535997,98.44 413.84267,98.6479979 413.08,99.064 C412.42133,99.3066679 411.797336,99.7226637 411.208,100.312 L411.208,106.968 C410.965332,109.60268 409.80401,111.925323 407.724,113.936 C405.64399,115.946677 403.23468,116.952 400.496,116.952 L399.3,116.952 L392.956,115.08 C392.921333,115.045333 392.886667,115.028 392.852,115.028 L392.748,115.028 C392.08933,115.028 391.552002,115.131999 391.136,115.34 C390.546664,115.548001 390.026669,115.755999 389.576,115.964 L389.524,116.016 L389.472,116.016 C389.437333,116.016 389.385334,116.050666 389.316,116.12 C389.766669,114.871994 390.598661,113.806004 391.812,112.922 C393.025339,112.037996 394.307993,111.596 395.66,111.596 L396.18,111.492 C396.318667,111.596001 396.595998,111.682666 397.012,111.752 C397.220001,111.786667 397.566664,111.838666 398.052,111.908 C398.329335,111.977334 398.537333,112.012 398.676,112.012 L398.884,112.012 L399.04,112.09 C399.074667,112.107333 399.178666,112.116 399.352,112.116 C399.698668,112.185334 399.958666,112.22 400.132,112.22 L400.912,112.22 C401.605337,112.22 402.30733,112.055335 403.018,111.726 C403.72867,111.396665 404.205332,110.920003 404.448,110.296 L404.448,110.088 C404.448,110.053333 404.465333,110.001334 404.5,109.932 L404.5,109.62 C404.5,109.585333 404.517333,109.533334 404.552,109.464 L404.552,109.048 C404.552,107.973328 403.980006,106.881339 402.836,105.772 C401.830662,104.801328 400.721339,104.229334 399.508,104.056 L399.092,104.056 L398.884,103.952 C398.745333,104.056001 398.554668,104.125333 398.312,104.16 C398.069332,104.194667 397.922,104.212 397.87,104.212 C397.818,104.212 397.766,104.229333 397.714,104.264 C397.662,104.298667 397.592667,104.333333 397.506,104.368 C397.419333,104.402667 397.306667,104.42 397.168,104.42 L397.064,104.42 C397.029333,104.454667 396.994667,104.472 396.96,104.472 L396.908,104.472 C396.873333,104.506667 396.838667,104.524 396.804,104.524 L396.7,104.212 C396.7,104.177333 396.717333,104.142667 396.752,104.108 L396.752,104.056 C396.752,104.021333 396.769333,103.986667 396.804,103.952 L396.804,103.9 L396.908,103.796 C396.908,103.761333 396.925333,103.709334 396.96,103.64 L397.012,103.588 L397.012,103.536 C398.017338,102.530662 399.282659,102.028 400.808,102.028 L401.016,102.028 C401.050667,102.062667 401.119999,102.08 401.224,102.08 L401.796,102.08 C402.004001,102.149334 402.159999,102.184 402.264,102.184 L402.732,102.34 L402.732,101.82 C402.697333,101.785333 402.68,101.716001 402.68,101.612 C402.68,101.507999 402.610667,101.369334 402.472,101.196 C402.367999,100.883998 402.316,100.779999 402.316,100.884 C402.316,100.849333 402.29,100.797334 402.238,100.728 C402.186,100.658666 402.151333,100.606667 402.134,100.572 C402.116667,100.537333 402.082,100.494 402.03,100.442 L401.432,99.844 C401.362666,99.8093332 401.302,99.7313339 401.25,99.61 C401.198,99.4886661 401.085334,99.4106668 400.912,99.376 C400.877333,99.3413332 400.816667,99.2893337 400.73,99.22 C400.643333,99.1506663 400.582667,99.1073334 400.548,99.09 C400.513333,99.0726666 400.47,99.0466668 400.418,99.012 C400.366,98.9773332 400.322667,98.96 400.288,98.96 C400.114666,98.8906663 399.984667,98.8213337 399.898,98.752 C399.811333,98.6826663 399.742,98.6306668 399.69,98.596 C399.638,98.5613332 399.577334,98.544 399.508,98.544 C399.230665,98.4053326 398.936002,98.2493342 398.624,98.076 C398.589333,98.076 398.468001,98.0413337 398.26,97.972 C397.913332,97.9026663 397.688001,97.868 397.584,97.868 L397.532,97.868 C397.497333,97.9026668 397.462667,97.92 397.428,97.92 L397.168,97.92 C397.133333,97.9546668 397.098667,97.972 397.064,97.972 L396.908,97.972 L396.284,98.128 C396.145333,98.1626668 395.937335,98.18 395.66,98.18 L395.608,98.128 L395.556,98.128 C395.486666,98.128 395.443333,98.1106668 395.426,98.076 C395.408667,98.0413332 395.382667,98.0066668 395.348,97.972 L395.296,97.972 C395.226666,97.972 395.192,97.9373337 395.192,97.868 C395.573335,97.2439969 396.023997,96.767335 396.544,96.438 C397.064003,96.108665 397.601331,95.9266668 398.156,95.892 L398.52,95.892 C398.832002,95.892 399.421329,95.9786658 400.288,96.152 C400.392001,96.1866668 400.651998,96.2559995 401.068,96.36 C401.310668,96.4293337 401.449333,96.4726666 401.484,96.49 C401.518667,96.5073334 401.761331,96.6026658 402.212,96.776 C402.420001,96.8453337 402.558666,96.88 402.628,96.88 C402.732001,96.7759995 402.784,96.620001 402.784,96.412 C402.784,96.3773332 402.801333,96.2906674 402.836,96.152 L402.836,95.892 C402.142663,94.5399932 401.16334,93.4220044 399.898,92.538 C398.63266,91.6539956 397.254674,91.212 395.764,91.212 L395.296,91.108 C395.434667,90.9693326 395.538666,90.8393339 395.608,90.718 C395.677334,90.5966661 395.798666,90.4666674 395.972,90.328 C396.041334,90.2586663 396.249332,90.1893337 396.596,90.12 L397.22,89.964 C397.254667,89.964 397.323999,89.9466668 397.428,89.912 L397.688,89.912 C397.861334,89.912 398.138665,89.8773337 398.52,89.808 L398.884,89.808 C399.924005,89.808 401.241325,90.0506642 402.836,90.536 L402.836,86.012 L415.732,78.108 Z M410.012,83.568 L408.192,84.66 L408.192,105.928 C408.192,107.522675 407.741338,108.97866 406.84,110.296 C406.146663,111.370672 405.280005,112.202664 404.24,112.792 L404.344,112.792 C404.344,112.826667 404.361333,112.844 404.396,112.844 L404.708,112.844 C404.708,112.878667 404.742666,112.896 404.812,112.896 L404.968,112.896 C405.834671,112.896 406.718662,112.532004 407.62,111.804 C408.313337,111.110663 408.885331,110.313338 409.336,109.412 C409.336,109.377333 409.353333,109.342667 409.388,109.308 L409.388,109.204 C409.388,109.134666 409.422666,109.065334 409.492,108.996 C409.561334,108.614665 409.613333,108.302668 409.648,108.06 C409.648,108.302668 409.682666,107.973338 409.752,107.072 L409.908,105.044 C409.908,104.870666 409.925333,104.610668 409.96,104.264 L409.96,103.536 C409.96,103.189332 409.977333,102.929334 410.012,102.756 L410.012,83.568 Z M422.18,91.628 C421.867998,91.9053347 421.244005,92.3213306 420.308,92.876 C418.713325,93.53467 417.465338,93.864 416.564,93.864 C415.870663,93.864 415.264003,93.7773342 414.744,93.604 C414.674666,93.5346663 414.527334,93.4653337 414.302,93.396 C414.076666,93.3266663 413.912001,93.2660003 413.808,93.214 C413.703999,93.1619997 413.548001,93.0926671 413.34,93.006 C413.131999,92.9193329 412.958667,92.8413337 412.82,92.772 C412.681333,92.7026663 412.438668,92.5466679 412.092,92.304 L411.312,91.836 L411.312,98.596 C411.797336,98.387999 412.542662,98.1453347 413.548,97.868 C414.518672,97.6946658 415.246664,97.608 415.732,97.608 C416.39067,97.608 416.927998,97.6599995 417.344,97.764 C417.760002,97.8680005 418.054666,97.9286666 418.228,97.946 C418.401334,97.9633334 418.695998,98.0239995 419.112,98.128 C419.528002,98.2320005 419.701334,98.284 419.632,98.284 C419.770667,98.3186668 419.961332,98.3879995 420.204,98.492 C420.342667,98.5266668 420.533332,98.5873329 420.776,98.674 C421.018668,98.7606671 421.191999,98.8386663 421.296,98.908 C421.95467,97.4866596 422.284,95.805343 422.284,93.864 L422.284,93.604 C422.249333,93.5693332 422.232,93.4826674 422.232,93.344 L422.232,92.512 C422.197333,92.4773332 422.18,92.3906674 422.18,92.252 L422.18,91.628 Z M411.208,83.568 L411.208,89.6 C411.589335,90.6053384 412.213329,91.4026637 413.08,91.992 C413.877337,92.4426689 414.778662,92.7546658 415.784,92.928 L416.824,92.928 C417.621337,92.928 418.661327,92.59867 419.944,91.94 C420.70667,91.5239979 421.347997,90.98667 421.868,90.328 C421.451998,88.8373259 420.498674,87.5113391 419.008,86.35 C417.517326,85.1886609 415.940008,84.4000021 414.276,83.984 C414.137333,83.9146663 413.721337,83.8453337 413.028,83.776 C412.473331,83.7066663 412.092001,83.672 411.884,83.672 L411.208,83.568 Z M441.94,87.104 L448.7,94.072 L439.756,101.924 L439.756,107.072 L444.072,109.152 L447.296,106.76 L448.024,107.748 L441.056,113.208 L440.848,113.208 C440.674666,113.208 440.432002,113.164667 440.12,113.078 C439.807998,112.991333 439.608667,112.939333 439.522,112.922 C439.435333,112.904667 439.028004,112.636003 438.3,112.116 C438.230666,112.081333 438.126667,111.994667 437.988,111.856 L437.832,111.7 C437.762666,111.630666 437.676001,111.57 437.572,111.518 C437.467999,111.466 437.286001,111.362001 437.026,111.206 C436.765999,111.049999 436.445335,110.937334 436.064,110.868 L435.596,110.712 C435.491999,110.712 435.362001,110.694667 435.206,110.66 C435.049999,110.625333 434.885334,110.590667 434.712,110.556 C434.538666,110.521333 434.374001,110.469334 434.218,110.4 C434.061999,110.330666 433.724003,110.261334 433.204,110.192 C434.348006,109.047994 434.92,107.696008 434.92,106.136 L434.92,91.628 C436.133339,91.1773311 437.363994,90.5360042 438.612,89.704 C439.652005,89.0106632 440.761327,88.1786715 441.94,87.208 L441.94,87.104 Z M439.756,91.732 L439.756,99.896 C439.964001,99.8613332 440.206665,99.7226679 440.484,99.48 L441.264,98.856 C441.333334,98.8213332 441.394,98.7780003 441.446,98.726 C441.498,98.6739997 441.541333,98.6393334 441.576,98.622 C441.610667,98.6046666 441.662666,98.5700003 441.732,98.518 C441.801334,98.4659997 441.844667,98.4313334 441.862,98.414 C441.879333,98.3966666 441.957333,98.3360005 442.096,98.232 C442.234667,98.1279995 442.338666,98.0413337 442.408,97.972 C442.720002,97.7986658 443.049332,97.5646681 443.396,97.27 C443.742668,96.9753319 444.037332,96.7066679 444.28,96.464 L439.756,91.732 Z M456.916,80.552 L456.916,81.644 C456.846666,81.7480005 456.569336,82.0426642 456.084,82.528 C456.014666,82.5973337 455.893334,82.7273324 455.72,82.918 C455.546666,83.1086676 455.416667,83.2473329 455.33,83.334 C455.243333,83.4206671 455.2,83.5159995 455.2,83.62 L455.096,83.932 L455.096,84.036 C455.061333,84.1053337 455.044,84.1573332 455.044,84.192 L455.044,84.504 C455.009333,84.5386668 454.992,84.6426658 454.992,84.816 L454.992,85.076 C455.962672,86.2893394 456.759997,87.5373269 457.384,88.82 C458.14667,90.1026731 458.562666,91.506659 458.632,93.032 L465.288,87 C467.333344,88.8026757 468.546665,90.8479886 468.928,93.136 L469.344,93.032 L475.688,87.104 C475.722667,87.2080005 475.791999,87.26 475.896,87.26 L476.208,87.26 C476.277334,87.3293337 476.346666,87.364 476.416,87.364 L476.572,87.364 C476.572,87.3986668 476.589333,87.4246666 476.624,87.442 C476.658667,87.4593334 476.693333,87.5026663 476.728,87.572 C476.762667,87.6413337 476.814666,87.676 476.884,87.676 C477.404003,88.4040036 477.923997,89.2186622 478.444,90.12 C478.894669,90.77867 479.241332,91.6799943 479.484,92.824 L479.484,108.684 C479.310666,108.857334 479.172001,108.961333 479.068,108.996 C478.894666,109.134667 478.747334,109.221333 478.626,109.256 C478.504666,109.290667 478.348668,109.359999 478.158,109.464 C477.967332,109.568001 477.820001,109.637333 477.716,109.672 C476.987996,110.088002 475.982673,110.67733 474.7,111.44 C474.110664,111.786668 473.608002,112.081332 473.192,112.324 C473.087999,112.428001 472.637337,112.722664 471.84,113.208 L469.968,112.428 C469.447997,112.150665 468.789337,111.890668 467.992,111.648 C467.610665,111.543999 467.056004,111.405334 466.328,111.232 C465.911998,111.127999 465.392003,111.076 464.768,111.076 C462.965324,111.076 461.35334,111.78666 459.932,113.208 C459.793333,113.069333 459.663334,112.956667 459.542,112.87 C459.420666,112.783333 459.308001,112.722667 459.204,112.688 L458.424,112.064 C458.146665,111.821332 457.800002,111.561335 457.384,111.284 C455.685325,110.313328 454.766667,109.793334 454.628,109.724 C453.587995,109.238664 452.582672,108.996 451.612,108.996 C452.27067,108.475997 452.747332,107.88667 453.042,107.228 C453.336668,106.56933 453.484,105.841337 453.484,105.044 L453.484,92.148 C452.16666,89.9639891 451.508,88.2133399 451.508,86.896 C451.508,86.687999 451.525333,86.480001 451.56,86.272 L451.872,85.024 C451.906667,84.9546663 451.95,84.8506674 452.002,84.712 C452.054,84.5733326 452.08,84.4693337 452.08,84.4 C452.669336,83.6026627 453.241331,82.9266694 453.796,82.372 C454.350669,81.8173306 455.061329,81.2800026 455.928,80.76 L456.084,80.76 C456.118667,80.76 456.153333,80.7426668 456.188,80.708 L456.396,80.708 C456.430667,80.708 456.465333,80.6906668 456.5,80.656 L456.604,80.656 L456.916,80.552 Z M472.776,91.94 L469.032,95.476 L469.032,107.072 L474.752,109.256 L474.752,93.864 C474.717333,93.4826648 474.492002,93.0666689 474.076,92.616 C473.798665,92.2346648 473.365336,92.044 472.776,92.044 L472.776,91.94 Z M462.168,91.628 L458.528,95.06 L458.528,106.136 L458.944,106.552 L463.884,108.892 L463.884,93.968 C463.884,93.8293326 463.866667,93.6733342 463.832,93.5 C463.797333,93.3266658 463.710667,93.1013347 463.572,92.824 L463.26,92.512 C463.190666,92.4079995 463.069334,92.3040005 462.896,92.2 C462.618665,91.9226653 462.376001,91.7666668 462.168,91.732 L462.168,91.628 Z M501.116,83.776 L501.636,83.776 C502.156003,83.984001 502.485333,84.2266653 502.624,84.504 C502.901335,85.0586694 503.057333,85.4746653 503.092,85.752 C503.092,85.7866668 503.109333,85.8386663 503.144,85.908 L503.144,86.74 C503.109333,86.8440005 503.092,86.9653326 503.092,87.104 L502.936,87.728 L502.936,87.884 C502.901333,87.9186668 502.884,87.9533332 502.884,87.988 L502.884,88.092 C502.849333,88.1266668 502.832,88.1613332 502.832,88.196 L497.216,96.256 L502.052,99.272 L502.052,109.256 C500.561326,109.880003 499.48667,110.399998 498.828,110.816 C497.649327,111.509337 496.67867,112.167997 495.916,112.792 C495.881333,112.792 495.829334,112.818 495.76,112.87 C495.690666,112.922 495.63,112.956667 495.578,112.974 C495.526,112.991333 495.482667,113.017333 495.448,113.052 C495.413333,113.086667 495.37,113.121333 495.318,113.156 C495.266,113.190667 495.222667,113.208 495.188,113.208 C494.806665,112.999999 494.217337,112.722668 493.42,112.376 C492.865331,112.167999 492.241337,111.977334 491.548,111.804 C491.478666,111.804 491.340001,111.769334 491.132,111.7 C491.062666,111.7 490.976001,111.682667 490.872,111.648 L490.664,111.648 C490.455999,111.648 490.300001,111.630667 490.196,111.596 L489.26,111.596 C489.155999,111.630667 489.000001,111.648 488.792,111.648 C488.341331,111.717334 487.544006,111.925332 486.4,112.272 C486.122665,112.376001 485.689336,112.618665 485.1,113 L484.372,112.48 L490.56,103.432 L485.828,100.52 L485.828,91.628 C487.492008,91.0733306 489.294657,89.825343 491.236,87.884 L491.548,87.572 C491.582667,87.5373332 491.617333,87.4940003 491.652,87.442 L491.704,87.364 L491.86,87.208 L497.216,89.132 C497.354667,89.2706674 497.458666,89.34 497.528,89.34 L497.684,89.34 C497.718667,89.3746668 497.770666,89.392 497.84,89.392 L498.386,89.574 C498.438,89.5913334 498.550666,89.6 498.724,89.6 C499.036002,89.6 499.243999,89.5826668 499.348,89.548 L500.596,89.132 C500.804001,88.9586658 500.994666,88.8286671 501.168,88.742 C501.341334,88.6553329 501.497333,88.3346694 501.636,87.78 L501.636,86.792 C501.601333,86.7226663 501.497334,86.6533337 501.324,86.584 C501.324,86.5146663 501.220001,86.3933342 501.012,86.22 C500.977333,86.0466658 500.899334,85.9340003 500.778,85.882 C500.656666,85.8299997 500.596,85.7866668 500.596,85.752 L500.44,85.596 L500.44,85.544 C500.405333,85.544 500.388,85.5266668 500.388,85.492 L500.388,85.388 C500.353333,85.388 500.318667,85.3620003 500.284,85.31 C500.249333,85.2579997 500.232,85.2146668 500.232,85.18 L500.232,84.972 C500.232,84.9373332 500.240667,84.8853337 500.258,84.816 C500.275333,84.7466663 500.370666,84.5906679 500.544,84.348 C500.648001,84.2093326 500.803999,84.0706674 501.012,83.932 L501.064,83.88 L501.116,83.88 L501.116,83.776 Z M494.252,100.416 L489.208,107.748 C489.277334,107.817334 489.381333,107.852 489.52,107.852 C489.554667,107.852 489.606666,107.834667 489.676,107.8 L489.832,107.8 C490.317336,107.730666 490.637999,107.696 490.794,107.696 C490.950001,107.696 491.097333,107.678667 491.236,107.644 L492.016,107.644 C492.050667,107.678667 492.171999,107.696 492.38,107.696 L492.796,107.696 C492.900001,107.730667 493.055999,107.756667 493.264,107.774 C493.472001,107.791333 493.835997,107.851999 494.356,107.956 C494.598668,108.025334 494.962664,108.146666 495.448,108.32 C496.176004,108.597335 496.886663,108.943998 497.58,109.36 L497.58,102.6 L494.252,100.416 Z M490.456,97.868 L493.368,99.584 L497.996,92.928 C497.857333,93.0666674 497.701334,93.136 497.528,93.136 L497.268,93.136 C497.163999,93.1706668 497.077334,93.188 497.008,93.188 L496.696,93.188 C496.661333,93.2226668 496.574667,93.24 496.436,93.24 L495.968,93.24 C496.072001,93.24 495.153343,93.1186679 493.212,92.876 C492.587997,92.7026658 491.669339,92.3906689 490.456,91.94 L490.456,97.868 Z" id="The-Miscellany-News"></path>
        </g>
    </g>
</svg>