<?xml version="1.0" encoding="UTF-8"?>
<svg width="742px" height="81px" viewBox="0 0 742 81" version="1.1" xmlns="http://www.w3.org/2000/svg" xmlns:xlink="http://www.w3.org/1999/xlink">
    <!-- Generator: Sketch 41.2 (35397) - http://www.bohemiancoding.com/sketch -->
    <title>Group</title>
    <desc>Created with Sketch.</desc>
    <defs></defs>
    <g id="Page-1" stroke="none" stroke-width="1" fill="none" fill-rule="evenodd">
        <g id="White" transform="translate(-144.000000, -61.000000)" fill="#FFFFFF">
            <g id="Group" transform="translate(144.000000, 61.000000)">
                <path d="M22.5239258,53.1420898 C23.6746477,52.1557568 24.4883602,51.079026 24.9650879,49.9118652 C25.4418155,48.7447045 25.6801758,47.1748146 25.6801758,45.2021484 L25.6801758,12.2587891 L24.4472656,12.0615234 C21.0608555,15.4150558 18.5786212,18.9082663 17.0004883,22.5412598 C15.4223554,26.1742532 14.6333008,30.2592547 14.6333008,34.7963867 C14.6333008,38.5773301 15.2908463,41.9883474 16.605957,45.029541 C17.9210678,48.0707346 19.8937043,50.7748905 22.5239258,53.1420898 Z M24.7431641,54.6708984 C26.5185636,56.2490313 28.6720251,57.4490519 31.2036133,58.2709961 C33.7352015,59.0929403 36.5297699,59.5039062 39.5874023,59.5039062 C40.2778355,59.5039062 40.7874333,59.4956869 41.1162109,59.479248 C41.4449886,59.4628092 41.7408841,59.4381512 42.0039062,59.4052734 L42.0039062,15.168457 L35.7407227,13.8862305 L35.7407227,34.1552734 C35.7407227,38.5280167 34.9598874,42.1691749 33.3981934,45.0788574 C31.8364994,47.9885399 28.9515184,51.185855 24.7431641,54.6708984 Z M0.134277344,20.4453125 C1.02197709,14.2971698 3.52065002,9.61215804 7.63037109,6.39013672 C11.7400922,3.1681154 17.2470358,1.55712891 24.1513672,1.55712891 C25.597989,1.55712891 27.2665107,1.67219937 29.1569824,1.90234375 C31.0474541,2.13248813 33.5543464,2.55989271 36.6777344,3.18457031 C38.0914784,3.44759246 40.0969922,3.89143568 42.6943359,4.51611328 C47.7246345,5.69971295 51.4068894,6.29150391 53.7412109,6.29150391 C55.5166104,6.29150391 57.0043072,5.8969766 58.2043457,5.10791016 C59.4043843,4.31884371 60.5468696,2.97087542 61.6318359,1.06396484 L62.4208984,1.26123047 C62.1249985,5.73260699 60.6373018,9.20115955 57.9577637,11.6669922 C55.2782255,14.1328248 51.6206286,15.3657227 46.9848633,15.3657227 L45.3820801,15.3657227 C45.0368635,15.3657227 44.6998714,15.3328454 44.3710938,15.2670898 L44.3710938,59.0107422 C47.889015,58.1559202 51.0123561,56.6517849 53.7412109,54.498291 C56.4700657,52.3447972 58.9358614,49.4105003 61.1386719,45.6953125 L62.125,46.0898438 C60.415356,53.3229528 57.2262603,58.8874317 52.5576172,62.7834473 C47.8889741,66.6794628 42.0532577,68.6274414 35.050293,68.6274414 C30.5460387,68.6274414 26.403502,67.9041413 22.6225586,66.4575195 C18.8416152,65.0108977 15.4716945,62.8738748 12.5126953,60.0463867 C9.9153516,57.4819208 7.95915371,54.5640626 6.64404297,51.2927246 C5.32893223,48.0213866 4.67138672,44.4295443 4.67138672,40.5170898 C4.67138672,34.9936247 6.12620615,29.7990152 9.03588867,24.9331055 C11.9455712,20.0671957 16.2278363,15.6452022 21.8828125,11.6669922 C20.7978461,11.4697256 19.8197472,11.3299972 18.9484863,11.2478027 C18.0772255,11.1656083 17.2799515,11.1245117 16.5566406,11.1245117 C13.1702305,11.1245117 10.2359336,11.8724697 7.75366211,13.3684082 C5.27139058,14.8643467 3.02751654,17.2232912 1.02197266,20.4453125 L0.134277344,20.4453125 Z M68.7292969,58.1230469 L68.7292969,26.3139648 L63.8469726,26.3139648 L63.8469726,20.9384766 L68.7292969,20.9384766 L68.7292969,11.8642578 C68.7292969,10.5491471 68.4827173,9.38200379 67.9895508,8.36279297 C67.4963842,7.34358214 66.5922592,6.22575478 65.2771484,5.00927734 L65.5730469,4.46679688 C66.8881576,4.79557456 68.0717395,5.23941778 69.1238281,5.79833984 C70.1759167,6.35726191 71.1129191,7.06412333 71.9348633,7.91894531 L72.871875,7.91894531 C74.1212302,6.30793465 75.534953,5.06681751 77.1130859,4.19555664 C78.6912188,3.32429577 80.4337144,2.82291732 82.340625,2.69140625 L82.5378906,3.18457031 C81.058391,4.26953667 79.9323443,5.57640837 79.1597168,7.10522461 C78.3870892,8.63404085 78.0007812,10.3190012 78.0007812,12.1601562 L78.0007812,30.1113281 L91.3162109,19.2124023 C93.3217548,20.6590242 94.8834254,22.4837129 96.0012695,24.6865234 C97.1191137,26.8893339 97.6780273,29.2071818 97.6780273,31.6401367 L97.6780273,56.4956055 C97.6780273,61.8546817 95.4916885,66.424623 91.1189453,70.2055664 C86.7462021,73.9865098 80.4173266,76.7482009 72.1321289,78.4907227 L71.9348633,77.4057617 C78.5432947,74.808418 82.957069,72.3097451 85.1763183,69.909668 C87.3955677,67.5095909 88.5051758,64.2876179 88.5051758,60.2436523 L88.5051758,31.7387695 C88.5051758,31.0154586 88.2092803,30.226404 87.6174805,29.371582 C87.0256806,28.51676 86.236626,27.79346 85.250293,27.2016602 L78.0007812,33.0703125 L78.0007812,58.1230469 L80.7131836,61.0327148 L73.1677734,68.2329102 L65.5730469,61.5258789 L68.7292969,58.1230469 Z M120.655371,19.0151367 L133.280371,32.8730469 C130.715905,34.7799575 128.110381,36.8019099 125.463721,38.9389648 C122.81706,41.0760198 119.899202,43.5253768 116.710059,46.2871094 L116.710059,56.5942383 L124.255469,60.1450195 L130.518652,55.8051758 L131.948828,57.4819336 C129.811773,58.9614332 127.600776,60.580639 125.315771,62.3395996 C123.030767,64.0985602 120.655383,66.0301002 118.189551,68.1342773 C116.216885,66.6876555 114.0963,65.4711963 111.827734,64.4848633 C109.559168,63.4985302 107.142689,62.7587915 104.578223,62.265625 C105.597433,61.4765586 106.320734,60.5066789 106.748145,59.355957 C107.175555,58.2052351 107.389258,56.6435646 107.389258,54.6708984 L107.389258,27.300293 C109.296168,26.5112265 111.32634,25.4427151 113.479834,24.0947266 C115.633328,22.7467381 118.02515,21.0535584 120.655371,19.0151367 Z M116.216895,43.4760742 L125.19248,36.0786133 L116.216895,26.4125977 L116.216895,43.4760742 Z" id="The"></path>
                <path d="M210.952148,58.4052734 L214.059082,55.7915039 L214.059082,36.7060547 L207.598633,36.7060547 L207.598633,53.4736328 C207.598633,55.1175212 207.836993,56.2435679 208.313721,56.8518066 C208.790448,57.4600454 209.669915,57.9778624 210.952148,58.4052734 Z M174.260742,61.7587891 C174.984053,61.9560557 175.62516,62.1040034 176.184082,62.2026367 C176.743004,62.30127 177.252602,62.3505859 177.712891,62.3505859 C179.751312,62.3505859 181.304764,61.7012597 182.373291,60.4025879 C183.441818,59.103916 183.976074,57.2052534 183.976074,54.706543 L183.976074,17.6206055 C183.976074,16.4370058 184.124022,15.3027398 184.419922,14.2177734 C184.715822,13.1328071 185.176104,12.0149797 185.800781,10.8642578 C183.729482,12.2122463 182.250004,13.7985749 181.362305,15.623291 C180.474605,17.4480072 180.030762,19.8727062 180.030762,22.8974609 L180.030762,49.5283203 C180.030762,52.7503416 179.562261,55.3558657 178.625244,57.3449707 C177.688228,59.3340757 176.233408,60.8053338 174.260742,61.7587891 Z M186.293945,34.684082 L190.041992,29.2592773 L197.094238,29.2592773 L197.094238,12.0478516 C197.094238,10.8313741 196.551763,9.85327518 195.466797,9.11352539 C194.381831,8.3737756 192.918792,7.97102897 191.077637,7.90527344 C189.466626,9.35189525 188.266606,10.9382238 187.477539,12.6643066 C186.688473,14.3903895 186.293945,16.2726135 186.293945,18.3110352 L186.293945,34.684082 Z M207.598633,29.2592773 L214.059082,29.2592773 L214.059082,10.2724609 L207.598633,14.5136719 L207.598633,29.2592773 Z M153.991699,74.7783203 C153.991699,71.5234212 154.772535,68.8521426 156.334229,66.7644043 C157.895923,64.676666 160.090481,63.3533557 162.917969,62.7944336 C163.739913,62.6300448 164.841302,62.4327811 166.222168,62.2026367 C168.655123,61.8081035 170.167478,61.4628921 170.759277,61.1669922 C172.370288,60.2792924 173.562089,59.210781 174.334717,57.9614258 C175.107344,56.7120706 175.493652,55.1832773 175.493652,53.375 C175.493652,49.9228343 174.44158,46.9556602 172.337402,44.4733887 C170.233225,41.9911171 167.750991,40.75 164.890625,40.75 C163.970047,40.75 163.008387,40.8404125 162.005615,41.0212402 C161.002843,41.202068 159.942551,41.4897441 158.824707,41.8842773 C159.284996,38.9910337 160.411042,36.7800369 162.202881,35.2512207 C163.994719,33.7224045 166.501611,32.8264987 169.723633,32.5634766 C169.920899,26.8098671 170.964753,22.1906099 172.855225,18.7055664 C174.745696,15.2205229 177.745748,12.3273227 181.855469,10.0258789 L199.708008,0.162597656 C202.272474,1.60921947 204.187575,3.22842529 205.453369,5.02026367 C206.719163,6.81210206 207.434244,8.87515109 207.598633,11.2094727 L224.168945,0.458496094 L234.574707,7.51074219 L238.52002,4.60107422 L239.900879,5.68603516 C238.355624,7.59294573 237.295332,9.17105495 236.719971,10.4204102 C236.14461,11.6697654 235.856934,12.9848564 235.856934,14.3657227 L235.856934,53.2763672 C235.856934,54.8545001 236.078855,56.1367138 236.522705,57.1230469 C236.966555,58.1093799 237.500811,58.6025391 238.125488,58.6025391 C238.289877,58.6025391 238.487141,58.5450038 238.717285,58.4299316 C238.94743,58.3148595 239.17757,58.1422538 239.407715,57.9121094 L240.344727,57.0244141 L241.922852,58.5039062 L232.75,67.5288086 C230.185534,66.5753533 228.278652,65.071218 227.029297,63.0163574 C225.779942,60.9614969 225.155273,58.2902183 225.155273,55.0024414 L225.155273,12.7875977 L218.20166,7.51074219 L216.376953,8.54638672 L216.376953,29.2592773 L221.752441,29.2592773 L216.376953,36.7060547 L216.376953,53.9667969 L218.596191,52.043457 L220.125,53.6708984 L204.688965,67.4301758 C203.340976,65.7534096 201.828622,64.1259845 200.151855,62.5478516 C198.475089,60.9697187 196.584646,59.3916095 194.480469,57.8134766 L194.480469,57.0244141 L195.664062,55.8901367 C196.091473,55.5284813 196.436685,55.0764187 196.699707,54.5339355 C196.962729,53.9914524 197.094238,53.4736353 197.094238,52.9804688 L197.094238,36.7060547 L186.293945,36.7060547 L186.293945,55.2983398 C186.293945,60.1313718 185.011732,64.1013028 182.447266,67.208252 C179.8828,70.3152011 176.644388,71.8686523 172.731934,71.8686523 C171.614089,71.8686523 169.879813,71.6302921 167.529053,71.1535645 C165.178292,70.6768368 163.378261,70.4384766 162.128906,70.4384766 C160.320629,70.4384766 158.841152,70.783688 157.69043,71.4741211 C156.539708,72.1645542 155.602705,73.265943 154.879395,74.7783203 L153.991699,74.7783203 Z M253.580332,14.3657227 L255.898203,3.17089844 L261.964121,3.17089844 L254.468027,14.3657227 L253.580332,14.3657227 Z M257.72291,56.1367188 C257.887299,56.7942741 258.158537,57.3614071 258.536631,57.8381348 C258.914725,58.3148624 259.432542,58.7011704 260.090098,58.9970703 L261.766855,57.7148438 L263.295664,59.2436523 L254.172129,67.2329102 C251.936441,66.0821883 250.350112,64.5944915 249.413096,62.7697754 C248.476079,60.9450592 248.007578,58.2244647 248.007578,54.6079102 L248.007578,28.125 L245.09791,24.6728516 L252.692637,18.0151367 L260.238047,25.215332 L257.72291,28.125 L257.72291,56.1367188 Z M287.528828,58.5039062 L287.528828,45.2871094 L282.054707,42.081543 L271.550313,56.6298828 C272.668157,56.2024718 273.761326,55.8901377 274.829854,55.6928711 C275.898381,55.4956045 276.958673,55.3969727 278.010762,55.3969727 C279.556017,55.3969727 281.117687,55.6599909 282.69582,56.1860352 C284.273953,56.7120795 285.88494,57.4846954 287.528828,58.5039062 Z M274.410664,37.840332 L279.736836,40.9472656 L288.613789,28.125 C287.528823,28.3222666 286.542504,28.4702144 285.654805,28.5688477 C284.767105,28.667481 284.010928,28.7167969 283.38625,28.7167969 C281.873873,28.7167969 280.377957,28.5195332 278.898457,28.125 C277.418957,27.7304668 275.923041,27.1222372 274.410664,26.300293 L274.410664,37.840332 Z M262.969258,65.2109375 L274.805195,47.9008789 L265.484395,42.4760742 L265.484395,26.300293 C267.720083,25.3139599 269.832448,24.1221587 271.821553,22.7248535 C273.810658,21.3275484 275.643566,19.7247812 277.320332,17.9165039 C279.687531,19.2644924 281.947844,20.2919073 284.101338,20.9987793 C286.254832,21.7056513 288.20281,22.059082 289.945332,22.059082 C291.523465,22.059082 292.781021,21.7385286 293.718037,21.0974121 C294.655054,20.4562956 295.123555,19.5932671 295.123555,18.5083008 C295.123555,17.9493787 294.712589,17.1685434 293.890645,16.1657715 C293.0687,15.1629995 292.657734,14.3986029 292.657734,13.8725586 C292.657734,13.2150032 292.904314,12.6478702 293.39748,12.1711426 C293.890647,11.6944149 294.465999,11.4560547 295.123555,11.4560547 C296.142766,11.4560547 296.964697,11.825924 297.589375,12.5656738 C298.214053,13.3054236 298.526387,14.2835226 298.526387,15.5 C298.526387,16.4863331 298.304465,17.5137479 297.860615,18.5822754 C297.416765,19.6508029 296.668807,20.9083587 295.616719,22.3549805 L287.035664,34.7827148 L295.912617,40.5527344 L295.912617,59.6381836 C293.874196,60.295739 291.844024,61.2409606 289.822041,62.473877 C287.800058,63.7067933 285.786325,65.2602445 283.780781,67.1342773 C282.268404,66.0164332 280.723172,65.1780627 279.145039,64.6191406 C277.566906,64.0602186 275.95592,63.7807617 274.312031,63.7807617 C272.766776,63.7807617 271.221544,64.0026833 269.676289,64.4465332 C268.131034,64.8903831 266.503609,65.5725865 264.793965,66.4931641 L262.969258,65.2109375 Z M315.115508,18.0151367 L325.225371,25.0180664 L320.786895,31.6757812 L312.600371,26.2016602 L312.600371,54.9038086 L320.343047,59.0463867 L324.584258,55.7915039 L325.915801,57.4189453 C324.502057,58.4710339 322.808877,59.8025636 320.836211,61.4135742 C318.863545,63.0245849 316.611451,64.9314669 314.079863,67.1342773 C311.942808,65.1616112 309.731812,63.5917213 307.446807,62.4245605 C305.161802,61.2573998 302.835735,60.4930031 300.468535,60.1313477 C301.487746,59.375159 302.211046,58.421718 302.638457,57.2709961 C303.065868,56.1202742 303.27957,54.5586036 303.27957,52.5859375 L303.27957,26.300293 C305.64677,25.2810821 307.81667,24.0810616 309.789336,22.7001953 C311.762002,21.319329 313.537375,19.7576585 315.115508,18.0151367 Z M343.540566,18.0151367 L356.165566,31.8730469 C353.6011,33.7799575 350.995576,35.8019099 348.348916,37.9389648 C345.702256,40.0760198 342.784397,42.5253768 339.595254,45.2871094 L339.595254,55.5942383 L347.140664,59.1450195 L353.403848,54.8051758 L354.834023,56.4819336 C352.696969,57.9614332 350.485972,59.580639 348.200967,61.3395996 C345.915962,63.0985602 343.540579,65.0301002 341.074746,67.1342773 C339.10208,65.6876555 336.981496,64.4711963 334.71293,63.4848633 C332.444364,62.4985302 330.027884,61.7587915 327.463418,61.265625 C328.482629,60.4765586 329.205929,59.5066789 329.63334,58.355957 C330.060751,57.2052351 330.274453,55.6435646 330.274453,53.6708984 L330.274453,26.300293 C332.181364,25.5112265 334.211535,24.4427151 336.365029,23.0947266 C338.518523,21.7467381 340.910345,20.0535584 343.540566,18.0151367 Z M339.10209,42.4760742 L348.077676,35.0786133 L339.10209,25.4125977 L339.10209,42.4760742 Z M367.083301,7.11621094 C368.5628,5.47232251 370.091594,4.23120536 371.669727,3.39282227 C373.24786,2.55443917 374.941039,2.08593799 376.749316,1.98730469 L376.946582,2.38183594 C375.467082,3.4668023 374.341036,4.773674 373.568408,6.30249023 C372.795781,7.83130647 372.409473,9.51626684 372.409473,11.3574219 L372.409473,54.3613281 L378.968555,58.9477539 L381.434375,56.8271484 L382.815234,58.4052734 C381.237102,59.9176508 379.716528,61.3806895 378.253467,62.7944336 C376.790406,64.2081776 375.352025,65.6547778 373.938281,67.1342773 C372.327271,65.4575111 370.387511,63.9533758 368.118945,62.6218262 C365.850379,61.2902765 363.105127,60.065598 359.883106,58.9477539 C360.902316,58.1586875 361.633836,57.1888078 362.077686,56.0380859 C362.521535,54.887364 362.743457,53.3256935 362.743457,51.3530273 L362.743457,10.765625 C362.743457,9.81216971 362.447562,8.76831622 361.855762,7.6340332 C361.263962,6.49975019 360.409153,5.35726487 359.291309,4.20654297 L359.587207,3.76269531 C360.737929,4.02571746 361.847537,4.42846408 362.916065,4.97094727 C363.984592,5.51343045 365.061323,6.22851119 366.146289,7.11621094 L367.083301,7.11621094 Z M393.831602,7.11621094 C395.311101,5.47232251 396.839895,4.23120536 398.418027,3.39282227 C399.99616,2.55443917 401.68934,2.08593799 403.497617,1.98730469 L403.694883,2.38183594 C402.215383,3.4668023 401.089337,4.773674 400.316709,6.30249023 C399.544081,7.83130647 399.157773,9.51626684 399.157773,11.3574219 L399.157773,54.3613281 L405.716856,58.9477539 L408.182676,56.8271484 L409.563535,58.4052734 C407.985402,59.9176508 406.464828,61.3806895 405.001768,62.7944336 C403.538707,64.2081776 402.100326,65.6547778 400.686582,67.1342773 C399.075571,65.4575111 397.135812,63.9533758 394.867246,62.6218262 C392.59868,61.2902765 389.853428,60.065598 386.631406,58.9477539 C387.650617,58.1586875 388.382137,57.1888078 388.825986,56.0380859 C389.269836,54.887364 389.491758,53.3256935 389.491758,51.3530273 L389.491758,10.765625 C389.491758,9.81216971 389.195862,8.76831622 388.604063,7.6340332 C388.012263,6.49975019 387.157454,5.35726487 386.039609,4.20654297 L386.335508,3.76269531 C387.48623,4.02571746 388.595838,4.42846408 389.664365,4.97094727 C390.732893,5.51343045 391.809624,6.22851119 392.89459,7.11621094 L393.831602,7.11621094 Z M430.689766,55.7915039 L418.163399,67.1342773 L417.226387,67.1342773 C414.760554,64.7013225 413.00162,62.4327905 411.949531,60.3286133 C410.897443,58.2244361 410.371406,55.9394655 410.371406,53.4736328 C410.371406,50.3831226 411.152242,47.300878 412.713936,44.2268066 C414.27563,41.1527353 416.618135,38.103368 419.741524,35.0786133 L415.155098,22.059082 C415.319487,22.0919598 415.533189,22.1166178 415.796211,22.1330566 C416.059233,22.1494955 416.437322,22.1577148 416.930488,22.1577148 C418.96891,22.1577148 420.785379,21.8042841 422.379951,21.0974121 C423.974523,20.3905401 425.281395,19.3631252 426.300606,18.0151367 L439.862617,22.9960938 L442.57502,20.8754883 L443.216133,21.4672852 C442.098289,23.3084402 441.284576,24.8372335 440.774971,26.0537109 C440.265365,27.2701884 439.961251,28.3551385 439.862617,29.3085938 L439.862617,55.8901367 C439.994128,56.5805699 440.257147,57.1805801 440.65168,57.6901855 C441.046213,58.199791 441.572249,58.6025376 442.229805,58.8984375 L444.005195,57.6162109 L445.435371,59.1450195 L436.607734,67.1342773 C434.569313,65.9177999 433.073397,64.4301032 432.119941,62.6711426 C431.166486,60.912182 430.689766,58.7505011 430.689766,56.1860352 L430.689766,55.7915039 Z M430.689766,52.7832031 L430.689766,41.8842773 L421.270332,36.7060547 C420.349755,38.218432 419.667551,39.763664 419.223701,41.3417969 C418.779851,42.9199298 418.55793,44.5473549 418.55793,46.2241211 C418.55793,48.8214648 419.001773,51.2050673 419.889473,53.375 C420.777172,55.5449327 422.108702,57.4682533 423.884102,59.1450195 L430.689766,52.7832031 Z M421.467598,34.8813477 L430.689766,39.9609375 L430.689766,28.9140625 L417.522285,23.8837891 L421.467598,34.8813477 Z M459.657305,31.6757812 L459.657305,56.8271484 L462.271074,60.2299805 L455.021563,67.2329102 L447.525469,60.2299805 L450.38582,57.1230469 L450.38582,30.8374023 C450.38582,29.8510693 450.229653,29.0126988 449.917315,28.3222656 C449.604976,27.6318325 449.120036,27.0236029 448.462481,26.4975586 L446.835039,27.8291016 L445.306231,26.2016602 L453.492754,18.0151367 C455.662687,19.1987364 457.232577,20.6288979 458.202471,22.3056641 C459.172365,23.9824303 459.657305,26.0865759 459.657305,28.6181641 L459.657305,29.0126953 C461.038171,28.0263623 462.632719,26.7359292 464.440996,25.1413574 C466.249273,23.5467856 468.665753,21.3029116 471.690508,18.409668 L478.150957,25.215332 L482.09627,21.4672852 L483.477129,22.9960938 C482.523674,24.3112045 481.693522,25.5194444 480.98665,26.6208496 C480.279778,27.7222549 479.729084,28.6674765 479.334551,29.456543 L479.334551,56.0874023 C479.49894,56.7449577 479.786616,57.3285294 480.197588,57.8381348 C480.60856,58.3477402 481.109939,58.7340482 481.701738,58.9970703 L483.378496,57.7148438 L484.907305,59.2436523 L476.030352,67.2329102 C473.827541,65.9177994 472.282309,64.3561288 471.394609,62.5478516 C470.50691,60.7395743 470.063066,58.0929536 470.063066,54.6079102 L470.063066,30.5415039 L466.019121,26.5961914 L459.657305,31.6757812 Z M501.743008,29.456543 L514.368008,18.3110352 C516.40643,20.5138456 517.943442,22.9960799 518.979092,25.7578125 C520.014742,28.5195451 520.532559,31.5278158 520.532559,34.7827148 C520.532559,39.1225803 519.348977,43.0514147 516.981777,46.5693359 C514.614578,50.0872572 510.455603,53.9010211 504.504727,58.0107422 C503.71566,58.5696643 501.644392,59.8354394 498.290859,61.8081055 C494.937327,63.7807716 492.323584,65.621899 490.449551,67.331543 C489.561851,68.1534872 488.887867,69.0082963 488.427578,69.8959961 C487.967289,70.7836958 487.737149,71.6713823 487.737149,72.559082 C487.737149,74.1043372 488.386475,75.337235 489.685147,76.2578125 C490.983818,77.17839 492.750972,77.6386719 494.98666,77.6386719 C497.025082,77.6386719 498.940183,76.9318105 500.732022,75.5180664 C502.52386,74.1043224 503.682784,73.3974609 504.208828,73.3974609 C504.734873,73.3974609 505.162277,73.553628 505.491055,73.8659668 C505.819832,74.1783056 505.984219,74.6139295 505.984219,75.1728516 C505.984219,76.5208401 504.940365,77.6879833 502.852627,78.6743164 C500.764889,79.6606495 498.175803,80.1538086 495.085293,80.1538086 C491.863272,80.1538086 489.356379,79.520921 487.564541,78.255127 C485.772703,76.9893329 484.876797,75.2221793 484.876797,72.9536133 C484.876797,71.9672802 485.106938,70.931646 485.567227,69.8466797 C486.027515,68.7617133 486.915202,67.2493587 488.230313,65.3095703 C490.104345,62.51496 491.296147,60.6656132 491.805752,59.7614746 C492.315357,58.857336 492.570156,58.2080098 492.570156,57.8134766 L492.570156,30.8374023 C492.570156,29.8510693 492.422209,29.0126988 492.126309,28.3222656 C491.830409,27.6318325 491.33725,26.9907256 490.646816,26.3989258 L487.737149,28.9140625 L486.20834,27.2373047 L495.627774,18.0151367 C497.699073,19.1329808 499.236086,20.5960196 500.238858,22.4042969 C501.241629,24.2125741 501.743008,26.4153516 501.743008,29.0126953 L501.743008,29.456543 Z M501.743008,57.0244141 C505.063663,54.5257037 507.562335,51.698258 509.239102,48.5419922 C510.915868,45.3857264 511.754238,41.9829284 511.754238,38.3334961 C511.754238,35.8019079 511.425466,33.5991305 510.76791,31.7250977 C510.110355,29.8510648 509.124037,28.2729556 507.808926,26.9907227 L501.743008,32.2675781 L501.743008,57.0244141 Z" id="Miscellany"></path>
                <path d="M579.655762,40.5170898 C581.496917,39.3992457 583.157219,38.6019718 584.636719,38.1252441 C586.116218,37.6485165 587.612134,37.4101562 589.124512,37.4101562 C590.636889,37.4101562 592.124586,37.6813938 593.587646,38.223877 C595.050707,38.7663601 596.505527,39.5636341 597.952148,40.6157227 C598.642582,38.9060787 599.168618,37.2046797 599.530273,35.5114746 C599.891929,33.8182695 600.072754,32.1990637 600.072754,30.6538086 C600.072754,29.9962532 600.039877,29.371585 599.974121,28.7797852 C599.908366,28.1879853 599.793295,27.5961944 599.628906,27.0043945 C598.280918,28.2866275 596.752124,29.2647264 595.04248,29.9387207 C593.332837,30.612715 591.573902,30.949707 589.765625,30.949707 C588.023103,30.949707 586.338143,30.6620309 584.710693,30.0866699 C583.083244,29.511309 581.398283,28.6154032 579.655762,27.3989258 L579.655762,40.5170898 Z M579.655762,24.7851562 C581.464039,26.1331448 583.206535,27.144121 584.883301,27.8181152 C586.560067,28.4921095 588.187492,28.8291016 589.765625,28.8291016 C591.508147,28.8291016 593.168449,28.4674515 594.746582,27.7441406 C596.324715,27.0208297 597.754876,25.9687569 599.037109,24.5878906 C597.820632,20.8727028 595.527442,17.9055287 592.157471,15.6862793 C588.787499,13.4670299 584.620305,12.1601582 579.655762,11.765625 L579.655762,24.7851562 Z M566.340332,66.1123047 C566.537599,66.1451825 566.734862,66.1698404 566.932129,66.1862793 C567.129396,66.2027182 567.425291,66.2109375 567.819824,66.2109375 C570.844579,66.2109375 573.170646,64.9698204 574.798096,62.4875488 C576.425545,60.0052773 577.239258,56.4627509 577.239258,51.8598633 L577.239258,11.9628906 L573.491211,13.9848633 L573.491211,49.640625 C573.491211,54.2435126 572.915859,57.8517936 571.765137,60.4655762 C570.614415,63.0793588 568.806165,64.9615828 566.340332,66.1123047 Z M538.624512,72.4741211 C540.367033,69.6795108 542.257477,67.6329004 544.295898,66.3342285 C546.33432,65.0355567 548.619291,64.3862305 551.150879,64.3862305 C552.268723,64.3862305 553.838613,64.5177396 555.860596,64.7807617 C557.882578,65.0437839 559.353837,65.175293 560.274414,65.175293 C562.510102,65.175293 564.22794,64.6739145 565.427979,63.6711426 C566.628017,62.6683706 567.228027,61.2135512 567.228027,59.3066406 C567.228027,56.6764191 566.200612,54.5393962 564.145752,52.8955078 C562.090891,51.2516194 559.386736,50.4296875 556.033203,50.4296875 C555.145503,50.4296875 554.438642,50.4461261 553.912598,50.4790039 C553.386553,50.5118817 552.876956,50.5611976 552.383789,50.6269531 C553.172856,49.2789646 554.183832,48.2679884 555.416748,47.5939941 C556.649664,46.9199999 558.088045,46.5830078 559.731934,46.5830078 C560.356611,46.5830078 561.047034,46.640543 561.803223,46.7556152 C562.559411,46.8706874 563.332027,47.0268545 564.121094,47.2241211 C563.364905,44.2979997 562.049814,42.0787836 560.175781,40.5664062 C558.301748,39.0540289 555.934585,38.2978516 553.074219,38.2978516 C552.61393,38.2978516 552.137209,38.3225095 551.644043,38.3718262 C551.150876,38.4211428 550.62484,38.4951167 550.065918,38.59375 C550.789229,37.2786393 551.701573,36.3005403 552.802979,35.6594238 C553.904384,35.0183073 555.244133,34.6977539 556.822266,34.6977539 C557.874354,34.6977539 559.00862,34.8703596 560.225098,35.2155762 C561.441575,35.5607927 562.773105,36.0950485 564.219727,36.8183594 C563.595049,33.4319492 562.115572,30.8182058 559.78125,28.9770508 C557.446928,27.1358957 554.438658,26.215332 550.756348,26.215332 L550.164551,26.215332 C551.019373,25.0646101 551.997472,24.2180203 553.098877,23.6755371 C554.200282,23.1330539 555.507154,22.8618164 557.019531,22.8618164 C558.005864,22.8618164 559.099034,23.0015448 560.299072,23.2810059 C561.499111,23.5604669 562.805983,23.9960908 564.219727,24.5878906 L564.219727,16.4013672 L588.434082,1.55712891 C595.667191,3.85857271 601.149477,6.95725591 604.881104,10.8532715 C608.61273,14.7492871 610.478516,19.3274477 610.478516,24.5878906 C610.478516,29.5853114 609.212741,34.8210176 606.681152,40.295166 C604.149564,45.7693145 600.286484,51.6132502 595.091797,57.8271484 C596.472663,57.3997374 597.754877,57.0874033 598.938477,56.8901367 C600.122076,56.6928701 601.239904,56.5942383 602.291992,56.5942383 C603.50847,56.5942383 604.848219,56.6928701 606.311279,56.8901367 C607.77434,57.0874033 609.360669,57.3997374 611.070312,57.8271484 L612.796387,55.3613281 L614.818359,56.5942383 L607.914062,68.6274414 C605.875641,68.0356416 604.108487,67.6000177 602.612549,67.3205566 C601.11661,67.0410956 599.7933,66.9013672 598.642578,66.9013672 C595.913723,66.9013672 593.53834,67.5013775 591.516357,68.701416 C589.494375,69.9014546 587.792976,71.717924 586.412109,74.1508789 L585.425781,73.3618164 C585.820314,70.3041839 587.908021,64.5506607 591.688965,56.1010742 C594.154797,50.6433646 596.028802,46.3035643 597.311035,43.081543 C595.897291,41.8321878 594.541103,40.9280627 593.242432,40.3691406 C591.94376,39.8102186 590.620449,39.5307617 589.272461,39.5307617 C587.66145,39.5307617 586.124438,39.7855606 584.661377,40.295166 C583.198316,40.8047714 581.529795,41.7006772 579.655762,42.9829102 L579.655762,53.7832031 C579.655762,59.5696904 577.847512,64.4684044 574.230957,68.4794922 C570.614402,72.49058 566.225286,74.4960938 561.063477,74.4960938 C558.893544,74.4960938 556.066098,73.9536187 552.581055,72.8686523 C549.096011,71.783686 546.712409,71.2412109 545.430176,71.2412109 C544.345209,71.2412109 543.25204,71.3891587 542.150635,71.6850586 C541.04923,71.9809585 539.95606,72.4083631 538.871094,72.9672852 L538.624512,72.4741211 Z M634.332441,19.0151367 L646.957441,32.8730469 C644.392975,34.7799575 641.787451,36.8019099 639.140791,38.9389648 C636.494131,41.0760198 633.576272,43.5253768 630.387129,46.2871094 L630.387129,56.5942383 L637.932539,60.1450195 L644.195723,55.8051758 L645.625898,57.4819336 C643.488843,58.9614332 641.277847,60.580639 638.992842,62.3395996 C636.707837,64.0985602 634.332454,66.0301002 631.866621,68.1342773 C629.893955,66.6876555 627.773371,65.4711963 625.504805,64.4848633 C623.236239,63.4985302 620.819759,62.7587915 618.255293,62.265625 C619.274504,61.4765586 619.997804,60.5066789 620.425215,59.355957 C620.852626,58.2052351 621.066328,56.6435646 621.066328,54.6708984 L621.066328,27.300293 C622.973239,26.5112265 625.00341,25.4427151 627.156904,24.0947266 C629.310398,22.7467381 631.70222,21.0535584 634.332441,19.0151367 Z M629.893965,43.4760742 L638.869551,36.0786133 L629.893965,26.4125977 L629.893965,43.4760742 Z M680.822598,30.0126953 L693.447598,19.0151367 C695.781919,21.1521917 697.45866,23.1248282 698.477871,24.9331055 C699.497082,26.7413827 700.00668,28.6482647 700.00668,30.6538086 L700.00668,60.3422852 C697.507969,61.1642294 695.099709,62.2409601 692.781826,63.5725098 C690.463944,64.9040594 688.318701,66.4575107 686.346035,68.2329102 C684.011714,66.7862883 681.956884,65.7177769 680.181484,65.0273438 C678.406085,64.3369106 676.860853,63.9916992 675.545742,63.9916992 C674.131998,63.9916992 672.701837,64.3369106 671.255215,65.0273438 C669.808593,65.7177769 668.312677,66.7862883 666.767422,68.2329102 C664.630367,66.4903884 662.123475,64.9204985 659.24667,63.5231934 C656.369865,62.1258882 653.188989,60.934087 649.703945,59.9477539 C650.756034,59.1258097 651.487553,58.1394914 651.898525,56.9887695 C652.309498,55.8380476 652.51498,54.1284293 652.51498,51.8598633 L652.51498,28.3359375 C651.166992,26.6262935 650.156016,24.9659911 649.482022,23.3549805 C648.808027,21.7439698 648.471035,20.1987379 648.471035,18.7192383 C648.471035,16.2862834 649.292967,14.0424094 650.936855,11.9875488 C652.580744,9.93268829 655.062978,8.03402564 658.383633,6.29150391 L659.074063,7.62304688 C657.726074,8.87240208 656.739756,10.0231067 656.115078,11.0751953 C655.490401,12.1272839 655.178066,13.1629181 655.178066,14.1821289 C655.178066,15.2670953 655.917805,16.8616431 657.397305,18.9658203 C657.561694,19.1959647 657.693203,19.3932283 657.791836,19.5576172 C659.337091,21.6617944 660.380945,23.4700445 660.923428,24.9824219 C661.465911,26.4947992 661.770026,28.138663 661.835781,29.9140625 L674.460781,19.0151367 C676.532081,20.823414 678.077313,22.6070062 679.096523,24.3659668 C680.115734,26.1249274 680.691087,28.0071514 680.822598,30.0126953 Z M671.699063,60.1450195 L671.699063,32.7744141 C671.699063,32.0182254 671.436044,31.1716355 670.91,30.2346191 C670.383956,29.2976027 669.61134,28.2866265 668.592129,27.2016602 L661.835781,33.0703125 L661.835781,55.9038086 C663.939958,56.8901417 665.748209,57.7120735 667.260586,58.3696289 C668.772963,59.0271843 670.252441,59.6189752 671.699063,60.1450195 Z M691.425625,60.1450195 L691.425625,32.7744141 C691.425625,32.0182254 691.154388,31.1716355 690.611904,30.2346191 C690.069421,29.2976027 689.288586,28.2866265 688.269375,27.2016602 L681.019863,33.0703125 L681.019863,56.5942383 C682.663752,57.3175492 684.348712,57.9668754 686.074795,58.5422363 C687.800878,59.1175973 689.58447,59.651853 691.425625,60.1450195 Z M730.321055,59.5039062 L730.321055,46.2871094 L724.846934,43.081543 L714.342539,57.6298828 C715.460383,57.2024718 716.553553,56.8901377 717.62208,56.6928711 C718.690608,56.4956045 719.7509,56.3969727 720.802988,56.3969727 C722.348243,56.3969727 723.909914,56.6599909 725.488047,57.1860352 C727.06618,57.7120795 728.677166,58.4846954 730.321055,59.5039062 Z M717.202891,38.840332 L722.529063,41.9472656 L731.406016,29.125 C730.321049,29.3222666 729.334731,29.4702144 728.447031,29.5688477 C727.559332,29.667481 726.803154,29.7167969 726.178477,29.7167969 C724.666099,29.7167969 723.170183,29.5195332 721.690684,29.125 C720.211184,28.7304668 718.715268,28.1222372 717.202891,27.300293 L717.202891,38.840332 Z M705.761484,66.2109375 L717.597422,48.9008789 L708.276621,43.4760742 L708.276621,27.300293 C710.512309,26.3139599 712.624674,25.1221587 714.613779,23.7248535 C716.602884,22.3275484 718.435792,20.7247812 720.112559,18.9165039 C722.479758,20.2644924 724.740071,21.2919073 726.893564,21.9987793 C729.047058,22.7056513 730.995037,23.059082 732.737559,23.059082 C734.315692,23.059082 735.573247,22.7385286 736.510264,22.0974121 C737.44728,21.4562956 737.915781,20.5932671 737.915781,19.5083008 C737.915781,18.9493787 737.504815,18.1685434 736.682871,17.1657715 C735.860927,16.1629995 735.449961,15.3986029 735.449961,14.8725586 C735.449961,14.2150032 735.696541,13.6478702 736.189707,13.1711426 C736.682874,12.6944149 737.258226,12.4560547 737.915781,12.4560547 C738.934992,12.4560547 739.756924,12.825924 740.381602,13.5656738 C741.006279,14.3054236 741.318613,15.2835226 741.318613,16.5 C741.318613,17.4863331 741.096692,18.5137479 740.652842,19.5822754 C740.208992,20.6508029 739.461034,21.9083587 738.408945,23.3549805 L729.827891,35.7827148 L738.704844,41.5527344 L738.704844,60.6381836 C736.666422,61.295739 734.63625,62.2409606 732.614268,63.473877 C730.592285,64.7067933 728.578552,66.2602445 726.573008,68.1342773 C725.06063,67.0164332 723.515399,66.1780627 721.937266,65.6191406 C720.359133,65.0602186 718.748146,64.7807617 717.104258,64.7807617 C715.559003,64.7807617 714.013771,65.0026833 712.468516,65.4465332 C710.923261,65.8903831 709.295835,66.5725865 707.586191,67.4931641 L705.761484,66.2109375 Z" id="News"></path>
            </g>
        </g>
    </g>
</svg>