<?xml version="1.0" encoding="UTF-8"?>
<svg width="741px" height="81px" viewBox="0 0 741 81" version="1.1" xmlns="http://www.w3.org/2000/svg" xmlns:xlink="http://www.w3.org/1999/xlink">
    <!-- Generator: Sketch 41.2 (35397) - http://www.bohemiancoding.com/sketch -->
    <title>The Miscellany News</title>
    <desc>Created with Sketch.</desc>
    <defs></defs>
    <g id="Page-1" stroke="none" stroke-width="1" fill="none" fill-rule="evenodd">
        <g id="Artboard" transform="translate(-41.000000, -104.000000)" fill="#FFFFFF">
            <g id="The-Miscellany-News" transform="translate(41.000000, 104.000000)">
                <path d="M0.957333239,21.2613332 L0.904,21.208 L0.904,21.016 L0.808,20.92 L0.808,20.824 C0.808,16.215977 2.63198176,12.408015 6.28,9.4 C10.1840195,6.199984 14.2799786,4.18400416 18.568,3.352 C18.8240013,3.28799968 19.7199923,3.16000096 21.256,2.968 C21.448001,2.968 21.7039984,2.93600032 22.024,2.872 L22.696,2.872 C22.9520013,2.80799968 23.3999968,2.776 24.04,2.776 L25.192,2.776 C25.2560003,2.84000032 25.4159987,2.872 25.672,2.872 L26.44,2.872 C26.632001,2.93600032 26.7919994,2.968 26.92,2.968 L27.784,2.968 L52.936,7.096 L53.176,7.336 C53.2080002,7.36800016 53.2879994,7.384 53.416,7.384 L54.088,7.384 C54.088,7.44800032 54.1519994,7.48 54.28,7.48 L55.816,7.48 C56.008001,7.48 56.2159989,7.44800032 56.44,7.384 C56.6640011,7.31999968 56.8559992,7.27200016 57.016,7.24 C57.1760008,7.20799984 57.4479981,7.12800064 57.832,7 L58.696,6.712 C58.888001,6.58399936 59.1599982,6.40800112 59.512,6.184 C59.8640018,5.95999888 60.1039994,5.78400064 60.232,5.656 C60.3600006,5.52799936 60.4879994,5.3840008 60.616,5.224 C60.7440006,5.0639992 60.903999,4.8240016 61.096,4.504 L61.528,3.784 C61.6240005,3.6239992 61.7359994,3.44800096 61.864,3.256 L62.056,2.968 L62.248,2.968 L62.344,2.872 L62.344,2.776 L62.536,2.776 L62.632,2.68 L62.824,2.68 C62.8880003,2.68 62.9519997,2.64800032 63.016,2.584 L63.208,2.584 C63.2720003,2.584 63.3359997,2.55200032 63.4,2.488 L63.496,2.488 L63.496,4.408 C63.4319997,4.47200032 63.4,4.6639984 63.4,4.984 L63.4,5.464 C63.3359997,5.65600096 63.304,5.81599936 63.304,5.944 C62.8559978,8.5040128 61.4480118,10.9999878 59.08,13.432 C56.9039891,15.6080109 54.4720134,16.8559984 51.784,17.176 L51.208,17.176 C51.1439997,17.2400003 50.9520016,17.272 50.632,17.272 L50.056,17.272 C49.9919997,17.3360003 49.8000016,17.368 49.48,17.368 C48.9679974,17.4960006 48.5840013,17.56 48.328,17.56 L46.888,17.56 C46.8239997,17.56 46.7280006,17.5280003 46.6,17.464 L45.832,17.464 C45.7679997,17.464 45.7040003,17.4320003 45.64,17.368 L45.448,17.368 L45.448,58.84 L45.832,59.032 C48.0080109,59.2880013 50.3119878,58.4720094 52.744,56.584 C55.1760122,54.6959906 57.095993,52.8240093 58.504,50.968 L60.52,48.376 C61.2880038,47.3519949 61.8639981,46.5520029 62.248,45.976 L63.112,45.784 L63.112,47.128 C63.112,52.5680272 60.1360298,57.6559763 54.184,62.392 C53.7999981,62.7120016 53.1920042,63.1919968 52.36,63.832 C50.5039907,65.3040074 48.4240115,66.3599968 46.12,67 C45.7999984,67.0640003 44.2000144,67.4479965 41.32,68.152 C38.4399856,68.4720016 36.5840042,68.632 35.752,68.632 C28.5199638,68.632 21.9600294,66.4880214 16.072,62.2 C9.92796928,57.7839779 6.34400512,51.9920358 5.32,44.824 L5.32,44.536 C5.25599968,44.4719997 5.224,44.344001 5.224,44.152 L5.224,43.768 C5.15999968,43.7039997 5.128,43.576001 5.128,43.384 L5.128,43.096 L5.032,43.096 L5.032,42.712 C4.96799968,42.6479997 4.936,42.5520006 4.936,42.424 L4.936,40.696 C4.936,40.503999 4.96799968,40.2960011 5.032,40.072 C5.09600032,39.8479989 5.15999968,39.7040003 5.224,39.64 L5.224,39.064 C5.224,38.9999997 5.25599968,38.9200005 5.32,38.824 C5.38400032,38.7279995 5.416,38.6000008 5.416,38.44 C5.416,38.2799992 5.47999936,37.9440026 5.608,37.432 C5.608,37.1759987 5.67199936,36.7920026 5.8,36.28 C8.23201216,26.4239507 13.7039574,18.8720262 22.216,13.624 C22.0879994,13.624 21.928001,13.5920003 21.736,13.528 L21.16,13.528 C21.0319994,13.528 20.872001,13.4960003 20.68,13.432 L20.104,13.432 C19.7199981,13.432 19.4960003,13.4000003 19.432,13.336 L18.664,13.336 C18.4079987,13.336 18.184001,13.3040003 17.992,13.24 L17.416,13.24 C10.5039654,13.24 5.22401824,16.0239722 1.576,21.592 L0.808,21.208 C0.871999964,21.2293333 0.921777687,21.2471111 0.957333239,21.2613332 L0.957333239,21.2613332 Z M37.288,16.408 L37.288,39.064 C37.288,42.3920166 36.2000109,45.4319862 34.024,48.184 C31.8479891,50.9360138 29.5120125,53.1759914 27.016,54.904 C26.8879994,55.0320006 26.7600006,55.096 26.632,55.096 C26.439999,55.288001 26.2160013,55.4479994 25.96,55.576 L25.816,55.672 C25.7199995,55.7360003 25.6400003,55.7999997 25.576,55.864 C27.6240102,57.5280083 29.8319882,58.7439962 32.2,59.512 C34.5680118,60.2800038 36.9999875,60.664 39.496,60.664 L40.36,60.664 C40.552001,60.664 40.9039974,60.6000006 41.416,60.472 C41.4800003,60.472 41.6399987,60.4400003 41.896,60.376 L42.376,60.376 C42.4400003,60.376 42.5999987,60.3440003 42.856,60.28 L43.24,60.28 L43.24,17.176 L37.288,16.408 Z M24.616,14.008 C23.3359936,14.7760038 22.4080029,15.6079955 21.832,16.504 C20.5519936,18.3600093 19.4640045,20.3119898 18.568,22.36 C18.5039997,22.4880006 18.2160026,23.1599939 17.704,24.376 C17.3199981,25.3360048 16.9040022,26.4879933 16.456,27.832 C16.3279994,28.6640042 16.0720019,29.879992 15.688,31.48 L15.4,33.784 C15.3359997,34.2960026 15.304,35.0639949 15.304,36.088 C15.304,38.0080096 15.5599974,39.9919898 16.072,42.04 C16.9680045,44.6000128 17.7679965,46.5199936 18.472,47.8 C18.5360003,47.992001 18.5839998,48.1199997 18.616,48.184 C18.6480002,48.2480003 18.7279994,48.3439994 18.856,48.472 L19.144,48.76 C19.144,48.8240003 19.2079994,48.9359992 19.336,49.096 C19.4640006,49.2560008 19.9439958,49.9439939 20.776,51.16 C21.2240022,51.5440019 21.7999965,52.1519958 22.504,52.984 C22.6320006,53.0480003 22.7599994,53.1919989 22.888,53.416 C23.0160006,53.6400011 23.0959998,53.7839997 23.128,53.848 C23.1600002,53.9120003 23.2399994,53.944 23.368,53.944 C23.4320003,53.944 23.5279994,53.8800006 23.656,53.752 L24.04,53.368 C24.1040003,53.3039997 24.1839995,53.2400003 24.28,53.176 C24.3760005,53.1119997 24.4399998,53.0480003 24.472,52.984 C24.5040002,52.9199997 24.5839994,52.8240006 24.712,52.696 L25.096,52.312 C25.1600003,52.1839994 25.2559994,52.0560006 25.384,51.928 C25.384,52.4400026 25.6719971,51.5440115 26.248,49.24 L26.536,48.088 C26.728001,47.5759974 26.824,46.7440058 26.824,45.592 L26.824,15.16 L26.728,15.16 L26.728,15.064 C26.6639997,15.064 26.632,15.0320003 26.632,14.968 L26.632,14.872 L26.536,14.872 L26.536,14.68 C26.4079994,14.68 26.344,14.6160006 26.344,14.488 L26.344,14.2 L24.616,14.008 Z M83.1,2.776 L85.308,2.776 C83.4519907,4.44000832 82.2040032,6.00799264 81.564,7.48 C80.9239968,8.95200736 80.4440016,10.8719882 80.124,13.24 L80.124,30.136 L93.18,19.192 C95.1000096,20.7280077 96.5719949,22.2319926 97.596,23.704 C98.6840055,25.3680083 99.4839975,27.2239898 99.996,29.272 L99.996,58.84 C98.7799939,64.6000288 95.772024,69.0319845 90.972,72.136 C86.171976,75.2400155 81.0200275,77.3679942 75.516,78.52 L75.228,78.52 C75.1639997,78.4559997 75.0840005,78.4080002 74.988,78.376 C74.8919995,78.3439998 74.6840016,78.2640006 74.364,78.136 L74.268,78.136 C74.2039997,78.0719997 74.1400003,78.04 74.076,78.04 L73.98,78.04 C73.9159997,77.9759997 73.8520003,77.944 73.788,77.944 L74.364,76.504 C83.2600445,73.5599853 88.7639895,68.8560323 90.876,62.392 L90.876,30.52 L87.228,27.16 L79.932,33.112 L79.932,57.304 L82.908,60.856 L75.324,67.384 L67.836,60.856 L70.812,57.304 L70.812,26.296 L65.82,26.104 L65.82,21.016 L71.196,21.016 L71.196,13.24 C70.4279962,9.52798144 68.8920115,6.74400928 66.588,4.888 L67.26,4.696 C67.452001,4.88800096 67.7079984,4.984 68.028,4.984 L68.412,4.984 C68.4760003,5.04800032 68.6039991,5.08 68.796,5.08 C69.3720029,5.27200096 70.1879947,5.65599712 71.244,6.232 C72.3000053,6.80800288 73.0519978,7.4159968 73.5,8.056 C73.5640003,8.056 73.6279997,8.11999936 73.692,8.248 C73.7560003,8.37600064 73.788,8.47199968 73.788,8.536 L74.172,8.92 C76.7960131,5.59198336 79.7719834,3.6080032 83.1,2.968 L83.1,2.776 Z M121.616,19.192 L134.096,32.056 L117.584,46.552 L117.584,56.056 L125.552,59.896 L131.504,55.48 L132.848,57.304 L119.984,67.384 L119.6,67.384 C119.279998,67.384 118.832003,67.3040008 118.256,67.144 C117.679997,66.9839992 117.312001,66.8880002 117.152,66.856 C116.991999,66.8239998 116.240007,66.3280048 114.896,65.368 C114.767999,65.3039997 114.576001,65.1440013 114.32,64.888 L114.032,64.6 C113.903999,64.4719994 113.744001,64.3600005 113.552,64.264 C113.359999,64.1679995 113.024002,63.9760014 112.544,63.688 C112.063998,63.3999986 111.472004,63.1920006 110.768,63.064 L109.904,62.776 C109.711999,62.776 109.472001,62.7440003 109.184,62.68 C108.895999,62.6159997 108.592002,62.5520003 108.272,62.488 C107.951998,62.4239997 107.648001,62.3280006 107.36,62.2 C107.071999,62.0719994 106.448005,61.9440006 105.488,61.816 C107.600011,59.7039894 108.656,57.2080144 108.656,54.328 L108.656,27.544 C110.896011,26.7119958 113.167989,25.5280077 115.472,23.992 C117.39201,22.7119936 119.439989,21.176009 121.616,19.384 L121.616,19.192 Z M117.584,27.736 L117.584,42.808 C117.968002,42.7439997 118.415997,42.4880022 118.928,42.04 L120.368,40.888 C120.496001,40.8239997 120.608,40.7440005 120.704,40.648 C120.800001,40.5519995 120.88,40.4880002 120.944,40.456 C121.008,40.4239998 121.103999,40.3600005 121.232,40.264 C121.360001,40.1679995 121.44,40.1040002 121.472,40.072 C121.504,40.0399998 121.647999,39.928001 121.904,39.736 C122.160001,39.543999 122.351999,39.3840006 122.48,39.256 C123.056003,38.9359984 123.663997,38.5040027 124.304,37.96 C124.944003,37.4159973 125.487998,36.9200022 125.936,36.472 L117.584,27.736 Z" id="The"></path>
                <path d="M587.832,2.584 L592.344,3.544 C598.104029,6.36001408 602.359986,9.17598592 605.112,11.992 C608.824019,15.8960195 610.68,20.4719738 610.68,25.72 C610.551999,26.3600032 610.488,26.8399984 610.488,27.16 C610.039998,29.5280118 609.624002,31.3839933 609.24,32.728 L608.664,34.744 C608.407999,35.6400045 608.216001,36.3439974 608.088,36.856 L600.888,50.584 L595.32,57.88 C595.512001,57.88 596.119995,57.8160006 597.144,57.688 C599.384011,57.3679984 600.663998,57.208 600.984,57.208 C601.304002,57.208 601.591999,57.1760003 601.848,57.112 L603.384,57.112 C603.448,57.1760003 603.671998,57.208 604.056,57.208 L605.496,57.208 C606.136003,57.3360006 606.615998,57.4 606.936,57.4 L608.376,57.688 C609.272004,57.7520003 610.167996,57.9439984 611.064,58.264 L612.792,56.056 L614.808,57.112 L608.28,68.152 C607.511996,68.0879997 606.744004,67.8960016 605.976,67.576 C605.719999,67.576 605.336003,67.5120006 604.824,67.384 L603.672,67.096 L603.096,67.096 C602.775998,67.0319997 602.552001,67 602.424,67 L601.272,67 C600.247995,66.8719994 599.480003,66.808 598.968,66.808 C596.215986,66.808 593.84801,67.2879952 591.864,68.248 C589.687989,69.3360054 587.960006,71.1599872 586.68,73.72 L585.432,73.336 L586.872,67.384 C588.85601,64.183984 590.80799,60.3440224 592.728,55.864 C594.77601,51.063976 596.311995,46.9040176 597.336,43.384 C595.863993,41.9119926 593.400017,40.8240035 589.944,40.12 C589.623998,40.12 589.368001,40.0880003 589.176,40.024 L588.024,40.024 C587.96,40.0880003 587.832001,40.12 587.64,40.12 L586.776,40.12 C585.623994,40.12 584.344007,40.5039962 582.936,41.272 C581.719994,41.7200022 580.568005,42.4879946 579.48,43.576 L579.48,55.864 C579.031998,60.7280243 576.888019,65.0159814 573.048,68.728 C569.207981,72.4400186 564.760025,74.296 559.704,74.296 L557.496,74.296 L545.784,70.84 C545.72,70.7759997 545.656,70.744 545.592,70.744 L545.4,70.744 C544.183994,70.744 543.192004,70.9359981 542.424,71.32 C541.335995,71.7040019 540.376004,72.0879981 539.544,72.472 L539.448,72.568 L539.352,72.568 C539.288,72.568 539.192001,72.6319994 539.064,72.76 C539.896004,70.4559885 541.431989,68.4880082 543.672,66.856 C545.912011,65.2239918 548.279988,64.408 550.776,64.408 L551.736,64.216 C551.992001,64.408001 552.503996,64.5679994 553.272,64.696 C553.656002,64.7600003 554.295996,64.8559994 555.192,64.984 C555.704003,65.1120006 556.087999,65.176 556.344,65.176 L556.728,65.176 L557.016,65.32 C557.08,65.3520002 557.271998,65.368 557.592,65.368 C558.232003,65.4960006 558.711998,65.56 559.032,65.56 L560.472,65.56 C561.752006,65.56 563.047993,65.256003 564.36,64.648 C565.672007,64.039997 566.551998,63.1600058 567,62.008 L567,61.624 C567,61.5599997 567.032,61.4640006 567.096,61.336 L567.096,60.76 C567.096,60.6959997 567.128,60.6000006 567.192,60.472 L567.192,59.704 C567.192,57.7199901 566.136011,55.7040102 564.024,53.656 C562.167991,51.863991 560.120011,50.8080016 557.88,50.488 L557.112,50.488 L556.728,50.296 C556.471999,50.488001 556.120002,50.6159997 555.672,50.68 C555.223998,50.7440003 554.952,50.776 554.856,50.776 C554.76,50.776 554.664,50.8079997 554.568,50.872 C554.472,50.9360003 554.344001,50.9999997 554.184,51.064 C554.023999,51.1280003 553.816001,51.16 553.56,51.16 L553.368,51.16 C553.304,51.2240003 553.24,51.256 553.176,51.256 L553.08,51.256 C553.016,51.3200003 552.952,51.352 552.888,51.352 L552.696,50.776 C552.696,50.7119997 552.728,50.6480003 552.792,50.584 L552.792,50.488 C552.792,50.4239997 552.824,50.3600003 552.888,50.296 L552.888,50.2 L553.08,50.008 C553.08,49.9439997 553.112,49.8480006 553.176,49.72 L553.272,49.624 L553.272,49.528 C555.128009,47.6719907 557.463986,46.744 560.28,46.744 L560.664,46.744 C560.728,46.8080003 560.855999,46.84 561.048,46.84 L562.104,46.84 C562.488002,46.9680006 562.775999,47.032 562.968,47.032 L563.832,47.32 L563.832,46.36 C563.768,46.2959997 563.736,46.168001 563.736,45.976 C563.736,45.783999 563.608001,45.5280016 563.352,45.208 C563.159999,44.6319971 563.064,44.439999 563.064,44.632 C563.064,44.5679997 563.016,44.4720006 562.92,44.344 C562.824,44.2159994 562.76,44.1200003 562.728,44.056 C562.696,43.9919997 562.632,43.9120005 562.536,43.816 L561.432,42.712 C561.303999,42.6479997 561.192,42.5040011 561.096,42.28 C561,42.0559989 560.792002,41.9120003 560.472,41.848 C560.408,41.7839997 560.296001,41.6880006 560.136,41.56 C559.975999,41.4319994 559.864,41.3520002 559.8,41.32 C559.736,41.2879998 559.656,41.2400003 559.56,41.176 C559.464,41.1119997 559.384,41.08 559.32,41.08 C558.999998,40.9519994 558.760001,40.8240006 558.6,40.696 C558.439999,40.5679994 558.312,40.4720003 558.216,40.408 C558.12,40.3439997 558.008001,40.312 557.88,40.312 C557.367997,40.0559987 556.824003,39.7680016 556.248,39.448 C556.184,39.448 555.960002,39.3840006 555.576,39.256 C554.935997,39.1279994 554.520001,39.064 554.328,39.064 L554.232,39.064 C554.168,39.1280003 554.104,39.16 554.04,39.16 L553.56,39.16 C553.496,39.2240003 553.432,39.256 553.368,39.256 L553.08,39.256 L551.928,39.544 C551.671999,39.6080003 551.288003,39.64 550.776,39.64 L550.68,39.544 L550.584,39.544 C550.455999,39.544 550.376,39.5120003 550.344,39.448 C550.312,39.3839997 550.264,39.3200003 550.2,39.256 L550.104,39.256 C549.975999,39.256 549.912,39.1920006 549.912,39.064 C550.616004,37.9119942 551.447995,37.032003 552.408,36.424 C553.368005,35.815997 554.359995,35.4800003 555.384,35.416 L556.056,35.416 C556.632003,35.416 557.719992,35.5759984 559.32,35.896 C559.512001,35.9600003 559.991996,36.087999 560.76,36.28 C561.208002,36.4080006 561.464,36.4879998 561.528,36.52 C561.592,36.5520002 562.039996,36.7279984 562.872,37.048 C563.256002,37.1760006 563.511999,37.24 563.64,37.24 C563.832001,37.047999 563.928,36.7600019 563.928,36.376 C563.928,36.3119997 563.96,36.1520013 564.024,35.896 L564.024,35.416 C562.743994,32.9199875 560.936012,30.8560082 558.6,29.224 C556.263988,27.5919918 553.720014,26.776 550.968,26.776 L550.104,26.584 C550.360001,26.3279987 550.551999,26.0880011 550.68,25.864 C550.808001,25.6399989 551.031998,25.4000013 551.352,25.144 C551.480001,25.0159994 551.863997,24.8880006 552.504,24.76 L553.656,24.472 C553.72,24.472 553.847999,24.4400003 554.04,24.376 L554.52,24.376 C554.840002,24.376 555.351996,24.3120006 556.056,24.184 L556.728,24.184 C558.64801,24.184 561.079985,24.6319955 564.024,25.528 L564.024,17.176 L587.832,2.584 Z M577.272,12.664 L573.912,14.68 L573.912,53.944 C573.912,56.8880147 573.080008,59.5759878 571.416,62.008 C570.135994,63.9920099 568.53601,65.5279946 566.616,66.616 L566.808,66.616 C566.808,66.6800003 566.84,66.712 566.904,66.712 L567.48,66.712 C567.48,66.7760003 567.543999,66.808 567.672,66.808 L567.96,66.808 C569.560008,66.808 571.191992,66.1360067 572.856,64.792 C574.136006,63.5119936 575.191996,62.0400083 576.024,60.376 C576.024,60.3119997 576.056,60.2480003 576.12,60.184 L576.12,59.992 C576.12,59.8639994 576.183999,59.7360006 576.312,59.608 C576.440001,58.9039965 576.536,58.3280022 576.6,57.88 C576.6,58.3280022 576.663999,57.7200083 576.792,56.056 L577.08,52.312 C577.08,51.9919984 577.112,51.5120032 577.176,50.872 L577.176,49.528 C577.176,48.8879968 577.208,48.4080016 577.272,48.088 L577.272,12.664 Z M599.736,27.544 C599.159997,28.0560026 598.008009,28.8239949 596.28,29.848 C593.335985,31.0640061 591.032008,31.672 589.368,31.672 C588.087994,31.672 586.968005,31.5120016 586.008,31.192 C585.879999,31.0639994 585.608002,30.9360006 585.192,30.808 C584.775998,30.6799994 584.472001,30.5680005 584.28,30.472 C584.087999,30.3759995 583.800002,30.2480008 583.416,30.088 C583.031998,29.9279992 582.712001,29.7840006 582.456,29.656 C582.199999,29.5279994 581.752003,29.2400022 581.112,28.792 L579.672,27.928 L579.672,40.408 C580.568004,40.0239981 581.943991,39.5760026 583.8,39.064 C585.592009,38.7439984 586.935996,38.584 587.832,38.584 C589.048006,38.584 590.039996,38.679999 590.808,38.872 C591.576004,39.064001 592.119998,39.1759998 592.44,39.208 C592.760002,39.2400002 593.303996,39.351999 594.072,39.544 C594.840004,39.736001 595.160001,39.832 595.032,39.832 C595.288001,39.8960003 595.639998,40.023999 596.088,40.216 C596.344001,40.2800003 596.695998,40.3919992 597.144,40.552 C597.592002,40.7120008 597.911999,40.8559994 598.104,40.984 C599.320006,38.3599869 599.928,35.2560179 599.928,31.672 L599.928,31.192 C599.864,31.1279997 599.832,30.9680013 599.832,30.712 L599.832,29.176 C599.768,29.1119997 599.736,28.9520013 599.736,28.696 L599.736,27.544 Z M579.48,12.664 L579.48,23.8 C580.184004,25.6560093 581.335992,27.1279946 582.936,28.216 C584.408007,29.0480042 586.071991,29.6239984 587.928,29.944 L589.848,29.944 C591.320007,29.944 593.239988,29.3360061 595.608,28.12 C597.016007,27.3519962 598.199995,26.3600061 599.16,25.144 C598.391996,22.3919862 596.632014,19.9440107 593.88,17.8 C591.127986,15.6559893 588.216015,14.2000038 585.144,13.432 C584.887999,13.3039994 584.120006,13.1760006 582.84,13.048 C581.815995,12.9199994 581.112002,12.856 580.728,12.856 L579.48,12.664 Z M633.416,19.192 L645.896,32.056 L629.384,46.552 L629.384,56.056 L637.352,59.896 L643.304,55.48 L644.648,57.304 L631.784,67.384 L631.4,67.384 C631.079998,67.384 630.632003,67.3040008 630.056,67.144 C629.479997,66.9839992 629.112001,66.8880002 628.952,66.856 C628.791999,66.8239998 628.040007,66.3280048 626.696,65.368 C626.567999,65.3039997 626.376001,65.1440013 626.12,64.888 L625.832,64.6 C625.703999,64.4719994 625.544001,64.3600005 625.352,64.264 C625.159999,64.1679995 624.824002,63.9760014 624.344,63.688 C623.863998,63.3999986 623.272004,63.1920006 622.568,63.064 L621.704,62.776 C621.511999,62.776 621.272001,62.7440003 620.984,62.68 C620.695999,62.6159997 620.392002,62.5520003 620.072,62.488 C619.751998,62.4239997 619.448001,62.3280006 619.16,62.2 C618.871999,62.0719994 618.248005,61.9440006 617.288,61.816 C619.400011,59.7039894 620.456,57.2080144 620.456,54.328 L620.456,27.544 C622.696011,26.7119958 624.967989,25.5280077 627.272,23.992 C629.19201,22.7119936 631.239989,21.176009 633.416,19.384 L633.416,19.192 Z M629.384,27.736 L629.384,42.808 C629.768002,42.7439997 630.215997,42.4880022 630.728,42.04 L632.168,40.888 C632.296001,40.8239997 632.408,40.7440005 632.504,40.648 C632.600001,40.5519995 632.68,40.4880002 632.744,40.456 C632.808,40.4239998 632.903999,40.3600005 633.032,40.264 C633.160001,40.1679995 633.24,40.1040002 633.272,40.072 C633.304,40.0399998 633.447999,39.928001 633.704,39.736 C633.960001,39.543999 634.151999,39.3840006 634.28,39.256 C634.856003,38.9359984 635.463997,38.5040027 636.104,37.96 C636.744003,37.4159973 637.287998,36.9200022 637.736,36.472 L629.384,27.736 Z M658.264,7.096 L658.264,9.112 C658.135999,9.30400096 657.624005,9.84799552 656.728,10.744 C656.599999,10.8720006 656.376002,11.1119982 656.056,11.464 C655.735998,11.8160018 655.496001,12.0719992 655.336,12.232 C655.175999,12.3920008 655.096,12.567999 655.096,12.76 L654.904,13.336 L654.904,13.528 C654.84,13.6560006 654.808,13.7519997 654.808,13.816 L654.808,14.392 C654.744,14.4560003 654.712,14.6479984 654.712,14.968 L654.712,15.448 C656.504009,17.6880112 657.975994,19.9919882 659.128,22.36 C660.536007,24.7280118 661.303999,27.3199859 661.432,30.136 L673.72,19 C677.496019,22.3280166 679.735997,26.1039789 680.44,30.328 L681.208,30.136 L692.92,19.192 C692.984,19.384001 693.111999,19.48 693.304,19.48 L693.88,19.48 C694.008001,19.6080006 694.135999,19.672 694.264,19.672 L694.552,19.672 C694.552,19.7360003 694.584,19.7839998 694.648,19.816 C694.712,19.8480002 694.776,19.9279994 694.84,20.056 C694.904,20.1840006 694.999999,20.248 695.128,20.248 C696.088005,21.5920067 697.047995,23.0959917 698.008,24.76 C698.840004,25.9760061 699.479998,27.6399894 699.928,29.752 L699.928,59.032 C699.607998,59.3520016 699.352001,59.5439997 699.16,59.608 C698.839998,59.8640013 698.568001,60.0239997 698.344,60.088 C698.119999,60.1520003 697.832002,60.279999 697.48,60.472 C697.127998,60.664001 696.856001,60.7919997 696.664,60.856 C695.319993,61.6240038 693.464012,62.711993 691.096,64.12 C690.007995,64.7600032 689.080004,65.3039978 688.312,65.752 C688.119999,65.944001 687.288007,66.4879955 685.816,67.384 L682.36,65.944 C681.399995,65.4319974 680.184007,64.9520022 678.712,64.504 C678.007997,64.311999 676.984007,64.0560016 675.64,63.736 C674.871996,63.543999 673.912006,63.448 672.76,63.448 C669.431983,63.448 666.456013,64.7599869 663.832,67.384 C663.575999,67.1279987 663.336001,66.9200008 663.112,66.76 C662.887999,66.5999992 662.680001,66.4880003 662.488,66.424 L661.048,65.272 C660.535998,64.8239978 659.896004,64.3440026 659.128,63.832 C655.991984,62.039991 654.296001,61.0800006 654.04,60.952 C652.11999,60.0559955 650.264009,59.608 648.472,59.608 C649.688006,58.6479952 650.567997,57.5600061 651.112,56.344 C651.656003,55.1279939 651.928,53.7840074 651.928,52.312 L651.928,28.504 C649.495988,24.4719798 648.28,21.2400122 648.28,18.808 C648.28,18.4239981 648.312,18.0400019 648.376,17.656 L648.952,15.352 C649.016,15.2239994 649.096,15.0320013 649.192,14.776 C649.288001,14.5199987 649.336,14.3280006 649.336,14.2 C650.424006,12.7279926 651.479995,11.4800051 652.504,10.456 C653.528005,9.43199488 654.839992,8.4400048 656.44,7.48 L656.728,7.48 C656.792,7.48 656.856,7.44800032 656.92,7.384 L657.304,7.384 C657.368,7.384 657.432,7.35200032 657.496,7.288 L657.688,7.288 L658.264,7.096 Z M687.544,28.12 L680.632,34.648 L680.632,56.056 L691.192,60.088 L691.192,31.672 C691.128,30.9679965 690.712004,30.2000042 689.944,29.368 C689.431998,28.6639965 688.632006,28.312 687.544,28.312 L687.544,28.12 Z M667.96,27.544 L661.24,33.88 L661.24,54.328 L662.008,55.096 L671.128,59.416 L671.128,31.864 C671.128,31.6079987 671.096,31.3200016 671.032,31 C670.968,30.6799984 670.808001,30.2640026 670.552,29.752 L669.976,29.176 C669.847999,28.983999 669.624002,28.792001 669.304,28.6 C668.791998,28.0879974 668.344002,27.8000003 667.96,27.736 L667.96,27.544 Z M737.064,13.048 L738.024,13.048 C738.984005,13.4320019 739.591999,13.8799974 739.848,14.392 C740.360003,15.4160051 740.648,16.1839974 740.712,16.696 C740.712,16.7600003 740.744,16.8559994 740.808,16.984 L740.808,18.52 C740.744,18.712001 740.712,18.9359987 740.712,19.192 L740.424,20.344 L740.424,20.632 C740.36,20.6960003 740.328,20.7599997 740.328,20.824 L740.328,21.016 C740.264,21.0800003 740.232,21.1439997 740.232,21.208 L729.864,36.088 L738.792,41.656 L738.792,60.088 C736.039986,61.2400058 734.056006,62.1999962 732.84,62.968 C730.663989,64.2480064 728.872007,65.4639942 727.464,66.616 C727.4,66.616 727.304001,66.6639995 727.176,66.76 C727.048,66.8560005 726.936001,66.9199998 726.84,66.952 C726.744,66.9840002 726.664,67.0319997 726.6,67.096 C726.536,67.1600003 726.456001,67.2239997 726.36,67.288 C726.264,67.3520003 726.184,67.384 726.12,67.384 C725.415997,66.9999981 724.328008,66.4880032 722.856,65.848 C721.831995,65.4639981 720.680007,65.1120016 719.4,64.792 C719.272,64.792 719.016002,64.7280006 718.632,64.6 C718.504,64.6 718.344001,64.5680003 718.152,64.504 L717.768,64.504 C717.383998,64.504 717.096001,64.4720003 716.904,64.408 L715.176,64.408 C714.983999,64.4720003 714.696002,64.504 714.312,64.504 C713.479996,64.6320006 712.008011,65.0159968 709.896,65.656 C709.383998,65.848001 708.584006,66.2959965 707.496,67 L706.152,66.04 L717.576,49.336 L708.84,43.96 L708.84,27.544 C711.912016,26.5199949 715.239982,24.2160179 718.824,20.632 L719.4,20.056 C719.464,19.9919997 719.528,19.9120005 719.592,19.816 L719.688,19.672 L719.976,19.384 L729.864,22.936 C730.120001,23.1920013 730.312,23.32 730.44,23.32 L730.728,23.32 C730.792,23.3840003 730.888,23.416 731.016,23.416 L732.024,23.752 C732.120001,23.7840002 732.327999,23.8 732.648,23.8 C733.224003,23.8 733.607999,23.7680003 733.8,23.704 L736.104,22.936 C736.488002,22.6159984 736.839999,22.3760008 737.16,22.216 C737.480002,22.0559992 737.767999,21.4640051 738.024,20.44 L738.024,18.616 C737.96,18.4879994 737.768002,18.3600006 737.448,18.232 C737.448,18.1039994 737.256002,17.8800016 736.872,17.56 C736.808,17.2399984 736.664001,17.0320005 736.44,16.936 C736.215999,16.8399995 736.104,16.7600003 736.104,16.696 L735.816,16.408 L735.816,16.312 C735.752,16.312 735.72,16.2800003 735.72,16.216 L735.72,16.024 C735.656,16.024 735.592,15.9760005 735.528,15.88 C735.464,15.7839995 735.432,15.7040003 735.432,15.64 L735.432,15.256 C735.432,15.1919997 735.448,15.0960006 735.48,14.968 C735.512,14.8399994 735.687999,14.5520022 736.008,14.104 C736.200001,13.8479987 736.487998,13.5920013 736.872,13.336 L736.968,13.24 L737.064,13.24 L737.064,13.048 Z M724.392,43.768 L715.08,57.304 C715.208001,57.4320006 715.399999,57.496 715.656,57.496 C715.72,57.496 715.816,57.4640003 715.944,57.4 L716.232,57.4 C717.128005,57.2719994 717.719999,57.208 718.008,57.208 C718.296002,57.208 718.567999,57.1760003 718.824,57.112 L720.264,57.112 C720.328,57.1760003 720.551998,57.208 720.936,57.208 L721.704,57.208 C721.896001,57.2720003 722.183998,57.3199998 722.568,57.352 C722.952002,57.3840002 723.623995,57.495999 724.584,57.688 C725.032002,57.8160006 725.703996,58.0399984 726.6,58.36 C727.944007,58.8720026 729.255994,59.5119962 730.536,60.28 L730.536,47.8 L724.392,43.768 Z M717.384,39.064 L722.76,42.232 L731.304,29.944 C731.047999,30.2000013 730.760002,30.328 730.44,30.328 L729.96,30.328 C729.767999,30.3920003 729.608001,30.424 729.48,30.424 L728.904,30.424 C728.84,30.4880003 728.680001,30.52 728.424,30.52 L727.56,30.52 C727.752001,30.52 726.056018,30.2960022 722.472,29.848 C721.319994,29.5279984 719.624011,28.9520042 717.384,28.12 L717.384,39.064 Z" id="News"></path>
                <path d="M199.816,0.568 C200.520004,1.01600224 201.479994,1.7199952 202.696,2.68 C202.952001,2.93600128 203.367997,3.3039976 203.944,3.784 C204.520003,4.2640024 204.935999,4.63199872 205.192,4.888 C205.192,5.01600064 205.24,5.1599992 205.336,5.32 C205.432,5.4800008 205.512,5.56 205.576,5.56 C205.896002,6.32800384 206.375997,7.41599296 207.016,8.824 C207.336002,9.52800352 207.655998,10.6159926 207.976,12.088 L223.816,0.76 L234.184,7.864 C234.568002,7.41599776 235.207996,6.84000352 236.104,6.136 C236.744003,5.75199808 237.607995,5.36800192 238.696,4.984 L238.984,4.984 C239.048,4.984 239.112,4.95200032 239.176,4.888 L239.272,4.888 L239.272,5.848 C239.208,5.91200032 239.176,6.00799936 239.176,6.136 L239.176,6.712 C239.112,6.77600032 239.08,6.83999968 239.08,6.904 L239.08,7.288 C238.887999,7.48000096 238.76,7.67199904 238.696,7.864 L238.312,8.248 C237.159994,9.72000736 236.296003,11.5119894 235.72,13.624 L235.72,55.864 L237.736,59.416 C237.928001,59.4800003 238.119999,59.4800003 238.312,59.416 C238.568001,59.3519997 238.728,59.2720005 238.792,59.176 C238.856,59.0799995 238.999999,58.9840005 239.224,58.888 C239.448001,58.7919995 239.608,58.7120003 239.704,58.648 C239.8,58.5839997 239.911999,58.4880006 240.04,58.36 L240.328,58.072 L241.864,59.416 L232.744,67.96 L231.784,67.96 C229.607989,66.8079942 227.960006,65.3840085 226.84,63.688 C225.719994,61.9919915 225.000002,59.7360141 224.68,56.92 L224.68,12.856 L217.864,8.056 C217.8,8.24800096 217.704001,8.344 217.576,8.344 L217.384,8.344 L217.288,8.44 C217.095999,8.63200096 216.920001,8.77599952 216.76,8.872 C216.599999,8.96800048 216.456001,9.04799968 216.328,9.112 L216.136,9.304 L216.136,29.944 L221.896,29.944 L215.752,38.2 L215.752,54.328 L217.192,54.04 C217.448001,53.9119994 217.799998,53.6560019 218.248,53.272 L219.88,54.328 L204.232,67.96 C203.271995,66.8079942 201.736011,65.1440109 199.624,62.968 C198.215993,61.6239933 196.360012,60.1200083 194.056,58.456 C194.824004,57.9439974 195.447998,57.3040038 195.928,56.536 C196.408002,55.7679962 196.68,55.0640032 196.744,54.424 L196.744,54.136 C196.744,54.0719997 196.776,54.0080003 196.84,53.944 L196.84,38.2 L185.8,38.2 L185.8,56.92 C185.415998,60.5680182 184.536007,63.7519864 183.16,66.472 C181.783993,69.1920136 179.336018,71.0959946 175.816,72.184 C175.752,72.184 175.624001,72.2159997 175.432,72.28 L174.952,72.28 C174.888,72.28 174.760001,72.3119997 174.568,72.376 L172.456,72.376 C171.943997,72.376 171.112006,72.3120006 169.96,72.184 L167.368,71.896 C166.791997,71.7679994 165.896006,71.608001 164.68,71.416 C164.103997,71.3519997 163.272005,71.32 162.184,71.32 C160.711993,71.32 159.336006,71.6559966 158.056,72.328 C156.775994,73.0000034 155.688004,74.2639907 154.792,76.12 C154.792,76.0559997 154.76,75.9600006 154.696,75.832 L154.696,75.448 C154.696,75.3199994 154.632001,75.0640019 154.504,74.68 L154.504,73.816 C154.504,73.7519997 154.472,73.624001 154.408,73.432 L154.408,73.144 C154.408,70.9679891 155.271991,68.9200096 157,67 C158.856009,65.3359917 160.871989,64.1840032 163.048,63.544 L163.624,63.352 C163.688,63.352 163.783999,63.3200003 163.912,63.256 L164.104,63.256 C164.296001,63.256 164.455999,63.2400002 164.584,63.208 C164.712001,63.1759998 164.839999,63.1280003 164.968,63.064 L165.16,63.064 C170.920029,63.064 174.215996,61.0160205 175.048,56.92 L175.048,55.096 C175.048,49.8479738 172.808022,45.6880154 168.328,42.616 C168.071999,42.423999 167.496004,42.232001 166.6,42.04 C166.215998,41.9119994 165.928001,41.848 165.736,41.848 C165.223997,41.7199994 164.92,41.656 164.824,41.656 C164.728,41.656 164.616001,41.6240003 164.488,41.56 L163.144,41.56 C162.951999,41.6240003 162.792001,41.656 162.664,41.656 L162.184,41.656 C161.991999,41.7200003 161.832001,41.752 161.704,41.752 C161.383998,41.8160003 160.808004,41.943999 159.976,42.136 C159.527998,42.328001 159.256,42.424 159.16,42.424 C159.064,42.424 158.936001,42.4719995 158.776,42.568 C158.615999,42.6640005 158.472001,42.7439997 158.344,42.808 L158.344,42.712 L158.248,42.712 L158.248,42.424 L158.152,42.424 L158.152,42.232 C158.152,38.3919808 160.583976,35.6400083 165.448,33.976 C165.640001,33.9119997 165.959998,33.8160006 166.408,33.688 L167.272,33.4 C167.656002,33.2719994 167.959999,33.1920002 168.184,33.16 C168.408001,33.1279998 168.711998,33.112 169.096,33.112 C169.416002,28.5679773 170.247993,24.696016 171.592,21.496 C173.064007,17.9119821 175.655981,14.9040122 179.368,12.472 C186.408035,7.79997664 193.223967,3.89601568 199.816,0.76 L199.816,0.568 Z M185.608,11.416 C184.839996,12.1200035 183.752007,13.271992 182.344,14.872 C181.319995,16.3440074 180.616002,17.6559942 180.232,18.808 L180.232,54.904 C180.232,56.696009 179.576007,58.3759922 178.264,59.944 C176.951993,61.5120078 175.560007,62.6799962 174.088,63.448 C174.216001,63.448 174.343999,63.4959995 174.472,63.592 C174.600001,63.6880005 174.696,63.7679997 174.76,63.832 C175.144002,63.9600006 175.431999,64.024 175.624,64.024 L175.816,64.024 C175.88,64.0880003 175.944,64.1359998 176.008,64.168 C176.072,64.2000002 176.167999,64.216 176.296,64.216 L177.64,64.216 C177.447999,64.216 178.119992,63.9920022 179.656,63.544 C180.872006,63.2239984 181.767997,62.4560061 182.344,61.24 C182.344,61.1759997 182.376,61.1120003 182.44,61.048 L182.44,60.952 C182.44,60.8879997 182.472,60.8240003 182.536,60.76 L182.536,60.664 C182.6,60.5359994 182.664,60.3920008 182.728,60.232 C182.792,60.0719992 182.824,59.9760002 182.824,59.944 C182.824,59.9119998 182.983998,59.2560064 183.304,57.976 C183.304,57.783999 183.336,57.592001 183.4,57.4 L183.4,18.616 C183.4,18.3599987 183.432,18.0720016 183.496,17.752 C183.56,17.4319984 183.624,17.1440013 183.688,16.888 C183.752,16.6319987 183.816,16.4720003 183.88,16.408 C184.008001,15.8319971 184.231998,15.0000054 184.552,13.912 C184.680001,13.4639978 185.031997,12.6960054 185.608,11.608 L185.608,11.416 Z M207.976,38.2 L207.976,54.712 C207.976,56.0560067 208.135998,57.1119962 208.456,57.88 C208.840002,58.9040051 209.351997,59.7679965 209.992,60.472 C210.760004,60.3439994 211.415997,60.1040018 211.96,59.752 C212.504003,59.3999982 213.031997,58.9680026 213.544,58.456 L213.544,38.2 L207.976,38.2 Z M192.328,8.44 L191.752,8.44 C191.688,8.56800064 191.592001,8.632 191.464,8.632 L191.368,8.632 L191.272,8.728 L190.984,8.728 C190.855999,8.85600064 190.728001,8.92 190.6,8.92 L190.312,8.92 C189.863998,9.36800224 189.064006,10.4559914 187.912,12.184 C187.079996,13.4000061 186.440002,14.6159939 185.992,15.832 L185.992,35.896 L190.312,29.56 L196.84,29.56 L196.84,13.048 C196.776,12.2799962 196.280005,11.4160048 195.352,10.456 C194.423995,9.4959952 193.416005,8.88800128 192.328,8.632 L192.328,8.44 Z M213.544,11.896 L207.784,16.024 L207.784,29.944 L213.544,29.944 L213.544,11.896 Z M254.396,19.768 L261.404,26.104 L258.62,29.752 L258.62,56.728 C258.62,57.7520051 258.763999,58.567997 259.052,59.176 C259.340001,59.784003 259.899996,60.2799981 260.732,60.664 L262.94,58.84 L264.38,60.28 L255.836,67.576 C254.299992,67.576 253.020005,67.0640051 251.996,66.04 C250.523993,64.5679926 249.724001,62.9680086 249.596,61.24 C249.532,60.9839987 249.5,60.6000026 249.5,60.088 L249.5,29.56 L247.292,25.72 L254.396,19.768 Z M257.564,4.312 L263.324,4.312 L255.644,14.68 L257.564,4.312 Z M296.688,13.048 L297.648,13.048 C298.608005,13.4320019 299.215999,13.8799974 299.472,14.392 C299.984003,15.4160051 300.272,16.1839974 300.336,16.696 C300.336,16.7600003 300.368,16.8559994 300.432,16.984 L300.432,18.52 C300.368,18.712001 300.336,18.9359987 300.336,19.192 L300.048,20.344 L300.048,20.632 C299.984,20.6960003 299.952,20.7599997 299.952,20.824 L299.952,21.016 C299.888,21.0800003 299.856,21.1439997 299.856,21.208 L289.488,36.088 L298.416,41.656 L298.416,60.088 C295.663986,61.2400058 293.680006,62.1999962 292.464,62.968 C290.287989,64.2480064 288.496007,65.4639942 287.088,66.616 C287.024,66.616 286.928001,66.6639995 286.8,66.76 C286.671999,66.8560005 286.56,66.9199998 286.464,66.952 C286.368,66.9840002 286.288,67.0319997 286.224,67.096 C286.16,67.1600003 286.08,67.2239997 285.984,67.288 C285.888,67.3520003 285.808,67.384 285.744,67.384 C285.039996,66.9999981 283.952007,66.4880032 282.48,65.848 C281.455995,65.4639981 280.304006,65.1120016 279.024,64.792 C278.895999,64.792 278.640002,64.7280006 278.256,64.6 C278.127999,64.6 277.968001,64.5680003 277.776,64.504 L277.392,64.504 C277.007998,64.504 276.720001,64.4720003 276.528,64.408 L274.8,64.408 C274.607999,64.4720003 274.320002,64.504 273.936,64.504 C273.103996,64.6320006 271.632011,65.0159968 269.52,65.656 C269.007997,65.848001 268.208005,66.2959965 267.12,67 L265.776,66.04 L277.2,49.336 L268.464,43.96 L268.464,27.544 C271.536015,26.5199949 274.863982,24.2160179 278.448,20.632 L279.024,20.056 C279.088,19.9919997 279.152,19.9120005 279.216,19.816 L279.312,19.672 L279.6,19.384 L289.488,22.936 C289.744001,23.1920013 289.935999,23.32 290.064,23.32 L290.352,23.32 C290.416,23.3840003 290.511999,23.416 290.64,23.416 L291.648,23.752 C291.744,23.7840002 291.951998,23.8 292.272,23.8 C292.848003,23.8 293.231999,23.7680003 293.424,23.704 L295.728,22.936 C296.112002,22.6159984 296.463998,22.3760008 296.784,22.216 C297.104002,22.0559992 297.391999,21.4640051 297.648,20.44 L297.648,18.616 C297.584,18.4879994 297.392002,18.3600006 297.072,18.232 C297.072,18.1039994 296.880002,17.8800016 296.496,17.56 C296.432,17.2399984 296.288001,17.0320005 296.064,16.936 C295.839999,16.8399995 295.728,16.7600003 295.728,16.696 L295.44,16.408 L295.44,16.312 C295.376,16.312 295.344,16.2800003 295.344,16.216 L295.344,16.024 C295.28,16.024 295.216,15.9760005 295.152,15.88 C295.088,15.7839995 295.056,15.7040003 295.056,15.64 L295.056,15.256 C295.056,15.1919997 295.072,15.0960006 295.104,14.968 C295.136,14.8399994 295.311998,14.5520022 295.632,14.104 C295.824001,13.8479987 296.111998,13.5920013 296.496,13.336 L296.592,13.24 L296.688,13.24 L296.688,13.048 Z M284.016,43.768 L274.704,57.304 C274.832001,57.4320006 275.023999,57.496 275.28,57.496 C275.344,57.496 275.439999,57.4640003 275.568,57.4 L275.856,57.4 C276.752004,57.2719994 277.343999,57.208 277.632,57.208 C277.920001,57.208 278.191999,57.1760003 278.448,57.112 L279.888,57.112 C279.952,57.1760003 280.175998,57.208 280.56,57.208 L281.328,57.208 C281.520001,57.2720003 281.807998,57.3199998 282.192,57.352 C282.576002,57.3840002 283.247995,57.495999 284.208,57.688 C284.656002,57.8160006 285.327996,58.0399984 286.224,58.36 C287.568007,58.8720026 288.879994,59.5119962 290.16,60.28 L290.16,47.8 L284.016,43.768 Z M277.008,39.064 L282.384,42.232 L290.928,29.944 C290.671999,30.2000013 290.384002,30.328 290.064,30.328 L289.584,30.328 C289.391999,30.3920003 289.232001,30.424 289.104,30.424 L288.528,30.424 C288.464,30.4880003 288.304001,30.52 288.048,30.52 L287.184,30.52 C287.376001,30.52 285.680018,30.2960022 282.096,29.848 C280.943994,29.5279984 279.248011,28.9520042 277.008,28.12 L277.008,39.064 Z M319.108,19.192 L319.108,19.384 L318.628,19.384 C318.243998,19.3199997 317.844002,19.4799981 317.428,19.864 C317.011998,20.2480019 316.676001,20.535999 316.42,20.728 L314.116,23.032 C313.603997,23.3520016 313.188002,23.6559986 312.868,23.944 C312.547998,24.2320014 312.260001,24.471999 312.004,24.664 C310.08399,26.0080067 308.484006,26.8399984 307.204,27.16 L307.204,54.52 C307.204,56.7600112 306.340009,58.8719901 304.612,60.856 C308.51602,61.6240038 312.995975,63.7999821 318.052,67.384 L330.148,58.264 C329.763998,57.8799981 329.572,57.5280016 329.572,57.208 L329.284,56.92 C329.155999,56.7919994 329.06,56.6640006 328.996,56.536 C328.932,56.4079994 328.868,56.3120003 328.804,56.248 L324.004,59.896 C323.107996,59.4479978 322.356003,59.0480018 321.748,58.696 C321.139997,58.3439982 320.612002,58.0400013 320.164,57.784 C318.627992,57.1439968 317.348005,56.3120051 316.324,55.288 L316.324,27.928 C319.076014,30.1680112 321.923985,31.7679952 324.868,32.728 L329.188,26.296 L319.108,19.192 Z M347,19.192 L359.48,32.056 L342.968,46.552 L342.968,56.056 L350.936,59.896 L356.888,55.48 L358.232,57.304 L345.368,67.384 L344.984,67.384 C344.663998,67.384 344.216003,67.3040008 343.64,67.144 C343.063997,66.9839992 342.696001,66.8880002 342.536,66.856 C342.375999,66.8239998 341.624007,66.3280048 340.28,65.368 C340.151999,65.3039997 339.960001,65.1440013 339.704,64.888 L339.416,64.6 C339.287999,64.4719994 339.128001,64.3600005 338.936,64.264 C338.743999,64.1679995 338.408002,63.9760014 337.928,63.688 C337.447998,63.3999986 336.856004,63.1920006 336.152,63.064 L335.288,62.776 C335.095999,62.776 334.856001,62.7440003 334.568,62.68 C334.279999,62.6159997 333.976002,62.5520003 333.656,62.488 C333.335998,62.4239997 333.032001,62.3280006 332.744,62.2 C332.455999,62.0719994 331.832005,61.9440006 330.872,61.816 C332.984011,59.7039894 334.04,57.2080144 334.04,54.328 L334.04,27.544 C336.280011,26.7119958 338.551988,25.5280077 340.856,23.992 C342.77601,22.7119936 344.823989,21.176009 347,19.384 L347,19.192 Z M342.968,27.736 L342.968,42.808 C343.352002,42.7439997 343.799997,42.4880022 344.312,42.04 L345.752,40.888 C345.880001,40.8239997 345.992,40.7440005 346.088,40.648 C346.184,40.5519995 346.264,40.4880002 346.328,40.456 C346.392,40.4239998 346.487999,40.3600005 346.616,40.264 C346.744001,40.1679995 346.824,40.1040002 346.856,40.072 C346.888,40.0399998 347.031999,39.928001 347.288,39.736 C347.544001,39.543999 347.735999,39.3840006 347.864,39.256 C348.440003,38.9359984 349.047997,38.5040027 349.688,37.96 C350.328003,37.4159973 350.871998,36.9200022 351.32,36.472 L342.968,27.736 Z M377.1,2.776 L379.884,2.776 C378.091991,4.376008 376.908003,5.91199264 376.332,7.384 C375.691997,9.11200864 375.212002,10.9359904 374.892,12.856 L374.892,55.48 L380.076,59.416 L381.804,58.072 L383.244,59.704 L374.124,67.768 C372.20399,65.8479904 370.348009,64.2800061 368.556,63.064 C366.50799,61.655993 364.332012,60.5040045 362.028,59.608 C364.524012,58.007992 365.772,55.8320138 365.772,53.08 L365.772,10.84 C365.067996,8.2799872 363.69201,6.16800832 361.644,4.504 L362.22,4.312 C362.412001,4.50400096 362.651999,4.6 362.94,4.6 C363.228001,4.6 363.611998,4.69599904 364.092,4.888 C364.572002,5.08000096 364.923999,5.22399952 365.148,5.32 C365.372001,5.41600048 365.755997,5.60799856 366.3,5.896 C366.844003,6.18400144 367.531996,6.71199616 368.364,7.48 L368.652,7.768 C368.652,8.0880016 368.811998,8.248 369.132,8.248 C369.132,8.37600064 369.195999,8.44 369.324,8.44 C370.668007,6.90399232 371.819995,5.78400352 372.78,5.08 C373.996006,4.05599488 375.435992,3.35200192 377.1,2.968 L377.1,2.776 Z M400.48,2.776 L403.264,2.776 C401.471991,4.376008 400.288003,5.91199264 399.712,7.384 C399.071997,9.11200864 398.592002,10.9359904 398.272,12.856 L398.272,55.48 L403.456,59.416 L405.184,58.072 L406.624,59.704 L397.504,67.768 C395.58399,65.8479904 393.728009,64.2800061 391.936,63.064 C389.88799,61.655993 387.712012,60.5040045 385.408,59.608 C387.904012,58.007992 389.152,55.8320138 389.152,53.08 L389.152,10.84 C388.447996,8.2799872 387.07201,6.16800832 385.024,4.504 L385.6,4.312 C385.792001,4.50400096 386.031999,4.6 386.32,4.6 C386.608001,4.6 386.991998,4.69599904 387.472,4.888 C387.952002,5.08000096 388.303999,5.22399952 388.528,5.32 C388.752001,5.41600048 389.135997,5.60799856 389.68,5.896 C390.224003,6.18400144 390.911996,6.71199616 391.744,7.48 L392.032,7.768 C392.032,8.0880016 392.191998,8.248 392.512,8.248 C392.512,8.37600064 392.575999,8.44 392.704,8.44 C394.048007,6.90399232 395.199995,5.78400352 396.16,5.08 C397.376006,4.05599488 398.815992,3.35200192 400.48,2.968 L400.48,2.776 Z M411.773595,23.6354131 L411.764,23.608 C411.767122,23.617366 411.77032,23.6265036 411.773594,23.6354127 L411.773595,23.6354131 Z M411.773594,23.6354127 C411.837442,23.8091384 411.930243,23.896 412.052,23.896 L412.628,23.896 C412.628,23.9600003 412.691999,23.992 412.82,23.992 L414.164,23.992 C414.356001,23.992 414.515999,23.9760002 414.644,23.944 C414.772001,23.9119998 414.899999,23.8640003 415.028,23.8 L415.22,23.8 C416.564007,23.607999 418.067992,23.1280038 419.732,22.36 C421.204007,21.6559965 422.515994,20.7280058 423.668,19.576 L423.668,19.384 L436.532,24.376 L436.532,24.472 L436.724,24.28 C436.852001,24.087999 437.187997,23.7680022 437.732,23.32 C438.276003,22.8719978 438.739998,22.6160003 439.124,22.552 C439.188,22.552 439.283999,22.5200003 439.412,22.456 L439.7,22.456 C439.764,22.456 439.859999,22.4240003 439.988,22.36 L440.276,22.36 L440.66,22.168 C440.403999,22.6160022 440.052002,23.2239962 439.604,23.992 C439.347999,24.3760019 439.044002,24.967996 438.692,25.768 C438.339998,26.568004 437.812004,27.7999917 437.108,29.464 L436.916,56.536 C436.98,56.7920013 437.028,56.9519997 437.06,57.016 L437.204,57.304 L437.204,57.592 C437.204,57.6560003 437.236,57.7519994 437.3,57.88 L437.3,58.072 C437.428001,58.264001 437.651998,58.5839978 437.972,59.032 C438.036,59.0960003 438.355997,59.3519978 438.932,59.8 C438.932,59.9280006 438.995999,59.992 439.124,59.992 L439.22,59.992 C439.22,60.0560003 439.252,60.088 439.316,60.088 L441.044,58.84 L442.484,60.088 L434.132,67.384 L433.556,67.384 C432.467995,67.384 431.540004,66.9360045 430.772,66.04 C429.811995,64.7599936 429.204001,63.6400048 428.948,62.68 C428.755999,62.2319978 428.548001,61.4960051 428.324,60.472 C428.099999,59.4479949 427.988,58.840001 427.988,58.648 L427.988,57.976 C427.924,57.976 427.892,57.9120006 427.892,57.784 L427.892,57.304 C427.828,57.2399997 427.796,57.1440006 427.796,57.016 L427.796,56.44 L415.124,67.384 C412.819988,66.1039936 410.948007,64.3280114 409.508,62.056 C408.067993,59.7839886 407.348,57.4000125 407.348,54.904 L407.348,54.424 C407.348,54.3599997 407.38,54.2640006 407.444,54.136 L407.444,53.176 C407.444,53.1119997 407.476,53.0160006 407.54,52.888 L407.54,52.696 C407.54,52.6319997 407.795997,51.6400096 408.308,49.72 C409.716007,44.5359741 412.43598,40.3120163 416.468,37.048 L411.773595,23.6354131 L411.773594,23.6354127 Z M418.484,38.872 C417.331994,40.4080077 416.548002,41.8159936 416.132,43.096 C415.715998,44.3760064 415.508,45.7839923 415.508,47.32 L415.508,48.664 C415.508,49.1760026 415.571999,49.6239981 415.7,50.008 C416.212003,53.400017 417.715988,56.8239827 420.212,60.28 L421.268,59.704 L427.988,53.752 L427.988,44.344 L418.484,38.872 Z M414.74,25.72 L418.484,36.28 L427.796,41.656 L427.796,30.52 L415.892,25.72 L414.74,25.72 Z M450.984,19.192 C452.712009,20.7280077 454.183994,22.391991 455.4,24.184 C456.616006,25.976009 457.256,27.9599891 457.32,30.136 L469.224,19.384 L475.752,25.912 L479.688,22.552 L480.936,23.8 C480.872,23.992001 480.808,24.1199997 480.744,24.184 L480.552,24.376 C478.823991,26.1040086 477.640003,28.1519882 477,30.52 L477,56.248 L477.096,56.728 C477.16,57.0480016 477.24,57.2719994 477.336,57.4 C477.432,57.5280006 477.512,57.7519984 477.576,58.072 C477.64,58.1360003 477.735999,58.2479992 477.864,58.408 C477.992001,58.5680008 478.088,58.6799997 478.152,58.744 C478.216,58.8080003 478.375999,58.9999984 478.632,59.32 C478.888001,59.6400016 479.111999,59.8319997 479.304,59.896 L481.32,58.264 L482.856,59.896 L474.024,67.384 C472.615993,66.9359978 471.432005,66.1680054 470.472,65.08 C469.383995,63.6079926 468.648002,62.3280054 468.264,61.24 L468.264,32.248 C468.135999,32.248 468.072,32.2000005 468.072,32.104 C468.072,32.0079995 468.04,31.8960006 467.976,31.768 C467.912,31.6399994 467.848,31.576 467.784,31.576 C467.655999,31.1279978 467.464001,30.7440016 467.208,30.424 C466.823998,29.6559962 466.344003,29.0800019 465.768,28.696 C465.255997,28.0559968 464.680003,27.6720006 464.04,27.544 L463.08,27.352 L457.128,33.112 L457.128,56.248 C457.320001,56.8240029 457.623998,57.4639965 458.04,58.168 C458.456002,58.8720035 458.855998,59.4159981 459.24,59.8 C459.368001,59.8640003 459.495999,60.0079989 459.624,60.232 C459.752001,60.4560011 459.832,60.5839998 459.864,60.616 L460.104,60.856 C457.095985,64.1200163 454.56801,66.2319952 452.52,67.192 L445.416,60.664 L448.2,57.688 L448.2,30.904 C448.2,30.5839984 448.040002,30.1680026 447.72,29.656 C447.527999,29.3359984 447.208002,28.8880029 446.76,28.312 C446.375998,28.119999 446.184,27.928001 446.184,27.736 L444.072,28.504 L443.208,27.16 L450.984,19.192 Z M492.604,19.384 C492.732001,19.5120006 493.019998,19.6239995 493.468,19.72 C493.916002,19.8160005 494.267999,19.9759989 494.524,20.2 C494.780001,20.4240011 495.227997,20.9199962 495.868,21.688 C496.060001,21.8160006 496.267999,22.0239986 496.492,22.312 C496.716001,22.6000014 496.955999,22.9359981 497.212,23.32 C497.212,23.4480006 497.244,23.5279998 497.308,23.56 C497.372,23.5920002 497.483999,23.703999 497.644,23.896 C497.804001,24.088001 497.916,24.2479994 497.98,24.376 L498.268,25.24 C498.332,25.4960013 498.427999,25.8159981 498.556,26.2 L498.844,27.064 C498.908,27.256001 498.972,27.5599979 499.036,27.976 C499.1,28.3920021 499.195999,28.8559974 499.324,29.368 L499.612,30.52 L511.9,19.384 L512.668,19.384 C514.58801,22.584016 516.059995,25.6559853 517.084,28.6 C517.276001,29.3040035 517.563998,30.3919926 517.948,31.864 C518.076001,32.1200013 518.203999,32.8879936 518.332,34.168 C518.332,34.6800026 518.364,35.031999 518.428,35.224 L518.428,36.76 C518.364,36.952001 518.332,37.143999 518.332,37.336 L518.332,38.296 C518.268,38.6800019 518.156001,39.2239965 517.996,39.928 C517.835999,40.6320035 517.724,41.1759981 517.66,41.56 C515.803991,46.4880246 512.956019,50.6159834 509.116,53.944 C503.547972,58.744024 496.79604,63.2879786 488.86,67.576 C487.963996,68.3440038 487.292002,68.9999973 486.844,69.544 C486.395998,70.0880027 485.948002,71.0319933 485.5,72.376 L485.5,72.952 C485.5,73.2720016 485.532,73.527999 485.596,73.72 C485.596,73.6559997 485.819998,74.2959933 486.268,75.64 C486.588002,75.9600016 486.78,76.2479987 486.844,76.504 C488.956011,77.7200061 490.683993,78.3919994 492.028,78.52 C492.220001,78.52 492.411999,78.5519997 492.604,78.616 L493.084,78.616 C493.404002,78.616 493.596,78.6479997 493.66,78.712 L495.1,78.712 C495.164,78.6479997 495.259999,78.616 495.388,78.616 C496.220004,78.4879994 496.827998,78.3600006 497.212,78.232 C497.596002,78.1039994 498.043997,77.7840026 498.556,77.272 L498.556,77.08 L498.652,77.08 C498.652,77.0159997 498.684,76.984 498.748,76.984 C499.068002,76.3439968 499.611996,75.7040032 500.38,75.064 C501.148004,74.4239968 501.883996,74.104 502.588,74.104 C502.972002,74.3600013 503.419997,74.8719962 503.932,75.64 C503.932,75.7040003 503.964,75.7679997 504.028,75.832 L504.028,75.928 C504.028,75.9920003 504.06,76.0559997 504.124,76.12 L504.124,76.408 C504.06,76.408 504.028,76.4399997 504.028,76.504 L504.028,76.984 C503.964,76.984 503.932,77.0159997 503.932,77.08 L503.932,77.272 C503.163996,78.3600054 502.108007,79.1279978 500.764,79.576 C498.77999,80.2800035 497.372004,80.632 496.54,80.632 L495.388,80.632 C495.324,80.632 495.132002,80.6639997 494.812,80.728 L492.796,80.728 C492.603999,80.6639997 492.444001,80.632 492.316,80.632 C491.355995,80.5679997 490.012009,80.3760016 488.284,80.056 C484.827983,79.2239958 483.1,77.2400157 483.1,74.104 C483.1,73.2719958 483.259998,72.3440051 483.58,71.32 C484.220003,69.3359901 485.467991,67.4160093 487.324,65.56 C487.900003,64.8559965 488.443997,63.9280058 488.956,62.776 C489.468003,61.6239942 489.756,60.6640038 489.82,59.896 L489.82,30.328 L489.34,28.888 C489.211999,28.8239997 489.148,28.7280006 489.148,28.6 L489.148,28.408 C489.084,28.408 489.036,28.3600005 489.004,28.264 C488.972,28.1679995 488.796002,28.0880003 488.476,28.024 C488.412,27.8959994 488.220002,27.8000003 487.9,27.736 C487.451998,27.928001 486.812004,28.3119971 485.98,28.888 C485.851999,29.0160006 485.596002,29.2399984 485.212,29.56 C484.827998,29.8800016 484.540001,30.135999 484.348,30.328 L482.716,28.696 L492.604,19.384 Z M505.564,28.504 L499.42,34.072 L499.42,58.456 C501.788012,56.7919917 503.93199,54.4240154 505.852,51.352 C507.77201,48.2799846 508.955998,45.3360141 509.404,42.52 C509.404,42.0719978 509.467999,41.5280032 509.596,40.888 C509.596,40.5679984 509.628,40.2800013 509.692,40.024 L509.692,38.584 C509.628,38.5199997 509.596,38.3280016 509.596,38.008 L509.596,37.336 C509.532,37.2719997 509.5,37.0480019 509.5,36.664 C509.051998,33.5279843 507.740011,30.8720109 505.564,28.696 L505.564,28.504 Z" id="Miscellany"></path>
            </g>
        </g>
    </g>
</svg>