<?xml version="1.0" encoding="UTF-8"?>
<svg width="156px" height="156px" viewBox="0 0 156 156" version="1.1" xmlns="http://www.w3.org/2000/svg" xmlns:xlink="http://www.w3.org/1999/xlink">
    <!-- Generator: Sketch 41.2 (35397) - http://www.bohemiancoding.com/sketch -->
    <title>Vassar College Seal</title>
    <desc>Created with Sketch.</desc>
    <defs></defs>
    <g id="Page-1" stroke="none" stroke-width="1" fill="none" fill-rule="evenodd">
        <g id="Vassar-College-Seal" fill="#986C6C">
            <path d="M78.2889832,23.3067168 C107.898528,23.3067168 131.890719,47.2989077 131.890719,76.9084522 C131.890719,106.517997 107.898528,130.510188 78.2889832,130.510188 C48.6794387,130.510188 24.6872478,106.517997 24.6872478,76.9084522 C24.6872478,47.2989077 48.6794387,23.3067168 78.2889832,23.3067168 L78.2889832,23.3067168 Z M78.2889832,22.0884956 C70.8950569,22.0884956 63.7041675,23.5435932 56.9531914,26.4030292 C50.4221719,29.1609468 44.5679419,33.1201659 39.5258595,38.1453285 C34.4837771,43.1704912 30.5414777,49.0416409 27.7835602,55.5726604 C24.9241242,62.3236366 23.4690265,69.5145259 23.4690265,76.9084522 C23.4690265,84.3023784 24.9241242,91.4932678 27.7835602,98.2442439 C30.5414777,104.775263 34.5006968,110.629493 39.5258595,115.671576 C44.5510222,120.713658 50.4221719,124.655958 56.9531914,127.413875 C63.7041675,130.273311 70.8950569,131.728409 78.2889832,131.728409 C85.6829094,131.728409 92.8737988,130.273311 99.6247749,127.413875 C106.155794,124.655958 112.010024,120.696739 117.052107,115.671576 C122.094189,110.646413 126.036489,104.775263 128.794406,98.2442439 C131.653842,91.4932678 133.10894,84.3023784 133.10894,76.9084522 C133.10894,69.5145259 131.653842,62.3236366 128.794406,55.5726604 C126.036489,49.0416409 122.077269,43.187411 117.052107,38.1453285 C112.026944,33.1032461 106.155794,29.1609468 99.6247749,26.4030292 C92.8737988,23.5435932 85.6829094,22.0884956 78.2889832,22.0884956 L78.2889832,22.0884956 Z" id="Shape"></path>
            <path d="M77.5193596,2.59875223 C118.905043,2.59875223 152.439967,36.1336763 152.439967,77.5193596 C152.439967,118.905043 118.905043,152.439967 77.5193596,152.439967 C36.1336763,152.439967 2.59875223,118.905043 2.59875223,77.5193596 C2.59875223,36.1336763 36.1336763,2.59875223 77.5193596,2.59875223 L77.5193596,2.59875223 Z M77.5193596,1.38053097 C67.2490776,1.38053097 57.2664312,3.39398 47.8759757,7.37011883 C38.8069952,11.2108997 30.6686004,16.6928954 23.6807479,23.6807479 C16.6928954,30.6686004 11.19398,38.8069952 7.37011883,47.8759757 C3.39398,57.2664312 1.38053097,67.2321579 1.38053097,77.5193596 C1.38053097,87.7896416 3.39398,97.772288 7.37011883,107.162744 C11.2108997,116.231724 16.6928954,124.370119 23.6807479,131.357971 C30.6686004,138.345824 38.8069952,143.844739 47.8759757,147.6686 C57.2664312,151.644739 67.2321579,153.658188 77.5193596,153.658188 C87.7896416,153.658188 97.772288,151.644739 107.162744,147.6686 C116.231724,143.827819 124.370119,138.345824 131.357971,131.357971 C138.345824,124.370119 143.844739,116.231724 147.6686,107.162744 C151.644739,97.772288 153.658188,87.8065613 153.658188,77.5193596 C153.658188,67.2490776 151.644739,57.2664312 147.6686,47.8759757 C143.827819,38.8069952 138.345824,30.6686004 131.357971,23.6807479 C124.370119,16.6928954 116.231724,11.19398 107.162744,7.37011883 C97.772288,3.39398 87.7896416,1.38053097 77.5193596,1.38053097 L77.5193596,1.38053097 Z" id="Shape"></path>
            <path d="M77.9661605,0.609110629 C120.688503,0.609110629 155.32321,35.2438178 155.32321,77.9661605 C155.32321,120.688503 120.688503,155.32321 77.9661605,155.32321 C35.2438178,155.32321 0.609110629,120.688503 0.609110629,77.9661605 C0.609110629,35.2438178 35.2438178,0.609110629 77.9661605,0.609110629 L77.9661605,0.609110629 Z M77.9661605,0 C67.4420824,0 57.2225597,2.06420824 47.6121475,6.12494577 C38.3401302,10.0503254 29.9986985,15.667679 22.8416486,22.8416486 C15.6845987,29.9986985 10.0672451,38.3401302 6.12494577,47.6290672 C2.06420824,57.2225597 0,67.4420824 0,77.9661605 C0,88.4902386 2.06420824,98.7097614 6.12494577,108.320174 C10.0503254,117.592191 15.667679,125.933623 22.8416486,133.090672 C29.9986985,140.247722 38.3401302,145.865076 47.6290672,149.807375 C57.2394794,153.868113 67.4590022,155.932321 77.9830803,155.932321 C88.5071584,155.932321 98.7266811,153.868113 108.337093,149.807375 C117.62603,145.881996 125.967462,140.264642 133.124512,133.090672 C140.281562,125.933623 145.898915,117.592191 149.841215,108.303254 C153.901952,98.6928416 155.966161,88.4733189 155.966161,77.9492408 C155.966161,67.4251627 153.901952,57.2056399 149.841215,47.5952278 C145.881996,38.3401302 140.264642,29.9986985 133.090672,22.8416486 C125.933623,15.667679 117.592191,10.0503254 108.320174,6.12494577 C98.7097614,2.06420824 88.4902386,0 77.9661605,0 L77.9661605,0 Z" id="Shape"></path>
            <path d="M41.215887,121.86654 C41.3512449,121.426626 41.3681646,121.240509 41.2328067,121.122071 C41.0974488,121.003633 40.8774922,121.071312 40.3529802,121.308188 L29.3551494,126.671746 C28.475323,127.111659 27.8154531,127.331616 27.0879043,126.824023 C26.9694661,126.739425 26.7495095,126.587147 26.6310714,126.468709 C26.5126332,126.36719 26.4280345,126.350271 26.3603555,126.434869 C26.2588371,126.536388 26.326516,126.654826 26.5126332,126.807104 C27.2571017,127.450054 28.0692492,128.093004 28.2215269,128.228362 C28.6614401,128.617516 29.2367113,129.192787 29.6935442,129.581941 C29.8458219,129.717299 29.9642601,129.768058 30.0488588,129.66654 C30.1165377,129.581941 30.099618,129.514262 29.9304206,129.361984 L29.710464,129.175867 C29.2705507,128.786713 29.3043902,128.499078 29.5074271,128.262201 C29.642785,128.109924 29.9980996,127.839208 30.4380128,127.619251 L32.891375,126.350271 C32.9928935,126.299511 33.0436527,126.299511 33.1113317,126.350271 L36.275323,129.125108 C36.3430019,129.175867 36.3599217,129.260466 36.3260822,129.345065 L34.9555833,133.202765 C34.8879043,133.422722 34.6848674,133.456561 34.5495095,133.405802 C34.3972319,133.304284 34.3126332,133.270444 34.2449542,133.355043 C34.1603555,133.456561 34.3295529,133.608839 34.5664293,133.828796 C35.6831321,134.84398 36.7152362,135.757646 37.2228284,136.214479 C37.7473403,136.671312 37.899618,136.755911 37.9842167,136.654392 C38.0688154,136.552874 38.0011364,136.485195 37.899618,136.383676 C37.7304206,136.231399 37.5273837,136.028362 37.3581863,135.808405 C37.12131,135.47001 36.8675139,134.928579 37.4089455,133.236605 C38.3395312,130.411008 40.8944119,122.915563 41.215887,121.86654 L41.215887,121.86654 Z M38.4241299,123.77847 L36.7829152,128.245281 C36.7659954,128.296041 36.7152362,128.31296 36.6475573,128.262201 L34.0080779,125.961117 C33.9573186,125.910357 33.9742384,125.859598 34.0249976,125.808839 L38.2549325,123.626193 C38.3056917,123.575433 38.4072102,123.541594 38.4410497,123.575433 C38.4918089,123.626193 38.4410497,123.710791 38.4241299,123.77847 L38.4241299,123.77847 Z M67.0354097,146.992353 C67.2215269,146.586279 67.8137178,146.146366 68.5412666,146.484761 C69.1334575,146.755477 69.4041733,147.347668 69.1334575,147.922939 C68.8627416,148.48129 68.2367113,148.768926 67.5768414,148.46437 C66.8662124,148.125976 66.8154531,147.449186 67.0354097,146.992353 L67.0354097,146.992353 Z M63.9729369,136.180639 C62.7885551,133.52424 59.8445204,132.407537 57.6449542,131.56155 C56.5959304,131.155477 55.4623078,130.783242 54.9208761,130.580206 C54.4302037,130.394088 53.3473403,129.903416 52.3998349,129.548101 C52.1291191,129.446583 51.9937612,129.429663 51.9599217,129.548101 C51.9091625,129.66654 52.0106809,129.734219 52.196798,129.818817 C52.4505941,129.903416 52.7382297,130.038774 52.8566679,130.123373 C53.3980996,130.461767 53.431939,130.783242 53.2458219,131.375433 C53.0766245,131.916865 52.8905074,132.390618 51.9091625,134.945498 L50.7755399,137.906453 C50.183349,139.446149 49.6757568,140.765889 49.3035225,141.442678 C49.0497265,141.899511 48.8128501,142.237906 48.4406158,142.170227 C48.2714184,142.136388 48.0514618,142.102548 47.780746,141.98411 C47.5607894,141.899511 47.4761907,141.933351 47.4423512,142.01795 C47.391592,142.136388 47.4931104,142.237906 47.7299868,142.322505 C48.0853013,142.457863 48.559054,142.61014 48.9651278,142.762418 C49.3881212,142.914696 49.7772753,143.066973 49.9803121,143.134652 C50.4202254,143.30385 51.0124163,143.591485 51.6722861,143.896041 C52.3152362,144.200596 53.0258653,144.538991 53.6518956,144.775867 C56.9174054,146.027928 59.2015703,145.537255 60.3013533,145.063503 C61.6549325,144.488232 63.2115486,143.236171 64.0236961,141.121203 C64.8020041,139.107754 64.5143685,137.398861 63.9729369,136.180639 L63.9729369,136.180639 Z M61.4857351,140.68129 C60.8258653,142.407104 59.8783599,143.794522 58.3894228,144.285195 C57.0020041,144.742028 55.6653447,144.62359 53.8718523,143.92988 C52.4844336,143.388449 51.9260822,142.779338 51.8245638,142.373264 C51.7568848,142.136388 51.9768414,141.442678 52.1291191,141.019685 C52.2306375,140.69821 52.7043902,139.39539 53.3980996,137.618817 L54.2102471,135.50385 C54.7178392,134.18411 55.2761907,132.729013 55.513067,132.153741 C55.580746,131.967624 55.6653447,131.916865 55.8514618,131.899945 C56.0206592,131.883026 56.6805291,132.086062 57.0358436,132.22142 C58.4063425,132.745932 60.3351928,133.727277 61.3842167,135.825325 C61.9087286,136.82359 62.3148024,138.549403 61.4857351,140.68129 L61.4857351,140.68129 Z M83.8367113,140.71513 C83.785952,139.750704 83.7521126,138.989316 83.7182731,138.380206 C83.7013533,137.957212 83.6844336,137.737255 83.4137178,137.754175 C83.0584032,137.771095 81.6879043,138.532483 81.2987503,138.7186 C81.1972319,138.75244 81.1126332,138.786279 81.0449542,138.803199 C80.994195,138.803199 80.8926766,138.7186 80.8926766,138.617082 C80.8926766,138.515563 80.9772753,138.414045 81.061874,138.363286 C81.1464727,138.312527 84.5980996,135.893004 85.2241299,135.402331 C85.3933273,135.283893 85.545605,135.148535 85.6978826,135.148535 C85.86708,135.148535 85.934759,135.334652 85.934759,135.50385 C85.9516787,135.639208 85.9178392,137.41578 86.0701169,140.122939 L86.2393143,143.405368 C86.323913,145.097342 86.4085117,146.620119 86.5269499,147.398427 C86.6115486,147.956778 86.713067,148.227494 87.3221776,148.312093 C87.6098132,148.345932 88.405041,148.362852 88.5573186,148.362852 C88.6249976,148.362852 88.726516,148.396691 88.726516,148.532049 C88.726516,148.650488 88.6419173,148.701247 88.4388805,148.701247 C87.0176223,148.768926 85.8332406,148.785845 85.3256484,148.819685 C84.8857351,148.853524 83.3291191,148.971963 82.1447373,149.039642 C81.9247807,149.056561 81.8232622,149.022722 81.8232622,148.904284 C81.8232622,148.768926 81.8909412,148.718167 81.9586202,148.718167 C82.161657,148.701247 83.1091625,148.599728 83.4475573,148.51513 C84.0228284,148.362852 84.1243468,148.109056 84.1412666,147.533785 C84.1751061,146.755477 84.1243468,145.2327 84.0228284,143.540726 L83.8367113,140.71513 Z M101.788555,141.476518 C101.128685,139.36155 98.8276006,138.938557 97.3555833,138.701681 C98.21849,138.041811 99.5551494,136.519034 98.996798,134.742462 C98.4722861,133.084327 96.6957134,132.610574 94.5299868,133.304284 C91.5013533,134.251789 90.8584032,136.383676 91.2813967,137.703416 C91.7382297,139.141594 93.1256484,139.716865 94.8345421,139.987581 C93.3286852,141.188882 92.1612232,142.931616 92.7534141,144.826626 C93.4132839,146.907754 95.6297698,147.567624 98.2692492,146.738557 C101.247123,145.791052 102.414585,143.473047 101.788555,141.476518 L101.788555,141.476518 Z M93.0072102,136.77283 C92.7026549,135.825325 93.0072102,134.573264 94.5469065,134.082592 C95.6128501,133.744197 96.7464727,134.20103 97.1525464,135.48693 C97.6939781,137.195824 96.6787937,138.244848 96.2219607,138.617082 C94.3269499,138.261767 93.345605,137.821854 93.0072102,136.77283 L93.0072102,136.77283 Z M98.150811,145.90949 C96.7126332,146.366323 95.1898566,145.588015 94.7161039,144.082158 C94.1746722,142.356344 94.9868197,140.952006 95.7820475,140.122939 C97.6432189,140.495173 99.3182731,140.850488 99.8597048,142.542462 C100.350377,144.099078 99.5382297,145.469576 98.150811,145.90949 L98.150811,145.90949 Z M105.764694,139.056995 C104.08964,136.028362 104.817188,131.375433 107.625865,128.076084 C107.744303,127.940726 107.845822,127.822288 107.930421,127.788449 C108.031939,127.72077 108.150377,127.72077 108.201136,127.822288 C108.268815,127.957646 108.099618,128.194522 107.98118,128.380639 C106.64452,130.461767 105.764694,134.234869 107.811982,137.957212 C108.827167,139.784544 110.722178,141.273481 112.380312,140.359815 C113.513935,139.733785 113.987687,138.414045 113.006343,136.620553 C111.805041,134.454826 110.062308,134.18411 108.979444,134.776301 C108.573371,134.996258 108.387254,135.165455 108.184217,135.351572 C108.065779,135.453091 107.94734,135.588449 107.879661,135.639208 C107.811982,135.673047 107.727384,135.673047 107.659705,135.554609 C107.608946,135.436171 107.642785,135.334652 107.710464,135.216214 C108.015019,134.624023 108.62413,133.981073 109.520876,133.490401 C111.821961,132.22142 113.83541,133.422722 114.596798,134.81014 C115.933457,137.212744 114.918273,139.852223 112.53259,141.155043 C110.028468,142.542462 107.32131,141.882592 105.764694,139.056995 L105.764694,139.056995 Z M117.946906,127.940726 C117.337796,127.196258 116.864043,126.587147 116.491809,126.130314 C116.221093,125.791919 116.085735,125.639642 115.865779,125.808839 C115.578143,126.028796 114.935193,127.450054 114.715236,127.839208 C114.664477,127.923806 114.613718,128.008405 114.562959,128.059164 C114.529119,128.093004 114.393761,128.093004 114.326082,128.008405 C114.258403,127.923806 114.275323,127.805368 114.309162,127.70385 C114.343002,127.636171 115.730421,123.626193 115.950377,122.864804 C116.018056,122.678687 116.068815,122.47565 116.187254,122.374132 C116.322611,122.272613 116.491809,122.391052 116.593327,122.526409 C116.677926,122.644848 117.69311,124.083026 119.418924,126.197993 L121.483132,128.752874 C122.549076,130.072613 123.513501,131.256995 124.054933,131.815347 C124.444087,132.22142 124.697883,132.373698 125.239314,132.102982 C125.49311,131.967624 126.15298,131.510791 126.271418,131.409273 C126.322178,131.358514 126.440616,131.341594 126.508295,131.443112 C126.592893,131.527711 126.542134,131.629229 126.372937,131.747668 C125.273154,132.627494 124.308729,133.338123 123.919575,133.659598 C123.58118,133.930314 122.396798,134.962418 121.466212,135.706887 C121.297015,135.842245 121.195497,135.876084 121.127818,135.774566 C121.043219,135.673047 121.077058,135.588449 121.127818,135.537689 C121.297015,135.402331 121.990724,134.776301 122.210681,134.505585 C122.599835,134.031832 122.515236,133.794956 122.210681,133.304284 C121.770768,132.644414 120.857102,131.443112 119.774238,130.140292 L117.946906,127.940726 Z M8.86534467,86.8765179 C7.79940107,87.3502706 7.57944446,87.7055852 7.37640758,88.4500537 C7.30872862,88.754609 7.29180888,89.0930038 7.29180888,89.2452815 C7.29180888,89.4313986 7.24104966,89.4990776 7.12261148,89.4990776 C6.97033383,89.4990776 6.93649435,89.279121 6.95341409,88.9745656 C6.95341409,87.8747826 7.00417331,86.7073205 7.00417331,85.9966915 C7.00417331,85.4890993 6.93649435,84.4908346 6.93649435,83.4587305 C6.93649435,83.2049344 6.97033383,82.9849778 7.12261148,82.9849778 C7.2579694,82.9849778 7.29180888,83.103416 7.29180888,83.2895331 C7.29180888,83.6110082 7.30872862,83.9324832 7.4271668,84.0847609 C7.52868524,84.2201188 7.66404315,84.2877978 7.83324055,84.2877978 C8.08703665,84.2877978 8.62846832,84.1016806 9.33909738,83.814045 L18.2219607,80.24398 L18.2219607,80.1593813 C16.0731538,79.2795548 9.76209088,76.6231557 8.45927092,76.1324832 C8.20547482,76.0309648 7.91783925,75.9463661 7.73172211,75.9463661 C7.57944446,75.9463661 7.41024706,76.0309648 7.35948784,76.2170819 C7.27488914,76.470878 7.2579694,76.7754333 7.2579694,77.0461492 C7.2579694,77.2322663 7.24104966,77.4014637 7.10569174,77.4014637 C6.95341409,77.4014637 6.91957461,77.2153466 6.91957461,76.8261925 C6.91957461,75.7940884 6.97033383,74.9311817 6.97033383,74.6604659 C6.97033383,74.3051513 6.90265487,73.3407262 6.90265487,72.7316155 C6.90265487,72.4608997 6.93649435,72.2917023 7.07185226,72.2917023 C7.20721018,72.2917023 7.2579694,72.4101405 7.24104966,72.6300971 C7.24104966,72.833134 7.24104966,73.2730472 7.47792602,73.6283617 C7.64712341,73.8990776 7.98551821,74.2036329 9.23757895,74.7619843 C11.0818306,75.5572121 12.1477742,76.1155635 14.5503772,77.2153466 C17.4098132,78.5181665 19.5586202,79.4825917 20.5399651,79.9394247 C21.6905074,80.4639366 21.9950627,80.5992945 21.9950627,80.8700103 C21.9950627,81.1407262 21.7243468,81.2591643 20.7937612,81.6483184 L8.86534467,86.8765179 Z M24.1438696,58.7728303 C24.0085117,58.7559106 23.9746722,58.8405092 23.9408327,59.0097066 C23.8900735,59.246583 23.8223946,59.5511383 23.7039564,59.8387739 C23.534759,60.2448476 23.145605,60.7862793 21.2675139,61.2261925 C18.0866028,61.9537414 9.62673296,63.6795548 8.45927092,63.9671904 C7.98551821,64.0856286 7.78248133,64.1702273 7.74864185,64.3563444 C7.71480237,64.5593813 7.90091951,64.7285787 8.4085117,65.0669735 L19.5247807,72.4608997 C20.4046071,73.0530906 20.996798,73.5606828 20.9291191,74.5081882 C20.9121993,74.6773856 20.8783599,74.9650212 20.8445204,75.1511383 C20.8106809,75.3203357 20.8445204,75.4049344 20.9460388,75.4218542 C21.0983165,75.4556936 21.1659954,75.3372555 21.2167547,75.0665396 C21.4197915,74.0175158 21.5720692,72.9008129 21.6228284,72.6639366 C21.7412666,72.0379062 21.9612232,71.1749995 22.0965811,70.5320494 C22.1304206,70.3120928 22.1304206,70.1767348 21.9612232,70.1598151 C21.842785,70.1428954 21.7920258,70.1936546 21.7581863,70.4305309 L21.6905074,70.7350863 C21.5720692,71.3611166 21.2844336,71.4964745 20.9460388,71.4287956 C20.7091625,71.3949561 20.2692492,71.1919192 19.829336,70.9042837 L17.291375,69.2799886 C17.1898566,69.2123097 17.1560171,69.1615505 17.1729369,69.060032 L18.0358436,64.5593813 C18.0527633,64.4578628 18.1035225,64.4071036 18.2219607,64.3732641 L22.6041733,63.5441969 C22.8579694,63.4765179 22.9933273,63.6626351 23.0102471,63.8149127 C22.9933273,64.0179496 23.0102471,64.1025483 23.1286852,64.1363878 C23.2640432,64.1702273 23.3148024,63.9164312 23.3994011,63.5611166 C23.7377959,61.9537414 24.0254314,60.481724 24.1777091,59.7541752 C24.313067,58.9927869 24.2961473,58.8066698 24.1438696,58.7728303 L24.1438696,58.7728303 Z M16.9868197,64.7624181 L16.2761907,68.4847609 C16.2592709,68.5693596 16.191592,68.5693596 16.123913,68.5355201 L11.7417004,65.7606828 C11.6740215,65.7268433 11.572503,65.6591643 11.5894228,65.6084051 C11.6063425,65.5407262 11.6909412,65.5407262 11.7755399,65.5407262 L16.8853013,64.6270602 C16.9529802,64.6270602 17.0206592,64.6608997 16.9868197,64.7624181 L16.9868197,64.7624181 Z M25.1421343,56.84398 C24.8714184,57.0808563 24.7529802,57.0977761 24.380746,56.9116589 C23.3994011,56.4379062 22.3842167,55.8626351 22.1135009,55.7103574 C21.8597048,55.5580797 21.6905074,55.4058021 21.7581863,55.2704442 C21.842785,55.1012468 22.0119824,55.1689257 22.1473403,55.2366047 C22.3672969,55.3381231 22.7902904,55.4565613 23.1286852,55.5073205 C24.6345421,55.7272771 25.6328067,54.8643704 26.1911581,53.7138281 C27.0033056,52.0387739 26.3095963,50.7021145 25.3790106,50.2622012 C24.5161039,49.8392077 23.5685985,49.7376893 21.6735876,50.7190342 L20.6245638,51.2604659 C18.1204423,52.5632858 16.5469065,52.681724 15.1087286,51.9880147 C13.1629586,51.057429 12.6046071,48.6717457 13.8397481,46.0999453 C14.4150193,44.8986437 14.9733707,44.2049344 15.3286852,43.7819409 C15.4471234,43.6296633 15.5317221,43.5619843 15.66708,43.6296633 C15.9039564,43.7311817 16.3777091,44.0695765 17.748208,44.7294463 C18.137362,44.9155635 18.2558002,45.0340017 18.1712015,45.1862793 C18.1035225,45.3216372 17.9850844,45.3216372 17.7651278,45.2201188 C17.6128501,45.1355201 17.0206592,44.9663227 16.3777091,45.1355201 C15.9039564,45.2539583 15.1256484,45.5415938 14.5334575,46.7428954 C13.8735876,48.1133943 14.2289022,49.3146958 15.2948458,49.822288 C16.1069933,50.211442 16.9360605,50.0930038 18.7803121,49.0778194 L19.4063425,48.7394247 C22.0965811,47.2674073 23.6870366,47.0643704 25.3790106,47.8595982 C26.394195,48.3502706 27.4262991,49.3485353 27.6124163,51.0912685 C27.7308544,52.29257 27.3924596,53.4092728 26.9187069,54.3906177 C26.394195,55.4396416 25.8696831,56.2010299 25.1421343,56.84398 L25.1421343,56.84398 Z M30.8610063,45.5923531 C30.5395312,45.7615505 30.4380128,45.7446307 30.099618,45.4739149 C29.2705507,44.7802056 28.4245638,43.9680581 28.1876874,43.7481014 C27.9846505,43.5450646 27.8492926,43.3589474 27.950811,43.2235895 C28.0692492,43.0882316 28.2215269,43.18975 28.3399651,43.2743487 C28.5430019,43.4435461 28.8983165,43.6296633 29.2367113,43.7650212 C30.6410497,44.3402923 31.8254314,43.7481014 32.6375789,42.7667565 C33.8219607,41.3454984 33.4835659,39.8904008 32.6883382,39.2136112 C31.9438696,38.6045006 31.0640432,38.2661058 28.9829152,38.7567782 L27.8323729,39.0274941 C25.091375,39.6873639 23.534759,39.4166481 22.3165377,38.4014637 C20.6584032,37.014045 20.675323,34.5776025 22.5026549,32.3780364 C23.3655616,31.3459322 24.0592709,30.8214203 24.5161039,30.4830255 C24.6683815,30.3645873 24.7699,30.3307479 24.8883382,30.4153466 C25.0744553,30.584544 25.4636093,31.0075374 26.6479911,31.9888824 C26.9694661,32.2595982 27.0540648,32.4118758 26.9525464,32.5472338 C26.8679477,32.6656719 26.7325898,32.6318325 26.5464727,32.4795548 C26.4111147,32.3611166 25.8866028,32.0565613 25.2098132,32.073481 C24.7191408,32.073481 23.8900735,32.1580797 23.0440865,33.1732641 C22.0627416,34.3407262 22.1304206,35.5927869 23.0271668,36.3541752 C23.7208761,36.9294463 24.5499434,37.014045 26.5972319,36.4895331 L27.2740215,36.303416 C30.2349759,35.5251079 31.8423512,35.7112251 33.2805291,36.9125266 C34.1434358,37.6400754 34.9048241,38.8582967 34.6679477,40.5841101 C34.4987503,41.7684919 33.8896397,42.7667565 33.1959304,43.6127435 C32.4007026,44.5264095 31.7069933,45.1355201 30.8610063,45.5923531 L30.8610063,45.5923531 Z M50.2679477,27.5559106 C50.183349,27.4543921 50.0818306,27.4882316 49.9633924,27.58975 C49.7603555,27.7420277 49.5065594,27.9112251 49.2358436,28.046583 C48.8297698,28.2327001 48.1868197,28.3680581 46.4948458,27.4374724 C43.6354097,25.8639366 36.1907243,21.481724 35.1417004,20.9233726 C34.7017872,20.6864962 34.4987503,20.6188173 34.3464727,20.7372555 C34.1772753,20.8556936 34.2111147,21.1094897 34.3633924,21.7016806 L37.6965811,34.6283617 C37.9672969,35.6604659 38.0518956,36.4218542 37.3751061,37.0986437 C37.2566679,37.2170819 37.0367113,37.4031991 36.8844336,37.5216372 C36.7490757,37.6231557 36.7152362,37.6908346 36.7829152,37.7923531 C36.8844336,37.9107912 37.0028718,37.8769518 37.2228284,37.7077544 C38.0688154,37.0648043 38.9317221,36.3372555 39.1178392,36.2018975 C39.6254314,35.8127435 40.3699,35.3220711 40.8944119,34.9329171 C41.0805291,34.7975591 41.148208,34.6960407 41.0636093,34.5606828 C40.9959304,34.4591643 40.9113317,34.4760841 40.7252145,34.6283617 L40.4714184,34.8144789 C39.9638262,35.2036329 39.6592709,35.1190342 39.456234,34.8313986 C39.3208761,34.6452815 39.1178392,34.2053683 38.9824813,33.6977761 L38.1703338,30.7875808 C38.1364943,30.6691427 38.1364943,30.6183834 38.221093,30.5507045 L41.8757568,27.7758672 C41.9603555,27.7081882 42.0280345,27.7081882 42.1295529,27.7589474 L45.9534141,30.0769518 C46.1733707,30.2123097 46.1733707,30.4322663 46.088772,30.5507045 C45.9364943,30.6860624 45.8857351,30.7706611 45.9703338,30.8721795 C46.0549325,30.9906177 46.2579694,30.8383401 46.5625247,30.6183834 C47.8991842,29.6539583 49.1004857,28.7402923 49.6926766,28.3003791 C50.2341082,27.8266264 50.3694661,27.6912685 50.2679477,27.5559106 L50.2679477,27.5559106 Z M40.9620909,27.2344355 L37.9503772,29.5186004 C37.8826983,29.5693596 37.831939,29.5355201 37.7980996,29.4678411 L36.3937612,24.4765179 C36.3599217,24.408839 36.3430019,24.2904008 36.3937612,24.2565613 C36.4445204,24.2227218 36.5121993,24.2904008 36.5798783,24.34116 L40.9790106,27.0821578 C41.0128501,27.1159973 41.0466896,27.1667565 40.9620909,27.2344355 L40.9620909,27.2344355 Z M67.2046071,20.7203357 C67.1707677,20.635737 67.0692492,20.6018975 66.9169716,20.6695765 C66.7646939,20.7372555 66.5785768,20.7710949 66.3586202,20.8218542 C66.0540648,20.8726134 65.2080779,21.0587305 63.7360605,20.4157804 C62.1625247,19.7220711 60.2167547,18.6053683 57.7126332,17.2179496 C59.0831321,14.9676242 59.1846505,13.4956069 58.6770583,12.1420277 C58.2033056,10.9238064 57.0696831,10.2808563 56.4098132,10.1454984 C55.1069933,9.87478257 53.7872536,10.2470168 52.5690323,10.7207696 C51.9768414,10.9576459 50.5386635,11.5667565 49.8787937,11.8205526 C49.4727199,11.9728303 48.2375789,12.378904 47.2393143,12.7849778 C46.9516787,12.903416 46.8332406,12.9880147 46.8839998,13.1064529 C46.934759,13.2418108 47.0701169,13.224891 47.2731538,13.1402923 C47.5438696,13.0387739 47.8822644,12.9203357 48.0514618,12.903416 C48.7282514,12.7849778 48.9989672,13.0218542 49.2696831,13.6309648 C49.5403989,14.2062359 49.726516,14.7138281 50.8093794,17.4886654 L52.0445204,20.703416 C52.6874705,22.3784702 53.2458219,23.8335678 53.4488588,24.6287956 C53.5672969,25.187147 53.6349759,25.6270602 53.2796614,25.8470168 C53.1273837,25.9485353 52.9074271,26.0838932 52.6197915,26.1854116 C52.3829152,26.2700103 52.332156,26.354609 52.3659954,26.4561275 C52.4167547,26.5914854 52.5690323,26.5914854 52.8228284,26.489967 C53.5842167,26.2023314 54.7855182,25.6778194 55.1408327,25.5255418 C55.4284683,25.4240233 56.8666462,24.9333509 57.983349,24.4934377 C58.2371451,24.3919192 58.3555833,24.2904008 58.3048241,24.1550429 C58.2709846,24.0704442 58.1694661,24.0366047 58.0171885,24.1042837 C57.7803121,24.1888824 57.3573186,24.3242403 57.0527633,24.3919192 C56.4605724,24.5441969 56.1729369,24.1888824 55.9191408,23.6812902 C55.5299868,22.9537414 54.9716353,21.4986437 54.3117655,19.8066698 L54.2102471,19.5528737 C54.1594878,19.4344355 54.2102471,19.3836763 54.3117655,19.3498368 L55.9868197,18.7407262 C56.1221776,18.689967 56.2406158,18.6561275 56.3759737,18.7407262 C56.7312883,18.9268433 58.1017872,19.8235895 59.2523295,20.5342186 C60.8766245,21.5324832 61.9256484,22.1077544 62.923913,22.2092728 C63.5161039,22.2769518 64.0406158,22.1754333 65.1065594,21.7693596 L66.9338913,21.0587305 C67.1369282,20.9572121 67.2553664,20.8726134 67.2046071,20.7203357 L67.2046071,20.7203357 Z M56.6805291,17.0995114 C56.426733,17.4717457 56.2067763,17.6409431 55.4284683,17.9285787 C54.9547156,18.1146958 54.345605,18.2838932 53.9056917,18.3177327 C53.7534141,18.3177327 53.6857351,18.2500537 53.6011364,18.0470168 L51.4523295,12.4973422 C51.4015703,12.3450646 51.4015703,12.2604659 51.5200084,12.1758672 C51.6892058,12.0405092 52.0276006,11.8882316 52.5182731,11.7021145 C53.6518956,11.2622012 55.7499434,11.3129604 56.748208,13.9186004 C57.3234792,15.4244572 57.1035225,16.473481 56.6805291,17.0995114 L56.6805291,17.0995114 Z M77.4579694,18.4361709 C75.5291191,16.6595982 75.1061256,14.4431123 75.207644,12.5311817 C75.275323,11.1945223 75.8336744,8.91035741 77.8809629,7.28606239 C79.4206592,6.06784114 81.4171885,5.39105155 84.4965811,5.54332921 C85.7655616,5.61100816 86.5269499,5.72944634 87.4575356,5.89864374 C88.2358436,6.03400166 88.8787937,6.23703853 89.5048241,6.33855697 C89.7247807,6.37239645 89.8093794,6.47391489 89.8093794,6.59235307 C89.8093794,6.74463072 89.7247807,6.98150708 89.6571017,7.65829667 C89.5894228,8.30124678 89.5555833,9.38411012 89.4879043,9.77326413 C89.4540648,10.0608997 89.4033056,10.2300971 89.2171885,10.2131774 C89.0479911,10.2131774 89.0141516,10.04398 89.0310714,9.77326413 C89.0479911,9.1641535 88.8111147,8.47044417 88.3204423,7.9290125 C87.6774922,7.21838344 86.1039564,6.59235307 84.2089455,6.50775437 C82.4154531,6.42315567 81.2310714,6.79538994 80.2835659,7.52293875 C78.7100301,8.75807975 78.2362774,10.6023314 78.134759,12.4973422 C77.8978826,17.1502706 81.5017872,19.6543921 84.2597048,19.78975 C86.0870366,19.8912685 87.2037395,19.7389908 88.0666462,18.8930038 C88.4388805,18.5376893 88.7434358,17.9793379 88.8280345,17.6409431 C88.9126332,17.3363878 88.9464727,17.2517891 89.1156701,17.2687088 C89.2679477,17.2856286 89.2848674,17.4209865 89.2848674,17.5732641 C89.2679477,17.8101405 88.9464727,19.5021145 88.7095963,20.1619843 C88.5911581,20.4834594 88.5065594,20.5849778 88.1343251,20.703416 C87.3052579,20.9741318 85.7317221,21.024891 84.4119824,20.9741318 C81.5863859,20.7880147 79.2514618,20.0773856 77.4579694,18.4361709 L77.4579694,18.4361709 Z M105.121744,10.4838932 C99.4197915,8.0982099 95.5959304,11.1776025 94.3100301,14.2739149 C92.9733707,17.4717457 93.5317221,22.2769518 98.9798783,24.5780364 C103.802004,26.6084051 108.201136,24.6118758 109.94387,20.4665396 C111.686603,16.3381231 109.842351,12.4804225 105.121744,10.4838932 L105.121744,10.4838932 Z M107.016755,20.0266264 C104.817188,25.254826 101.484,24.5611166 100.16426,24.0027652 C96.526516,22.4799886 95.5959304,18.5715288 97.1694661,14.8153466 C99.0475573,10.3146958 102.025431,10.1962576 104.208078,11.1268433 C107.32131,12.4296633 108.708729,15.9658889 107.016755,20.0266264 L107.016755,20.0266264 Z M115.578143,26.9975591 C114.055366,28.9940884 113.243219,30.0769518 113.378577,30.6183834 C113.480095,31.0582967 113.83541,31.4982099 115.10439,32.4626351 C115.967297,33.1225049 116.627167,33.5793379 117.354716,33.4778194 C117.69311,33.4270602 118.234542,33.1394247 118.488338,32.8687088 C118.606776,32.7333509 118.725215,32.6656719 118.843653,32.7671904 C118.945171,32.8517891 118.911332,32.9533075 118.775974,33.1394247 C118.640616,33.308622 117.642351,34.3914854 117.168598,34.7467999 C116.813284,35.0175158 116.677926,35.0344355 115.815019,34.3914854 C114.630638,33.4947392 113.80157,32.8179496 113.074021,32.2426784 C112.346473,31.6504876 111.771202,31.1936546 111.111332,30.6860624 C110.925215,30.5507045 110.5699,30.2799886 110.163826,29.9923531 C109.791592,29.7047175 109.334759,29.4170819 109.013284,29.1632858 C108.810247,28.9940884 108.725648,28.8756502 108.810247,28.7572121 C108.877926,28.6726134 108.962525,28.6895331 109.165562,28.824891 C109.402438,29.0110082 109.622395,29.1294463 109.791592,29.214045 C110.163826,29.4001622 110.519141,29.1125266 110.925215,28.7233726 C111.500486,28.1311817 112.431071,26.8960407 113.530854,25.4578628 L115.611982,22.716865 C117.405475,20.3481014 117.74387,19.9081882 118.099184,19.3836763 C118.454499,18.8253249 118.522178,18.4700103 118.065345,17.9624181 C117.963826,17.8270602 117.777709,17.6747826 117.557752,17.5055852 C117.371635,17.3702273 117.303956,17.2517891 117.388555,17.1502706 C117.473154,17.0487522 117.608512,17.0995114 117.845388,17.2856286 C118.623696,17.8608997 119.621961,18.7068867 120.061874,19.0452815 C120.467948,19.3498368 121.686169,20.1958238 122.329119,20.6864962 C122.549076,20.8556936 122.650594,20.9741318 122.565995,21.09257 C122.481397,21.1940884 122.362959,21.1602489 122.176841,21.0079713 C121.990724,20.8726134 121.720008,20.6864962 121.500052,20.5680581 C120.99246,20.314262 120.654065,20.4834594 120.214152,21.0079713 C119.808078,21.481724 119.469683,21.9216372 117.676191,24.2904008 L115.578143,26.9975591 Z M126.82977,37.7246741 C124.90092,39.3320494 123.851896,40.1949561 123.868815,40.7533075 C123.868815,41.2101405 124.105692,41.7008129 125.120876,42.9528737 C125.814585,43.7988607 126.339097,44.3910515 127.083566,44.4587305 C127.43888,44.49257 128.014152,44.3233726 128.335627,44.1203357 C128.487904,44.0188173 128.606343,43.9849778 128.707861,44.103416 C128.809379,44.2049344 128.7417,44.2895331 128.555583,44.4418108 C128.386386,44.5771687 127.168165,45.4062359 126.626733,45.6431123 C126.220659,45.8123097 126.068382,45.8123097 125.391592,44.9832424 C124.444087,43.8496199 123.784217,42.9867132 123.208946,42.2591643 C122.650594,41.5316155 122.193761,40.9394247 121.652329,40.2964745 C121.500052,40.1272771 121.229336,39.7719626 120.890941,39.3997283 C120.586386,39.0274941 120.214152,38.6383401 119.960356,38.3337847 C119.791158,38.1307479 119.740399,37.9784702 119.841917,37.8938715 C119.926516,37.8431123 120.011115,37.860032 120.180312,38.0461492 C120.383349,38.2830255 120.569466,38.4522229 120.704824,38.5706611 C121.026299,38.8413769 121.432373,38.6383401 121.923045,38.3337847 C122.633674,37.8938715 123.818056,36.8956069 125.205475,35.7450646 L127.861874,33.5454984 C130.146039,31.6504876 130.569032,31.295173 131.025865,30.8552598 C131.516538,30.3984268 131.651896,30.0769518 131.330421,29.4678411 C131.262742,29.3155635 131.110464,29.1125266 130.941267,28.9094897 C130.788989,28.7402923 130.755149,28.6049344 130.856668,28.5203357 C130.958186,28.435737 131.076624,28.5203357 131.279661,28.7572121 C131.905692,29.5016806 132.684,30.5337847 133.039314,30.9567782 C133.360789,31.3290125 134.359054,32.4626351 134.866646,33.0717457 C135.052763,33.2917023 135.103523,33.4270602 135.018924,33.5116589 C134.917405,33.5962576 134.798967,33.5285787 134.64669,33.3424615 C134.511332,33.1732641 134.274455,32.9363878 134.088338,32.7671904 C133.665345,32.3949561 133.29311,32.4964745 132.751679,32.9025483 C132.244087,33.2747826 131.821093,33.6131774 129.520008,35.5251079 L126.82977,37.7246741 Z M136.727818,45.4739149 C139.384217,44.103416 139.857969,43.8496199 140.399401,43.5281448 C140.974672,43.18975 141.177709,42.9021145 140.974672,42.2253249 C140.940833,42.0561275 140.805475,41.7346524 140.670117,41.4808563 C140.568598,41.2778194 140.551679,41.1593813 140.670117,41.0917023 C140.788555,41.0240233 140.906993,41.1424615 141.042351,41.4131774 C141.296147,41.9038498 141.549943,42.4452815 141.78682,42.9021145 C142.006776,43.3927869 142.209813,43.8157804 142.345171,44.0695765 C142.649726,44.6617674 144.527818,48.2995114 144.713935,48.6379062 C144.933891,48.976301 145.120008,49.2470168 145.221527,49.365455 C145.289206,49.4500537 145.390724,49.5346524 145.441484,49.6192511 C145.492243,49.7038498 145.424564,49.7715288 145.339965,49.8053683 C145.221527,49.8730472 144.967731,49.889967 144.138664,50.2452815 C143.952546,50.3129604 143.174238,50.668275 142.937362,50.7528737 C142.835844,50.7867132 142.717405,50.8036329 142.649726,50.668275 C142.582047,50.5329171 142.649726,50.4652381 142.818924,50.3806394 C142.937362,50.3129604 143.224998,50.143763 143.394195,49.9407262 C143.631071,49.6530906 143.74951,49.365455 143.377275,48.3841101 C143.241917,48.0457153 142.294412,46.116865 142.108295,45.7446307 C142.057536,45.660032 141.989857,45.6431123 141.871418,45.7107912 L137.455366,47.9780364 C137.336928,48.0457153 137.269249,48.0964745 137.336928,48.197993 C137.539965,48.6040667 138.622828,50.7021145 138.876624,51.1081882 C139.130421,51.5311817 139.333457,51.7849778 139.587254,51.8526568 C139.79029,51.903416 139.908729,51.9372555 139.959488,52.0218542 C139.993327,52.0895331 139.993327,52.1741318 139.891809,52.224891 C139.79029,52.2756502 139.468815,52.3602489 138.53823,52.7324832 C138.182915,52.9016806 137.455366,53.2062359 137.336928,53.2569951 C137.20157,53.3246741 136.998533,53.4261925 136.913935,53.2739149 C136.846256,53.138557 136.897015,53.070878 136.981614,53.0201188 C137.150811,52.9186004 137.370768,52.8001622 137.573805,52.614045 C137.87836,52.3433292 137.996798,51.9541752 137.726082,51.2435461 C137.573805,50.8713119 136.660139,49.0608997 136.440182,48.6209865 C136.389423,48.5363878 136.304824,48.5533075 136.220225,48.6040667 L134.849726,49.3146958 C134.257536,49.6192511 132.65016,50.4313986 132.142568,50.7021145 C130.958186,51.3619843 130.856668,51.7849778 131.821093,53.6461492 C132.057969,54.1199019 132.464043,54.8812902 132.903956,55.2535244 C133.360789,55.6257587 133.834542,55.6595982 134.61285,55.4227218 C134.815887,55.3550429 134.917405,55.3550429 134.968165,55.4904008 C135.035844,55.6426784 134.900486,55.7103574 134.731288,55.7949561 C134.325215,55.997993 133.073154,56.4717457 132.684,56.5563444 C132.159488,56.6578628 132.074889,56.5055852 131.719575,55.8118758 C131.008946,54.4413769 130.535193,53.4092728 130.146039,52.614045 C129.773805,51.8018975 129.503089,51.2266264 129.215453,50.6851947 C129.113935,50.4821578 128.910898,50.0760841 128.657102,49.6530906 C128.437145,49.2300971 128.166429,48.7732641 127.980312,48.4179496 C127.861874,48.1810732 127.844954,48.0287956 127.980312,47.9611166 C128.064911,47.9103574 128.14951,47.9611166 128.267948,48.1810732 C128.403306,48.4517891 128.555583,48.654826 128.674021,48.8071036 C128.927818,49.1285787 129.367731,49.0270602 129.909162,48.8409431 C130.68747,48.5533075 132.057969,47.8426784 133.665345,47.0136112 L136.727818,45.4739149 Z M137.032373,72.6300971 C136.507861,72.6977761 136.474021,72.6977761 136.304824,72.4608997 C135.441917,71.2426784 134.951245,69.2799886 134.714369,67.6895331 C133.98682,62.6982099 135.594195,57.9606828 140.940833,57.1823748 C144.037145,56.7255418 146.456668,58.0960407 147.793327,59.8049344 C149.214585,61.5984268 149.603739,63.3919192 149.857536,65.1008129 C150.060572,66.5051513 150.094412,68.3324832 150.060572,68.7554767 C150.043653,69.1953899 150.026733,69.9229388 150.077492,70.3966915 C150.094412,70.6504876 150.026733,70.7012468 149.891375,70.7181665 C149.671418,70.752006 149.113067,70.684327 146.693544,71.0396416 C146.388989,71.0904008 146.28747,71.0396416 146.253631,70.8704442 C146.236711,70.7350863 146.32131,70.6674073 146.473588,70.6335678 C146.913501,70.5151296 147.522611,70.3120928 147.996364,69.7029821 C148.520876,69.0092728 149.180746,67.2496199 148.842351,64.9485353 C148.673154,63.8318325 148.385518,62.3428954 147.048859,61.0908346 C145.965995,60.0756502 144.409379,59.5680581 142.023696,59.9064529 C137.84452,60.5155635 135.137362,63.7641535 135.763392,68.0448476 C135.847991,68.5693596 135.94951,69.2799886 136.220225,69.7537414 C136.406343,70.0413769 136.660139,70.0752164 136.998533,70.0413769 L138.825865,69.7706611 C139.79029,69.6353032 140.534759,69.516865 141.11003,69.4153466 C141.7699,69.2969084 142.057536,69.0769518 142.091375,68.3832424 C142.108295,68.214045 142.074455,67.8587305 142.040616,67.5880147 C142.006776,67.4018975 142.040616,67.2834594 142.142134,67.2665396 C142.294412,67.2496199 142.362091,67.3849778 142.39593,67.6726134 C142.548208,68.7216372 142.683566,70.0244572 142.768165,70.6335678 C142.852763,71.2595982 143.07272,72.3255418 143.174238,73.0023314 C143.208078,73.2730472 143.191158,73.4253249 143.03888,73.4422446 C142.920442,73.4591643 142.869683,73.3407262 142.852763,73.2053683 C142.835844,73.0361709 142.785084,72.9008129 142.717405,72.6639366 C142.531288,72.1225049 142.175974,71.9702273 141.499184,72.054826 C140.906993,72.1225049 140.128685,72.2240233 139.16426,72.376301 L137.032373,72.6300971 Z M145.272286,78.0105743 C148.25016,78.0782533 148.808512,78.095173 149.434542,78.0613335 C150.094412,78.0444138 150.415887,77.8921361 150.568165,77.2153466 C150.618924,77.0461492 150.635844,76.7077544 150.652763,76.4201188 C150.652763,76.2001622 150.703523,76.0648043 150.83888,76.081724 C150.974238,76.081724 151.008078,76.2340017 151.008078,76.538557 C150.991158,77.0969084 150.957319,77.6890993 150.957319,78.1966915 C150.923479,78.7381231 150.88964,79.1949561 150.88964,79.4995114 C150.87272,80.1593813 150.771202,84.2539583 150.788121,84.6431123 C150.805041,85.0322663 150.83888,85.3537414 150.88964,85.5229388 C150.906559,85.6244572 150.957319,85.7598151 150.957319,85.8444138 C150.957319,85.9459322 150.87272,85.962852 150.788121,85.962852 C150.652763,85.962852 150.415887,85.8613335 149.519141,85.7767348 C149.316104,85.7428954 148.470117,85.6752164 148.233241,85.6413769 C148.148642,85.6075374 148.013284,85.573698 148.013284,85.4214203 C148.030204,85.2691427 148.114802,85.2353032 148.284,85.2353032 C148.419358,85.2353032 148.757752,85.2183834 148.994629,85.1337847 C149.349943,84.9984268 149.58682,84.7953899 149.739097,83.7802056 C149.772937,83.4418108 149.874455,81.2760841 149.874455,80.8530906 C149.874455,80.7515722 149.823696,80.7008129 149.688338,80.7008129 L144.730854,80.5823748 C144.595497,80.5823748 144.510898,80.5992945 144.510898,80.7177327 C144.510898,81.1745656 144.443219,83.5264095 144.477058,84.0001622 C144.510898,84.4908346 144.561657,84.8123097 144.747774,84.9984268 C144.900052,85.1507045 145.00157,85.2353032 145.00157,85.3368216 C145.00157,85.4214203 144.967731,85.4890993 144.849293,85.4721795 C144.730854,85.4552598 144.409379,85.3706611 143.411115,85.2691427 C143.021961,85.2353032 142.243653,85.1676242 142.091375,85.1507045 C141.939097,85.1507045 141.719141,85.1507045 141.736061,84.9645873 C141.736061,84.8123097 141.803739,84.7784702 141.905258,84.7784702 C142.108295,84.7615505 142.362091,84.7615505 142.615887,84.7107912 C143.005041,84.6261925 143.309596,84.338557 143.411115,83.5771687 C143.461874,83.1880147 143.529553,81.1407262 143.529553,80.6500537 C143.529553,80.5485353 143.461874,80.5316155 143.343436,80.5146958 L141.803739,80.4808563 C141.14387,80.4639366 139.333457,80.3962576 138.758186,80.4131774 C137.404607,80.4131774 137.100052,80.7346524 137.049293,82.8327001 C137.032373,83.3741318 137.015453,84.2370385 137.23541,84.7615505 C137.455366,85.3029821 137.86144,85.5567782 138.656668,85.7259756 C138.876624,85.7598151 138.944303,85.8105743 138.944303,85.9459322 C138.944303,86.1151296 138.792026,86.1151296 138.588989,86.1151296 C138.149076,86.0982099 136.812416,85.9120928 136.423262,85.7936546 C135.91567,85.6413769 135.91567,85.4552598 135.93259,84.6769518 C135.966429,83.1372555 136.034108,82.0036329 136.084867,81.1068867 C136.152546,80.2270602 136.186386,79.5841101 136.186386,78.9749995 C136.186386,78.7550429 136.203306,78.2982099 136.203306,77.8075374 C136.220225,77.3337847 136.186386,76.8092728 136.203306,76.3862793 C136.220225,76.1324832 136.270985,75.9802056 136.406343,75.9802056 C136.507861,75.9802056 136.55862,76.0648043 136.55862,76.3186004 C136.55862,76.6231557 136.59246,76.8769518 136.626299,77.0461492 C136.693978,77.4691427 137.116972,77.5706611 137.692243,77.6721795 C138.52131,77.7906177 140.061006,77.8244572 141.854499,77.8752164 L145.272286,78.0105743 Z M40.9282514,137.517299 C41.1143685,137.111225 41.7065594,136.671312 42.4341082,137.009707 C43.0262991,137.280422 43.297015,137.872613 43.0262991,138.447885 C42.7555833,139.006236 42.1295529,139.293872 41.4696831,138.989316 C40.759054,138.650921 40.7082948,137.974132 40.9282514,137.517299 L40.9282514,137.517299 Z M23.7195225,105.62359 L22.2331234,108.961854 L18.8945204,107.475793 L20.3809195,104.13719 L23.7195225,105.62359 Z M136.915627,104.114349 L138.402026,107.452952 L135.063423,108.939351 L133.577193,105.600748 L136.915627,104.114349 Z" id="Shape"></path>
            <path d="M79.4664773,38.3176703 C80.2278655,37.0148504 78.3836139,34.7476052 79.6187549,33.1063905 C80.5155011,32.9371931 81.7337224,33.0048721 82.6304686,33.4278655 L82.6643081,32.9879523 C82.1059567,32.1758048 81.0230933,32.7003167 80.1771063,32.5311193 C77.8760217,33.529384 79.4326378,36.1519436 78.9588851,37.8946768 C78.5358916,38.3007506 78.1636573,37.556282 77.791423,37.9961953 C78.0621389,38.1146334 78.8235272,38.469948 79.4664773,38.3176703 L79.4664773,38.3176703 Z M100.446954,121.54587 C93.8990152,119.820056 90.8365423,127.010946 85.9128981,128.686 C81.564525,129.819623 75.321141,128.432204 72.5801432,125.572768 C71.9879523,125.403571 71.0066074,125.268213 70.4651757,125.741965 C71.1081259,126.858668 72.918538,127.958451 74.0183211,128.499883 C74.1367593,129.32895 73.307692,129.853462 72.2417484,130.208777 C73.9844816,130.377974 75.7441345,130.479492 77.5207072,130.479492 C82.9350239,130.479492 88.1463037,129.667345 93.069948,128.144568 C92.7146334,127.163223 93.2053059,125.809644 93.848256,125.268213 C95.1341562,124.236108 96.4369762,121.258234 98.4842647,122.933289 C98.9072582,123.305523 98.0274317,124.219189 97.553679,124.557584 C97.3337224,124.709861 96.9784078,124.929818 96.8092105,125.048256 C97.6382777,125.877323 98.9241779,125.048256 99.9224426,124.574503 C100.75151,124.100751 101.665176,123.407041 101.732855,122.764091 C101.682095,122.307258 100.954547,121.630469 100.446954,121.54587 L100.446954,121.54587 Z M79.6018352,34.4430499 L80.5155011,35.0352408 C81.2599697,35.2044382 81.9029198,34.8322039 82.3935922,34.5953276 C81.7844816,33.6139827 80.0755879,33.6816616 79.6018352,34.4430499 L79.6018352,34.4430499 Z M76.2009675,39.6204903 L76.8439176,39.9758048 C77.4361085,40.415718 79.0096443,40.483397 79.6187549,39.5358916 C79.0434838,39.1298178 76.7931584,38.9606204 76.2009675,39.6204903 L76.2009675,39.6204903 Z M68.3502083,124.726781 C69.9745033,122.476456 73.1215749,120.784482 74.1705987,118.28036 C74.542833,110.818755 73.1215749,104.253896 71.9371931,97.164525 C71.8187549,101.326781 73.375371,111.698581 72.3601866,115.6578 C72.1571497,119.515501 66.8612712,123.593158 67.1150673,125.843484 C67.3011844,126.994026 69.280794,127.603137 70.1437007,128.04305 C69.5853493,127.315501 67.910295,126.08036 68.3502083,124.726781 L68.3502083,124.726781 Z M64.0018352,123.051727 C61.1254794,122.933289 58.2322039,125.285132 55.3389285,125.589688 C57.4200564,126.554113 59.5688634,127.4001 61.802269,128.093809 C62.0729849,126.232638 66.5905554,125.115935 64.0018352,123.051727 L64.0018352,123.051727 Z M76.6578005,34.5445684 C76.7931584,34.0877354 75.9133319,33.6139827 75.3380608,33.6139827 C74.6274317,33.6139827 74.1198395,34.0877354 73.6122473,34.5445684 C74.5597527,34.375371 75.710295,35.3059567 76.6578005,34.5445684 L76.6578005,34.5445684 Z M48.1480391,101.123744 C47.9788417,106.182746 48.9601866,112.44305 45.4408807,114.811813 C43.9181042,115.945436 42.8014013,116.503787 41.9215749,116.605306 C43.410512,117.975805 44.9840478,119.261705 46.6083428,120.446087 C48.9601866,114.710295 49.7046551,107.587085 48.4187549,101.37754 L48.1480391,101.123744 L48.1480391,101.123744 Z M69.7037875,88.0278655 C66.9966291,89.296846 65.6938091,91.4964122 64.2048721,93.5267809 C62.5636573,97.2829632 65.0677788,100.71767 65.4230933,104.355414 C65.575371,106.554981 65.7107289,108.754547 66.6413146,110.700317 C67.0643081,103.255631 64.272551,94.0005337 69.7037875,88.0278655 L69.7037875,88.0278655 Z M94.9311193,106.131987 C93.002269,105.201401 94.5419653,103.035675 93.6621389,101.597497 C92.7484729,103.30639 92.6638742,105.387518 92.545436,107.434807 C92.4100781,108.263874 92.8499914,108.872985 93.6621389,108.974503 C95.8447853,107.570165 97.5875185,105.607475 98.5857831,103.610946 C97.4183211,104.60921 96.5384946,106.216586 94.9311193,106.131987 L94.9311193,106.131987 Z M80.0755879,24.8664773 C81.5476052,25.1710326 82.731987,25.6447853 82.799666,26.050859 L82.0382777,26.6261302 C83.256499,26.7276486 83.6287332,26.6938091 84.1024859,27.6751541 C83.9332885,27.742833 83.967128,27.9797094 83.967128,28.1150673 C83.8994491,27.9289501 83.9163688,28.4027029 83.8486898,28.6057397 C84.5762387,29.1302517 85.4899046,29.7224426 85.4899046,30.669948 C85.3207072,32.2096443 87.4864339,34.696846 85.4899046,35.3736356 C85.8790586,36.2365423 85.4729849,37.5732018 84.9146334,38.4191888 C84.6946768,38.7406638 83.5610543,39.5866508 83.0873016,39.5189718 C83.510295,38.2669111 83.5441345,35.1029198 84.5085597,33.7493406 C83.4426161,32.8864339 84.2716833,30.9406638 83.6964122,30.5345901 C82.0890369,28.8087766 80.1094274,28.1489068 78.7220087,26.0677788 C78.0282994,28.6395792 75.2365423,27.5905554 73.0708157,30.0946768 C73.5953276,30.2469545 73.3922907,31.1775402 72.850859,31.5497744 C71.9202734,32.5480391 72.3432668,33.7662603 70.9389285,34.2738525 C71.6495575,34.7137658 71.3450022,35.6951107 71.3450022,36.3042213 C71.3280825,36.7441345 70.9220087,36.7610543 70.7528113,37.3532452 L70.6512929,37.234807 L70.3467376,37.9623558 C68.823961,36.7948937 70.8881692,35.5597527 70.2452191,34.2569328 C69.8899046,34.5614881 69.8391454,35.3059567 69.2469545,35.3059567 C68.7732018,34.2569328 69.4161519,33.3094274 69.8391454,32.4465206 C70.0083428,32.0066074 70.6005337,32.1419653 70.5497744,31.5836139 L70.2621389,31.2790586 C70.1944599,31.905089 69.7207072,31.3467376 69.5515098,31.0929415 C69.6191888,29.5363254 71.3280825,29.5363254 72.1063905,28.6057397 C71.8018352,28.0473883 71.3450022,29.045653 71.2773232,28.3011844 C71.1588851,27.6074751 71.8695141,27.0660434 72.5124642,26.8122473 C72.8677788,26.8122473 73.2061736,26.8799263 73.3922907,26.4907723 C72.6478222,25.272551 74.7797094,25.5432668 75.4734187,24.8495575 C47.3358916,25.9324209 24.8495575,49.1463037 24.8495575,77.6391454 C24.8495575,91.8517267 30.4499914,104.761488 39.5528113,114.253462 C39.6543298,112.44305 41.6170196,110.581879 43.0382777,107.90856 C43.9011844,105.91203 44.6625727,102.934156 44.7979306,100.937627 C43.5966291,103.137193 43.2074751,105.26908 40.9063905,107.925479 C40.9063905,107.925479 39.9758048,109.312898 38.3853493,109.076022 C38.2499914,109.042182 35.6781909,108.449991 39.4512929,103.475588 C45.0178872,96.5046551 45.7623558,85.6760217 55.305089,82.2243948 C55.4404469,82.1736356 55.5927246,82.2920738 55.5758048,82.4443514 L55.2712495,84.2378439 C55.23741,84.423961 55.3727679,84.5762387 55.5588851,84.5931584 L69.0946768,85.3545467 L69.5176703,85.3037875 L69.0100781,86.7250456 C70.8881692,85.7775402 71.8525944,82.3089935 73.6122473,80.8369762 C74.6612712,80.0079089 75.9471714,79.9063905 76.8269979,78.7389285 C78.2990152,79.5003167 79.6356747,80.786217 81.3614881,80.5493406 C83.5610543,78.315935 85.6929415,80.0755879 88.2478222,79.551076 C90.6673449,82.8165857 89.753679,87.7571497 87.9432668,90.9549805 C88.9415315,91.6825293 89.0768894,92.9515098 88.7723341,94.0682126 C88.1970629,95.8786248 87.3849154,97.7397961 85.8621389,99.2118135 C82.4443514,99.5163688 80.329384,96.6569328 77.8083428,94.8803601 L77.7237441,95.015718 C83.256499,100.903787 89.3137658,106.825696 89.364525,115.133289 C90.9380608,114.693375 90.6673449,111.884699 93.1883862,113.136759 C94.1358916,113.390555 92.3762387,116.097714 92.2578005,116.233072 C93.0868677,117.738928 94.5758048,114.38882 95.5740695,114.693375 C99.6855662,114.744135 102.443484,118.212681 104.575371,121.275154 L105.404438,122.459536 C120.327649,113.136759 130.259536,96.5215749 130.259536,77.5883862 C130.191857,49.3155011 107.976239,26.2031367 80.0755879,24.8664773 L80.0755879,24.8664773 Z M74.6951107,32.9710326 C75.777974,32.8018352 76.7423992,33.2755879 77.5883862,33.1063905 C77.1146334,32.1588851 75.777974,32.1588851 74.8304686,32.3957614 L73.1723341,33.1063905 C73.9337224,31.2959783 74.3567159,29.9254794 76.7593189,29.5024859 C77.6560651,28.5719003 79.1111627,27.421358 80.0925076,28.58882 L81.2599697,29.3502083 L82.8842647,31.1098612 L83.0534621,33.0217918 C83.0534621,33.0217918 83.1042213,33.4955445 82.4612712,34.5953276 C83.4087766,36.2534621 81.5983645,41.2109458 79.0773232,42.496846 C77.7575836,42.8521606 76.3532452,42.0230933 75.2703818,41.786217 C75.9640911,43.021358 77.7745033,43.7658265 79.0773232,44.1719003 C80.1094274,44.3410977 81.6660434,44.5610543 82.9519436,44.3410977 C82.4781909,46.9298178 79.7710326,50.4152842 77.8252625,50.8890369 C76.3194057,51.2951107 74.5089935,50.8890369 73.2907723,50.1445684 C72.0387115,49.2309024 70.2959783,46.4729849 71.1927246,46.1007506 L72.9692972,44.8994491 C73.1215749,40.9233102 69.7376269,35.086 74.6951107,32.9710326 L74.6951107,32.9710326 Z M70.6005337,38.2499914 L70.8035705,37.69164 L71.294243,38.013115 C71.8864339,38.402269 71.0573666,39.0282994 71.683397,39.5020521 C71.4465206,39.705089 70.3467376,38.8421823 70.6005337,38.2499914 L70.6005337,38.2499914 Z M44.4256964,88.7046551 C43.6812278,88.2478222 42.3276486,88.2478222 41.5831801,88.7046551 C38.6222256,90.3627896 37.1332885,93.9497744 36.1519436,96.6061736 C35.6443514,96.9107289 34.9844816,96.9784078 34.7814447,96.2846985 C33.8000998,95.861705 34.4768894,94.9141996 34.4768894,94.5081259 C37.1163688,91.5810109 39.5358916,88.2985814 41.4647419,84.9653927 C40.2803601,82.8165857 37.2686465,84.4070413 35.8304686,82.4951107 C35.1029198,80.8369762 34.375371,78.7389285 33.1740695,77.4361085 C35.4582343,76.2686465 38.3684295,77.6899046 39.6543298,79.9740695 C40.3987983,81.4122473 40.5172365,83.1380608 41.5662603,84.423961 C42.2430499,84.0517267 42.8690803,83.18882 43.2243948,82.5120304 C43.2243948,82.5120304 43.7150673,82.1228764 43.8842647,81.7675619 C43.4781909,81.7675619 42.7337224,81.7844816 42.8014013,81.2768894 C43.0551974,80.6000998 44.1719003,81.4630065 44.2903384,80.5493406 C43.7489068,80.2955445 41.9215749,80.8538959 42.3614881,79.6187549 L44.4764556,79.4326378 C44.1042213,79.3311193 42.3276486,79.1788417 42.8183211,78.5697311 C43.6304686,78.1298178 45.1363254,78.5866508 45.745436,78.0452191 L46.5237441,79.6864339 C45.2209241,82.5120304 43.2413146,85.1176703 41.329384,87.5371931 C41.329384,87.7740695 41.2786248,88.129384 41.5831801,88.129384 C44.2903384,87.7063905 43.731987,83.7810109 46.9467376,84.2040044 L48.6048721,84.3393623 C47.9788417,86.1836139 46.8790586,88.3831801 44.4256964,88.7046551 L44.4256964,88.7046551 Z M55.2543298,79.7879523 C51.3627896,83.0365423 49.7384946,82.8335055 46.3545467,82.2243948 C46.2361085,81.3784078 46.7944599,80.8708157 47.0990152,79.8894708 C47.7758048,80.1432668 49.3493406,80.329384 49.9922907,79.4495575 C47.8096443,79.94023 47.6742864,77.7406638 46.4053059,77.1992321 C46.4053059,77.1992321 42.7168026,77.9944599 42.7506421,76.5732018 C43.0890369,76.6747202 44.7302517,76.0825293 44.7302517,76.0825293 C48.1141996,74.9827462 50.7875185,79.2126812 53.8669111,76.4209241 L56.2695141,74.999666 C56.4217918,76.7593189 55.5758048,78.2144165 55.2543298,79.7879523 L55.2543298,79.7879523 Z M68.1810109,83.510295 C64.3909892,83.7302517 60.4317701,83.2057397 56.5571497,83.2057397 C57.0309024,78.9588851 57.5723341,74.6951107 57.8938091,70.515935 C59.399666,70.9389285 60.2964122,68.756282 61.4977137,68.3332885 C64.5094274,68.823961 66.3875185,65.5922907 69.4499914,67.1827462 C69.2638742,72.6985814 68.1810109,77.859102 68.1810109,83.510295 L68.1810109,83.510295 Z M69.4161519,65.8630065 C68.1810109,66.0491237 67.199666,65.0000998 66.0152842,65.4230933 C63.6126812,67.521141 59.2812278,65.8630065 57.9784078,69.7545467 L56.8109458,70.2959783 C56.1341562,68.2656096 57.8599697,66.1675619 58.7228764,64.2387115 C65.7784078,59.9072582 73.0538959,64.4755879 79.9063905,66.0152842 C81.2261302,66.3367593 81.0400131,64.5263471 81.5983645,63.7987983 L83.6287332,56.3033536 C86.2005337,55.5081259 87.9094274,58.2829632 89.0599697,60.6178872 C87.9771063,65.3723341 87.0126812,68.2994491 83.1719003,72.0556313 C78.9758048,71.8695141 77.4361085,71.0912061 73.8491237,69.3823124 C74.542833,67.3688634 70.5328547,66.2352408 69.4161519,65.8630065 L69.4161519,65.8630065 Z M71.6664773,67.4703818 C70.8035705,72.529384 70.9389285,78.3666942 69.8899046,83.4933753 L69.145436,83.4933753 C69.3315532,78.1974968 69.9406638,72.7155011 70.380577,67.3688634 C70.8712495,67.2335055 71.1758048,67.6395792 71.6664773,67.4703818 L71.6664773,67.4703818 Z M88.2985814,75.9810109 C87.7740695,76.6578005 87.672551,77.6899046 86.894243,78.1974968 C83.8994491,76.7085597 80.0925076,79.9063905 77.8421823,76.4040044 C76.9285163,77.2330716 75.8964122,78.5189718 74.4074751,77.8421823 C73.6799263,77.3176703 72.918538,78.2651757 72.7155011,77.1315532 C72.7155011,75.4903384 71.9033536,71.5311193 73.0200564,70.3467376 C74.0014013,70.7358916 76.1163688,72.0048721 77.402269,72.3940261 C79.6187549,73.2400131 81.0907723,73.7476052 84.423961,73.4938091 C86.1328547,73.6291671 86.0990152,71.8356747 87.0972799,70.3974968 C87.3849154,69.4838308 88.2478222,68.0287332 89.0768894,67.4703818 C91.445653,69.9575836 88.7723341,73.2400131 88.2985814,75.9810109 L88.2985814,75.9810109 Z M106.385783,103.204872 C105.692074,105.472117 104.169297,113.475154 101.428299,114.270382 C97.0630065,114.524178 92.4439176,112.087735 91.0057397,110.108126 C86.9111627,102.917236 90.8873016,95.1849154 90.7011844,87.5033536 C93.002269,84.3224426 90.5658265,80.5831801 90.5150673,77.1653927 C91.8178872,74.6951107 92.3931584,71.8018352 94.7450022,69.9068243 L95.7432668,69.7883862 C97.3506421,73.5107289 96.5215749,78.1636573 95.3541128,81.9198395 C96.0985814,81.564525 97.1814447,79.6356747 98.4842647,80.7016183 C99.1441345,82.0551974 99.6517267,83.7133319 98.5688634,85.0499914 C97.7059567,85.8282994 96.8768894,87.7063905 97.1814447,87.7571497 C99.5332885,85.8282994 101.41138,83.4764556 100.582312,80.3801432 C98.7549805,71.5311193 94.23741,65.0000998 89.9905554,57.1493406 C89.0768894,55.9818786 87.5202734,54.4421823 85.9128981,54.6113796 L82.7489068,55.1528113 C82.8165857,53.2747202 84.1870846,49.9922907 84.6946768,47.9280825 C83.0027029,50.1784078 82.4612712,51.7350239 81.7168026,54.4760217 C81.5983645,54.8820955 81.5476052,55.3220087 81.564525,55.7450022 C81.5983645,57.0985814 81.5137658,60.5332885 80.0417484,62.9528113 C79.3480391,63.951076 78.0113796,64.3909892 77.0469545,64.0018352 C72.4447853,62.3098612 67.3688634,62.5974968 67.4196226,59.1627896 L67.131987,54.2053059 C66.1337224,56.5063905 65.9306855,59.1458699 65.7953276,61.3115966 C64.4755879,61.4638742 64.0187549,61.7007506 62.648256,61.7684295 C62.5974968,59.399666 64.9493406,58.8243948 64.1710326,56.6248287 C64.5771063,55.4573666 65.4738525,54.6790586 65.0000998,53.5115966 C63.4096443,57.7922907 58.6382777,57.6230933 55.5588851,59.8734187 C55.3896877,61.1762387 54.8651757,62.2929415 53.9684295,63.2912061 C57.318538,62.2421823 59.1458699,57.4538959 63.3250456,57.4538959 C62.191423,59.7549805 62.8005337,61.023961 57.386217,63.2912061 C56.151076,62.8343731 54.8651757,63.3588851 53.9684295,64.0018352 C52.7840478,65.4738525 51.7181042,67.2504252 51.0243948,69.0777571 C52.5471714,68.7732018 52.5471714,66.2521606 54.2729849,65.9476052 C55.7450022,65.8460868 54.9328547,66.0152842 56.3541128,65.6599697 C54.5606204,67.4534621 55.4573666,68.4686465 54.8651757,69.0777571 C53.4946768,69.8899046 52.0226595,67.9441345 51.0243948,69.669948 L48.3003167,74.8643081 C48.9601866,75.2196226 49.6031367,74.6781909 50.1276486,74.4413146 C50.7875185,72.5463037 51.8196226,71.7003167 53.3423992,70.8035705 C54.4083428,70.7358916 54.780577,71.0066074 55.4404469,71.3619219 C54.5775402,72.9016183 55.1358916,73.1554144 53.4946768,73.9168026 C51.6673449,74.9150673 51.2612712,74.2044382 48.1141996,75.5580174 C47.4881692,75.1350239 46.591423,75.4226595 46.2191888,75.3549805 C43.9181042,73.3922907 41.718538,76.8777571 39.2820955,76.1502083 C38.1146334,75.5072582 36.8625727,74.8643081 35.4413146,74.7289501 C35.9150673,73.9675619 36.9640911,72.4447853 38.2669111,72.0217918 C39.3328547,71.9033536 40.3311193,71.6664773 41.3801432,72.1909892 C42.4460868,73.307692 43.7489068,74.7797094 45.1701649,74.1367593 C44.3241779,73.1554144 44.3580174,72.3094274 43.8165857,71.4296009 C42.0400131,71.3619219 40.9063905,69.3653927 39.5020521,68.6716833 C38.1484729,67.4703818 38.2669111,65.6599697 38.080794,64.0018352 C39.7896877,63.9341562 41.1940261,64.5940261 42.3276486,65.9476052 C45.1024859,68.5024859 43.342833,72.3094274 46.1684295,74.7289501 C47.6912061,74.086 48.283397,72.3094274 48.9940261,70.8881692 C49.0447853,69.0777571 51.4643081,66.8274317 49.1632235,65.4230933 C48.6894708,65.4230933 48.1649588,65.2877354 47.8604035,65.6599697 C44.2734187,66.1168026 42.4291671,62.7666942 40.6695141,60.2794924 C43.5120304,60.110295 46.8621389,60.2794924 48.4525944,63.0035705 L50.5844816,66.2521606 C50.6352408,65.2877354 50.9905554,63.6972799 50.5844816,62.4113796 C49.6369762,60.6855662 47.4543298,59.856499 47.1666942,57.8599697 L48.1649588,52.4964122 C51.1766725,55.5758048 52.6317701,59.9241779 51.1089935,64.1202734 L51.2781909,66.2521606 C52.8686465,63.2912061 55.9480391,60.2794924 54.5267809,56.4387115 C52.5302517,55.7450022 51.4135488,53.5623558 50.9905554,51.6673449 C51.8703818,49.7215749 50.6183211,47.894243 51.2781909,45.8300347 C54.1037875,48.4187549 55.8803601,52.0226595 54.6452191,55.7450022 C54.459102,56.5740695 55.3389285,56.929384 55.5250456,57.6230933 C57.0647419,55.2035705 60.245653,52.9870846 58.1814447,49.6708157 C57.1831801,48.8417484 56.1172365,48.0803601 55.7619219,46.8452191 C55.4066074,44.7302517 56.8786248,43.3089935 56.7601866,41.1771063 C58.2322039,42.5983645 60.245653,44.0027029 60.177974,46.1176703 C60.9393623,48.6048721 58.1137658,49.7384946 59.2812278,52.1918569 C60.2794924,51.7857831 60.7024859,50.5506421 61.2777571,49.6538959 C60.9901215,46.4729849 61.9883862,43.410512 64.5263471,41.1601866 C64.6955445,42.9875185 65.4907723,45.3055228 64.4248287,46.9974968 C62.0729849,48.351076 61.5315532,50.9397961 59.5857831,52.767128 C58.6890369,54.7636573 57.1662603,56.6079089 55.9311193,58.3168026 L55.9311193,58.8413146 C57.2846985,59.4335055 58.1137658,57.9784078 58.7567159,57.0139827 C59.1120304,55.8296009 59.7042213,54.6621389 60.7024859,53.9007506 C61.9037875,53.1901215 63.5280825,53.7653927 64.5432668,52.767128 C64.0187549,52.6656096 63.494243,52.3441345 62.8343731,52.4794924 C65.0846985,50.3476052 67.1489068,48.2326378 70.0252625,46.7098612 C70.448256,47.9957614 71.0742864,49.0786248 71.7849154,50.0599697 C73.375371,51.7688634 76.0317701,52.6656096 78.1467376,51.8365423 C81.3276486,50.5506421 82.4274317,47.4543298 83.6964122,44.18882 C91.1580174,44.5272148 92.4439176,52.767128 95.5740695,57.8430499 C98.9749371,65.8122473 102.578842,73.7137658 103.898581,82.5120304 C103.509427,87.6894708 97.621358,89.3137658 94.4404469,92.4100781 C95.1341562,92.8330716 95.5740695,91.7502083 96.2677788,91.7163688 C98.1458699,91.3610543 99.3979306,92.6638742 100.616152,93.848256 C102.071249,96.8599697 101.648256,97.4014013 101.665176,101.834373 C101.39446,108.077757 100.463874,109.228299 99.9224426,111.241748 C99.9224426,111.241748 102.66344,111.377106 104.067779,100.903787 C103.98318,96.8599697 105.810512,90.7519436 101.732855,88.5016183 L102.595761,87.8079089 C108.179276,90.7857831 107.164091,97.621358 106.385783,103.204872 L106.385783,103.204872 Z M94.9649588,52.4118135 L102.612681,48.6387115 L110.294243,52.4118135 L94.9649588,52.4118135 L94.9649588,52.4118135 Z M121.799666,70.5666942 L114.490338,70.5666942 L114.524178,60.7363254 L119.786217,60.7363254 C119.803137,60.2287332 119.735458,59.8903384 119.786217,59.6027029 L113.204438,59.6027029 L113.221358,70.5836139 L106.233505,70.5836139 L106.233505,60.7870846 C108.348473,60.7870846 109.803571,60.7870846 111.580143,60.7701649 C111.597063,60.567128 111.580143,59.9072582 111.580143,59.6027029 L104.913766,59.6027029 L104.947605,70.5666942 L103.30639,70.5666942 C103.289471,69.9575836 101.732855,66.5228764 100.176239,62.9358916 C100.176239,62.9358916 100.159319,61.6330716 100.040881,60.8378439 C101.191423,60.8378439 101.089905,60.8209241 103.509427,60.8040044 L103.509427,59.6027029 L99.0426161,59.6027029 L99.0256964,61.2777571 C98.6196226,60.2964122 98.4842647,59.6027029 97.8582343,58.3168026 L121.985783,58.3168026 L121.985783,59.6196226 L121.698148,59.6196226 L121.799666,70.5666942 L121.799666,70.5666942 Z M103.560187,73.2061736 L102.951076,71.3280825 L123.034807,71.3280825 C123.034807,71.3450022 123.068646,72.0217918 123.068646,73.1723341 L103.560187,73.2061736 L103.560187,73.2061736 Z M123.068646,57.4369762 L97.4521606,57.4369762 L97.0460868,56.3202734 L123.068646,56.3202734 L123.068646,57.4369762 L123.068646,57.4369762 Z M96.6400131,54.8144165 C96.5046551,54.4929415 96.1493406,53.8161519 95.7771063,53.3254794 C102.629601,53.2747202 106.318104,53.4100781 113.086,53.4100781 L113.086,52.9194057 L102.477323,47.3358916 C99.110295,48.74023 97.8920738,49.5523775 94.9818786,51.0243948 L94.2712495,49.6708157 C97.5367593,47.9111627 99.6686465,46.659102 103.103354,45.034807 L101.885132,44.3918569 C98.3827462,45.9823124 96.7584512,46.9128981 93.6452191,48.5033536 C93.459102,48.1987983 93.2729849,47.9450022 92.7653927,47.3189718 C96.6738525,45.2886031 98.0443514,44.4426161 101.749774,42.6152842 C108.906824,46.3545467 116.436108,50.296846 123.542399,54.5098612 L123.407041,54.8313363 L96.6400131,54.8313363 L96.6400131,54.8144165 Z" id="Shape"></path>
        </g>
    </g>
</svg>