<?xml version="1.0" encoding="UTF-8"?>
<svg width="174px" height="174px" viewBox="0 0 174 174" version="1.1" xmlns="http://www.w3.org/2000/svg" xmlns:xlink="http://www.w3.org/1999/xlink">
    <!-- Generator: Sketch 41.2 (35397) - http://www.bohemiancoding.com/sketch -->
    <title>Vassar College Seal</title>
    <desc>Created with Sketch.</desc>
    <defs></defs>
    <g id="Symbols" stroke="none" stroke-width="1" fill="none" fill-rule="evenodd" opacity="0.151777627">
        <g id="Header" transform="translate(-130.000000, -13.000000)" fill="#FFFFFF">
            <g id="Auxillary-header">
                <g id="Vassar-College-Seal" transform="translate(130.000000, 13.000000)">
                    <path d="M87.3223274,25.9959534 C120.348358,25.9959534 147.108878,52.756474 147.108878,85.7825044 C147.108878,118.808535 120.348358,145.569055 87.3223274,145.569055 C54.296297,145.569055 27.5357764,118.808535 27.5357764,85.7825044 C27.5357764,52.756474 54.296297,25.9959534 87.3223274,25.9959534 L87.3223274,25.9959534 Z M87.3223274,24.6371681 C79.0752558,24.6371681 71.0546484,26.2601616 63.5247135,29.4495326 C56.2401148,32.5256714 49.7103968,36.9417235 44.0865356,42.5467126 C38.4626744,48.1517018 34.0654944,54.7002918 30.9893556,61.9848905 C27.7999846,69.5148254 26.1769912,77.5354328 26.1769912,85.7825044 C26.1769912,94.029576 27.7999846,102.050183 30.9893556,109.580118 C34.0654944,116.864717 38.4815465,123.394435 44.0865356,129.018296 C49.6915248,134.642157 56.2401148,139.039337 63.5247135,142.115476 C71.0546484,145.304847 79.0752558,146.927841 87.3223274,146.927841 C95.569399,146.927841 103.590006,145.304847 111.119941,142.115476 C118.40454,139.039337 124.934258,134.623285 130.558119,129.018296 C136.18198,123.413307 140.57916,116.864717 143.655299,109.580118 C146.84467,102.050183 148.467664,94.029576 148.467664,85.7825044 C148.467664,77.5354328 146.84467,69.5148254 143.655299,61.9848905 C140.57916,54.7002918 136.163108,48.1705738 130.558119,42.5467126 C124.95313,36.9228514 118.40454,32.5256714 111.119941,29.4495326 C103.590006,26.2601616 95.569399,24.6371681 87.3223274,24.6371681 L87.3223274,24.6371681 Z" id="Shape"></path>
                    <path d="M86.4639011,2.89860826 C132.624856,2.89860826 170.029194,40.3029467 170.029194,86.4639011 C170.029194,132.624856 132.624856,170.029194 86.4639011,170.029194 C40.3029467,170.029194 2.89860826,132.624856 2.89860826,86.4639011 C2.89860826,40.3029467 40.3029467,2.89860826 86.4639011,2.89860826 L86.4639011,2.89860826 Z M86.4639011,1.53982301 C75.0085866,1.53982301 63.8740963,3.78559307 53.4001267,8.22051715 C43.2847254,12.5044651 34.207285,18.6189987 26.4131419,26.4131419 C18.6189987,34.207285 12.4855931,43.2847254 8.22051715,53.4001267 C3.78559307,63.8740963 1.53982301,74.9897145 1.53982301,86.4639011 C1.53982301,97.9192156 3.78559307,109.053706 8.22051715,119.527676 C12.5044651,129.643077 18.6189987,138.720517 26.4131419,146.51466 C34.207285,154.308803 43.2847254,160.442209 53.4001267,164.707285 C63.8740963,169.142209 74.9897145,171.387979 86.4639011,171.387979 C97.9192156,171.387979 109.053706,169.142209 119.527676,164.707285 C129.643077,160.423337 138.720517,154.308803 146.51466,146.51466 C154.308803,138.720517 160.442209,129.643077 164.707285,119.527676 C169.142209,109.053706 171.387979,97.9380877 171.387979,86.4639011 C171.387979,75.0085866 169.142209,63.8740963 164.707285,53.4001267 C160.423337,43.2847254 154.308803,34.207285 146.51466,26.4131419 C138.720517,18.6189987 129.643077,12.4855931 119.527676,8.22051715 C109.053706,3.78559307 97.9192156,1.53982301 86.4639011,1.53982301 L86.4639011,1.53982301 Z" id="Shape"></path>
                    <path d="M86.962256,0.679392625 C134.6141,0.679392625 173.245119,39.3104121 173.245119,86.962256 C173.245119,134.6141 134.6141,173.245119 86.962256,173.245119 C39.3104121,173.245119 0.679392625,134.6141 0.679392625,86.962256 C0.679392625,39.3104121 39.3104121,0.679392625 86.962256,0.679392625 L86.962256,0.679392625 Z M86.962256,0 C75.2238612,0 63.8251627,2.30238612 53.1058568,6.83167028 C42.7639913,11.2099783 33.4600868,17.4754881 25.4772234,25.4772234 C17.4943601,33.4600868 11.2288503,42.7639913 6.83167028,53.1247289 C2.30238612,63.8251627 0,75.2238612 0,86.962256 C0,98.7006508 2.30238612,110.099349 6.83167028,120.818655 C11.2099783,131.160521 17.4754881,140.464425 25.4772234,148.447289 C33.4600868,156.430152 42.7639913,162.695662 53.1247289,167.092842 C63.8440347,171.622126 75.2427332,173.924512 86.981128,173.924512 C98.7195228,173.924512 110.118221,171.622126 120.837527,167.092842 C131.198265,162.714534 140.502169,156.449024 148.485033,148.447289 C156.467896,140.464425 162.733406,131.160521 167.130586,120.799783 C171.65987,110.080477 173.962256,98.6817787 173.962256,86.9433839 C173.962256,75.2049892 171.65987,63.8062907 167.130586,53.0869848 C162.714534,42.7639913 156.449024,33.4600868 148.447289,25.4772234 C140.464425,17.4754881 131.160521,11.2099783 120.818655,6.83167028 C110.099349,2.30238612 98.7006508,0 86.962256,0 L86.962256,0 Z" id="Shape"></path>
                    <path d="M45.9715662,135.928063 C46.1225424,135.437391 46.1414144,135.229799 45.9904383,135.097695 C45.8394621,134.965591 45.5941259,135.041079 45.0090934,135.305287 L32.7422821,141.287716 C31.7609372,141.778389 31.0249285,142.023725 30.2134317,141.457565 C30.0813276,141.363204 29.8359914,141.193356 29.7038873,141.061252 C29.5717832,140.94802 29.4774231,140.929148 29.401935,141.023508 C29.2887029,141.13674 29.364191,141.268844 29.5717832,141.438692 C30.4021519,142.155829 31.3080088,142.872966 31.4778569,143.023942 C31.9685294,143.457998 32.610178,144.099647 33.1197224,144.533703 C33.2895706,144.684679 33.4216747,144.741296 33.5160348,144.628063 C33.5915229,144.533703 33.5726508,144.458215 33.3839307,144.288367 L33.1385944,144.080775 C32.647922,143.646719 32.685666,143.325894 32.9121302,143.061686 C33.0631064,142.891838 33.4594187,142.589886 33.9500912,142.344549 L36.6865337,140.929148 C36.7997658,140.872532 36.8563819,140.872532 36.9318699,140.929148 L40.4609372,144.024159 C40.5364252,144.080775 40.5552973,144.175135 40.5175532,144.269495 L38.9889198,148.572315 C38.9134317,148.817651 38.6869675,148.855395 38.5359914,148.798779 C38.3661432,148.685547 38.2717832,148.647803 38.1962951,148.742163 C38.101935,148.855395 38.2906552,149.025243 38.5548634,149.27058 C39.8004166,150.402901 40.9516096,151.42199 41.5177701,151.931534 C42.1028027,152.441079 42.2726508,152.535439 42.3670109,152.422207 C42.461371,152.308974 42.3858829,152.233486 42.2726508,152.120254 C42.0839307,151.950406 41.8574665,151.723942 41.6687463,151.478606 C41.404538,151.101165 41.1214578,150.497261 41.7253623,148.610059 C42.7633233,145.458432 45.6129979,137.098128 45.9715662,135.928063 L45.9715662,135.928063 Z M42.8576834,138.060601 L41.0270977,143.042814 C41.0082257,143.09943 40.9516096,143.118302 40.8761216,143.061686 L37.9320868,140.495092 C37.8754708,140.438476 37.8943428,140.38186 37.9509589,140.325243 L42.6689632,137.890753 C42.7255793,137.834137 42.8388114,137.796393 42.8765554,137.834137 C42.9331714,137.890753 42.8765554,137.985113 42.8576834,138.060601 L42.8576834,138.060601 Z M74.7702647,163.953009 C74.9778569,163.500081 75.6383775,163.009408 76.4498743,163.386849 C77.1103949,163.688801 77.4123471,164.349322 77.1103949,164.99097 C76.8084426,165.613747 76.110178,165.934571 75.3741693,165.594875 C74.5815445,165.217434 74.5249285,164.462554 74.7702647,163.953009 L74.7702647,163.953009 Z M71.3544296,151.89379 C70.0333884,148.930883 66.7496573,147.68533 64.2962951,146.741729 C63.12623,146.288801 61.8618048,145.873617 61.2579003,145.647152 C60.7106118,145.43956 59.5028027,144.892272 58.4459697,144.495959 C58.1440174,144.382727 57.9930413,144.363855 57.9552973,144.495959 C57.8986812,144.628063 58.0119133,144.703551 58.2195055,144.797912 C58.5025858,144.892272 58.8234101,145.043248 58.9555142,145.137608 C59.5594187,145.515048 59.5971628,145.873617 59.3895706,146.534137 C59.2008504,147.138042 58.9932582,147.666458 57.8986812,150.516133 L56.634256,153.818736 C55.9737354,155.536089 55.4075749,157.008107 54.9923905,157.762987 C54.7093103,158.272532 54.445102,158.649972 54.0299176,158.574484 C53.8411975,158.53674 53.5958612,158.498996 53.293909,158.366892 C53.0485727,158.272532 52.9542127,158.310276 52.9164686,158.404636 C52.8598526,158.53674 52.9730847,158.649972 53.2372929,158.744332 C53.6336053,158.895309 54.1620218,159.065157 54.6149502,159.235005 C55.0867506,159.404853 55.520807,159.574701 55.7472712,159.650189 C56.2379437,159.838909 56.8984643,160.159734 57.634473,160.49943 C58.3516096,160.839126 59.1442344,161.216567 59.842499,161.480775 C63.4847983,162.877304 66.0325207,162.330016 67.2592018,161.801599 C68.7689632,161.159951 70.5051888,159.763421 71.4110456,157.404419 C72.2791584,155.158649 71.9583341,153.252575 71.3544296,151.89379 L71.3544296,151.89379 Z M68.580243,156.913747 C67.8442344,158.838692 66.7874014,160.386198 65.1266639,160.933486 C63.5791584,161.443031 62.0882691,161.310927 60.0878352,160.537174 C58.5403298,159.933269 57.9175532,159.253877 57.8043211,158.800948 C57.728833,158.53674 57.9741693,157.762987 58.1440174,157.291187 C58.2572495,156.932619 58.785666,155.479473 59.5594187,153.497912 L60.4652756,151.138909 C61.0314361,149.666892 61.6542127,148.043899 61.9184209,147.40225 C61.993909,147.194658 62.0882691,147.138042 62.2958612,147.11917 C62.4845814,147.100298 63.2205901,147.326762 63.6169025,147.477738 C65.1455359,148.062771 67.2969458,149.157348 68.4670109,151.497478 C69.0520435,152.610927 69.5049719,154.535873 68.580243,156.913747 L68.580243,156.913747 Z M93.510178,156.951491 C93.4535619,155.875786 93.4158179,155.026545 93.3780738,154.347152 C93.3592018,153.875352 93.3403298,153.630016 93.0383775,153.648888 C92.6420652,153.66776 91.1134317,154.517001 90.6793753,154.724593 C90.5661432,154.762337 90.4717832,154.800081 90.3962951,154.818953 C90.339679,154.818953 90.2264469,154.724593 90.2264469,154.611361 C90.2264469,154.498128 90.320807,154.384896 90.4151671,154.32828 C90.5095272,154.271664 94.3594187,151.572966 95.0576834,151.025677 C95.2464035,150.893573 95.4162517,150.742597 95.5860999,150.742597 C95.77482,150.742597 95.8503081,150.950189 95.8503081,151.138909 C95.8691801,151.289886 95.8314361,153.271447 96.0012842,156.29097 L96.1900044,159.952142 C96.2843645,161.839343 96.3787246,163.537825 96.5108287,164.405938 C96.6051888,165.028714 96.7184209,165.330666 97.3978135,165.425027 C97.7186378,165.462771 98.6056226,165.481643 98.7754708,165.481643 C98.8509589,165.481643 98.964191,165.519387 98.964191,165.670363 C98.964191,165.802467 98.8698309,165.859083 98.6433667,165.859083 C97.0581172,165.934571 95.737076,165.953443 95.1709155,165.991187 C94.680243,166.028931 92.9440174,166.161035 91.6229762,166.236523 C91.37764,166.255395 91.2644079,166.217651 91.2644079,166.085547 C91.2644079,165.934571 91.339896,165.877955 91.415384,165.877955 C91.6418482,165.859083 92.6986812,165.745851 93.0761216,165.651491 C93.7177701,165.481643 93.8310022,165.198562 93.8498743,164.556914 C93.8876183,163.688801 93.8310022,161.990319 93.7177701,160.103118 L93.510178,156.951491 Z M113.533388,157.800732 C112.79738,155.441729 110.230785,154.969929 108.58892,154.705721 C109.551393,153.969712 111.042282,152.27123 110.419505,150.289669 C109.834473,148.440211 107.852911,147.911794 105.437293,148.685547 C102.059202,149.74238 101.342065,152.120254 101.813866,153.592272 C102.32341,155.196393 103.870915,155.838042 105.776989,156.139994 C104.09738,157.479907 102.79521,159.423725 103.455731,161.537391 C104.19174,163.858649 106.663974,164.594658 109.608009,163.669929 C112.929484,162.613096 114.231653,160.02763 113.533388,157.800732 L113.533388,157.800732 Z M103.738811,152.554311 C103.399115,151.497478 103.738811,150.100948 105.456165,149.55366 C106.645102,149.17622 107.909527,149.685764 108.362456,151.120037 C108.96636,153.026111 107.834039,154.196176 107.324495,154.611361 C105.210829,154.215048 104.116252,153.724376 103.738811,152.554311 L103.738811,152.554311 Z M109.475905,162.7452 C107.871783,163.254745 106.173302,162.386632 105.644885,160.707022 C105.040981,158.782076 105.946837,157.215699 106.833822,156.29097 C108.909744,156.706155 110.778074,157.102467 111.381978,158.989669 C111.929267,160.725894 111.02341,162.254528 109.475905,162.7452 L109.475905,162.7452 Z M117.968312,155.102033 C116.099983,151.723942 116.911479,146.534137 120.044234,142.854094 C120.176338,142.703118 120.289571,142.571014 120.383931,142.533269 C120.497163,142.457781 120.629267,142.457781 120.685883,142.571014 C120.761371,142.72199 120.572651,142.986198 120.440547,143.19379 C118.949657,145.515048 117.968312,149.723508 120.251827,153.875352 C121.384148,155.91353 123.497814,157.574267 125.347271,156.555178 C126.611696,155.856914 127.140113,154.384896 126.045536,152.384463 C124.705623,149.968844 122.761805,149.666892 121.553996,150.327413 C121.101067,150.572749 120.893475,150.761469 120.667011,150.969061 C120.534907,151.082293 120.402803,151.233269 120.327315,151.289886 C120.251827,151.32763 120.157466,151.32763 120.081978,151.195525 C120.025362,151.063421 120.063106,150.950189 120.138594,150.818085 C120.478291,150.157565 121.157683,149.440428 122.1579,148.893139 C124.724495,147.477738 126.970265,148.817651 127.819505,150.365157 C129.310395,153.044983 128.178074,155.989018 125.517119,157.442163 C122.724061,158.989669 119.704538,158.25366 117.968312,155.102033 L117.968312,155.102033 Z M131.556165,142.703118 C130.876772,141.872749 130.348356,141.193356 129.933171,140.683812 C129.631219,140.306371 129.480243,140.136523 129.234907,140.325243 C128.914083,140.57058 128.196946,142.155829 127.95161,142.589886 C127.894994,142.684246 127.838378,142.778606 127.781761,142.835222 C127.744017,142.872966 127.593041,142.872966 127.517553,142.778606 C127.442065,142.684246 127.460937,142.552142 127.498681,142.438909 C127.536425,142.363421 129.083931,137.890753 129.329267,137.041512 C129.404755,136.83392 129.461371,136.607456 129.593475,136.494224 C129.744451,136.380992 129.933171,136.513096 130.046404,136.664072 C130.140764,136.796176 131.273085,138.400298 133.19803,140.7593 L135.500417,143.608974 C136.689354,145.080992 137.765059,146.402033 138.368963,147.02481 C138.80302,147.477738 139.0861,147.647586 139.690004,147.345634 C139.973085,147.194658 140.709093,146.685113 140.841197,146.571881 C140.897814,146.515265 141.029918,146.496393 141.105406,146.609625 C141.199766,146.703985 141.14315,146.817217 140.95443,146.949322 C139.727748,147.930666 138.652043,148.723291 138.217987,149.08186 C137.840547,149.383812 136.519505,150.535005 135.481545,151.365374 C135.292824,151.51635 135.179592,151.554094 135.104104,151.440862 C135.009744,151.32763 135.047488,151.233269 135.104104,151.176653 C135.292824,151.025677 136.066577,150.327413 136.311913,150.02546 C136.74597,149.497044 136.65161,149.232836 136.311913,148.685547 C135.821241,147.949538 134.802152,146.609625 133.594343,145.15648 L131.556165,142.703118 Z M9.88826906,96.9007315 C8.69933196,97.429148 8.45399574,97.8254604 8.22753153,98.6558291 C8.15204346,98.9955255 8.13317144,99.3729658 8.13317144,99.542814 C8.13317144,99.7504062 8.07655539,99.8258942 7.94445127,99.8258942 C7.77460311,99.8258942 7.73685908,99.580558 7.7557311,99.2408617 C7.7557311,98.0141806 7.81234715,96.7120114 7.81234715,95.9193866 C7.81234715,95.3532261 7.73685908,94.2397771 7.73685908,93.088584 C7.73685908,92.8055038 7.77460311,92.5601675 7.94445127,92.5601675 C8.09542741,92.5601675 8.13317144,92.6922717 8.13317144,92.8998639 C8.13317144,93.2584322 8.15204346,93.6170005 8.28414758,93.7868487 C8.39737969,93.9378248 8.54835583,94.0133129 8.737076,94.0133129 C9.02015626,94.0133129 9.62406081,93.8057207 10.4166855,93.4848964 L20.3244947,89.5029007 L20.3244947,89.4085406 C17.9277484,88.4271957 10.888486,85.464289 9.43534064,84.9170005 C9.15226038,84.8037684 8.83143609,84.7094083 8.62384389,84.7094083 C8.45399574,84.7094083 8.26527556,84.8037684 8.20865951,85.0113606 C8.11429943,85.2944409 8.09542741,85.6341372 8.09542741,85.9360895 C8.09542741,86.1436816 8.07655539,86.3324018 7.92557925,86.3324018 C7.7557311,86.3324018 7.71798706,86.1248096 7.71798706,85.6907532 C7.71798706,84.5395602 7.77460311,83.5770873 7.77460311,83.275135 C7.77460311,82.8788226 7.69911504,81.8031177 7.69911504,81.123725 C7.69911504,80.8217727 7.73685908,80.6330526 7.88783522,80.6330526 C8.03881136,80.6330526 8.09542741,80.7651567 8.07655539,81.0104929 C8.07655539,81.2369571 8.07655539,81.7276296 8.34076363,82.1239419 C8.52948381,82.4258942 8.90692415,82.7655905 10.3034534,83.3883671 C12.3605033,84.2753519 13.5494404,84.8981285 16.2292669,86.1248096 C19.4186378,87.577955 21.815384,88.6536599 22.909961,89.1632044 C24.1932582,89.748237 24.5329545,89.8992131 24.5329545,90.2011654 C24.5329545,90.5031177 24.2310022,90.6352218 23.1930413,91.0692782 L9.88826906,96.9007315 Z M26.9297007,65.5543107 C26.7787246,65.5354387 26.7409806,65.6297988 26.7032365,65.818519 C26.6466205,66.0827272 26.5711324,66.4224235 26.4390283,66.7432478 C26.2503081,67.1961762 25.8162517,67.8000808 23.7214578,68.2907532 C20.1735185,69.10225 10.7375098,71.0271957 9.43534064,71.34802 C8.90692415,71.4801242 8.68045995,71.5744842 8.64271591,71.7820764 C8.60497188,72.0085406 8.81256407,72.1972608 9.37872459,72.5747012 L21.77764,80.8217727 C22.7589849,81.4822934 23.4195055,82.0484539 23.3440174,83.1052868 C23.3251454,83.294007 23.2874014,83.6148313 23.2496573,83.8224235 C23.2119133,84.0111437 23.2496573,84.1055038 23.3628894,84.1243758 C23.5327376,84.1621198 23.6082257,84.0300157 23.6648417,83.7280634 C23.8913059,82.5579983 24.0611541,81.3124452 24.1177701,81.048237 C24.2498743,80.3499723 24.4952105,79.3874994 24.6461866,78.6703628 C24.6839307,78.4250265 24.6839307,78.2740504 24.4952105,78.2551784 C24.3631064,78.2363064 24.3064903,78.2929224 24.2687463,78.5571307 L24.1932582,78.896827 C24.0611541,79.5950916 23.7403298,79.7460678 23.3628894,79.6705797 C23.0986812,79.6328357 22.6080088,79.4063714 22.1173363,79.0855472 L19.2865337,77.2738335 C19.1733016,77.1983454 19.1355576,77.1417294 19.1544296,77.0284973 L20.1169025,72.0085406 C20.1357745,71.8953085 20.1923905,71.8386925 20.3244947,71.8009485 L25.2123471,70.8762196 C25.4954274,70.8007315 25.6464035,71.0083237 25.6652756,71.1781719 C25.6464035,71.4046361 25.6652756,71.4989962 25.7973797,71.5367402 C25.9483558,71.5744842 26.0049719,71.291404 26.099332,70.8950916 C26.4767723,69.10225 26.7975966,67.4603845 26.9674448,66.6488877 C27.1184209,65.7996469 27.0995489,65.5920547 26.9297007,65.5543107 L26.9297007,65.5543107 Z M18.9468374,72.2350049 L18.1542127,76.3868487 C18.1353406,76.4812088 18.0598526,76.4812088 17.9843645,76.4434647 L13.096512,73.3484539 C13.0210239,73.3107098 12.9077918,73.2352218 12.9266639,73.1786057 C12.9455359,73.1031177 13.039896,73.1031177 13.134256,73.1031177 L18.8336053,72.0840287 C18.9090934,72.0840287 18.9845814,72.1217727 18.9468374,72.2350049 L18.9468374,72.2350049 Z M28.0431498,63.4029007 C27.7411975,63.667109 27.6090934,63.685981 27.193909,63.4783888 C26.099332,62.9499723 24.9670109,62.3083237 24.6650586,62.1384756 C24.3819784,61.9686274 24.1932582,61.7987793 24.2687463,61.6478031 C24.3631064,61.4590829 24.5518265,61.534571 24.7028027,61.6100591 C24.9481389,61.7232912 25.4199393,61.8553953 25.7973797,61.9120114 C27.4769892,62.1573476 28.5904383,61.1948747 29.2132148,59.9115775 C30.1190717,58.0432478 29.3453189,56.5523584 28.307358,56.061686 C27.3448851,55.5898855 26.2880521,55.4766534 24.1743862,56.5712304 L23.0043211,57.175135 C20.2112625,58.6282803 18.4561649,58.7603845 16.8520435,57.9866318 C14.6817615,56.9486708 14.0589849,54.2877163 15.4366422,51.4191697 C16.0782907,50.0792565 16.7010673,49.3055038 17.0973797,48.8337033 C17.2294838,48.6638552 17.3238439,48.5883671 17.47482,48.6638552 C17.7390283,48.7770873 18.2674448,49.1545276 19.7960782,49.8905363 C20.2301346,50.0981285 20.3622387,50.2302326 20.2678786,50.4000808 C20.1923905,50.5510569 20.0602864,50.5510569 19.8149502,50.4378248 C19.645102,50.3434647 18.9845814,50.1547445 18.2674448,50.3434647 C17.7390283,50.4755688 16.8709155,50.7963931 16.2103949,52.1363064 C15.4743862,53.6649398 15.8706986,55.004853 17.0596357,55.5710135 C17.9654925,56.0050699 18.8902213,55.8729658 20.9472712,54.7406448 L21.6455359,54.3632044 C24.6461866,52.7213389 26.4201563,52.4948747 28.307358,53.3818595 C29.439679,53.929148 30.5908721,55.042597 30.7984643,56.9864148 C30.9305684,58.3263281 30.5531281,59.5718812 30.0247116,60.6664582 C29.439679,61.8365233 28.8546465,62.6857641 28.0431498,63.4029007 L28.0431498,63.4029007 Z M34.4218916,50.8530092 C34.0633233,51.0417294 33.9500912,51.0228573 33.5726508,50.7209051 C32.647922,49.9471524 31.7043211,49.0412955 31.4401129,48.7959593 C31.2136487,48.5694951 31.0626725,48.3619029 31.1759046,48.2109268 C31.3080088,48.0599506 31.4778569,48.1731827 31.609961,48.2675428 C31.8364252,48.456263 32.2327376,48.6638552 32.610178,48.8148313 C34.1765554,49.4564799 35.4975966,48.7959593 36.4034534,47.7013823 C37.7244947,46.1161328 37.3470543,44.4931393 36.4600695,43.7382586 C35.6297007,43.058866 34.6483558,42.6814257 32.3270977,43.2287142 L31.0438005,43.5306665 C27.9865337,44.2666751 26.2503081,43.9647229 24.8915229,42.8324018 C23.0420652,41.2848964 23.0609372,38.5673259 25.099115,36.1139636 C26.0615879,34.9627706 26.8353406,34.377738 27.3448851,34.0002977 C27.5147333,33.8681936 27.6279654,33.8304495 27.7600695,33.9248096 C27.9676617,34.1135298 28.4017181,34.5853302 29.7227593,35.6799072 C30.0813276,35.9818595 30.1756877,36.1517077 30.0624556,36.3026838 C29.9680955,36.4347879 29.8171194,36.3970439 29.6095272,36.2271957 C29.4585511,36.0950916 28.8735185,35.7553953 28.1186378,35.7742673 C27.5713493,35.7742673 26.6466205,35.8686274 25.7030196,37.0009485 C24.6084426,38.3031177 24.6839307,39.6996469 25.6841476,40.5488877 C26.4579003,41.1905363 27.3826291,41.2848964 29.6661432,40.6998639 L30.4210239,40.4922717 C33.723627,39.6241589 35.5164686,39.8317511 37.1205901,41.1716643 C38.083063,41.983161 38.9323038,43.3419463 38.6680955,45.2668921 C38.4793753,46.5879333 37.7999827,47.7013823 37.02623,48.6449832 C36.1392452,49.6640721 35.3654925,50.3434647 34.4218916,50.8530092 L34.4218916,50.8530092 Z M56.0680955,30.7354387 C55.9737354,30.6222066 55.8605033,30.6599506 55.7283992,30.7731827 C55.501935,30.9430309 55.2188547,31.1317511 54.9169025,31.2827272 C54.463974,31.4903194 53.7468374,31.6412955 51.8596357,30.6033346 C48.6702647,28.848237 40.3665771,23.9603845 39.196512,23.3376079 C38.7058396,23.0733996 38.4793753,22.9979116 38.3095272,23.1300157 C38.120807,23.2621198 38.1585511,23.5452001 38.3283992,24.2057207 L42.0461866,38.6239419 C42.3481389,39.775135 42.442499,40.6243758 41.6876183,41.3792565 C41.5555142,41.5113606 41.310178,41.7189528 41.1403298,41.8510569 C40.9893537,41.964289 40.9516096,42.0397771 41.0270977,42.1530092 C41.1403298,42.2851133 41.2724339,42.2473693 41.5177701,42.0586491 C42.461371,41.3415124 43.4238439,40.5300157 43.6314361,40.3790396 C44.1975966,39.9449832 45.0279654,39.3976947 45.6129979,38.9636383 C45.8205901,38.8126621 45.8960782,38.69943 45.8017181,38.5484539 C45.72623,38.4352218 45.6318699,38.4540938 45.4242777,38.6239419 L45.1411975,38.8315341 C44.575037,39.2655905 44.2353406,39.1712304 44.0088764,38.8504062 C43.8579003,38.642814 43.6314361,38.1521415 43.4804599,37.585981 L42.5746031,34.339994 C42.5368591,34.2078899 42.5368591,34.1512738 42.6312192,34.0757858 L46.7075749,30.9807749 C46.801935,30.9052868 46.8774231,30.9052868 46.9906552,30.9619029 L51.2557311,33.5473693 C51.5010673,33.6983454 51.5010673,33.9436816 51.4067072,34.0757858 C51.2368591,34.2267619 51.180243,34.321122 51.2746031,34.4343541 C51.3689632,34.5664582 51.5954274,34.3966101 51.9351237,34.1512738 C53.4260131,33.0755688 54.7659263,32.0564799 55.4264469,31.5658075 C56.0303515,31.037391 56.1813276,30.8864148 56.0680955,30.7354387 L56.0680955,30.7354387 Z M45.688486,30.3768704 L42.3292669,32.9245927 C42.2537788,32.9812088 42.1971628,32.9434647 42.1594187,32.8679767 L40.5930413,27.3007315 C40.5552973,27.2252435 40.5364252,27.0931393 40.5930413,27.0553953 C40.6496573,27.0176513 40.7251454,27.0931393 40.8006335,27.1497554 L45.707358,30.2070222 C45.745102,30.2447662 45.7828461,30.3013823 45.688486,30.3768704 L45.688486,30.3768704 Z M74.9589849,23.1111437 C74.9212409,23.0167836 74.8080088,22.9790396 74.6381606,23.0545276 C74.4683124,23.1300157 74.2607203,23.1677597 74.015384,23.2243758 C73.6756877,23.2809918 72.7320868,23.488584 71.0902213,22.7714474 C69.3351237,21.9976947 67.1648417,20.7521415 64.3717832,19.2046361 C65.9004166,16.6946578 66.0136487,15.0527923 65.4474881,13.5430309 C64.9190717,12.1842456 63.6546465,11.467109 62.9186378,11.3161328 C61.4654925,11.0141806 59.9934751,11.4293649 58.6346899,11.9577814 C57.9741693,12.2219897 56.3700478,12.9013823 55.6340391,13.1844626 C55.1811107,13.3543107 53.8034534,13.8072391 52.6900044,14.2601675 C52.3691801,14.3922717 52.237076,14.4866318 52.2936921,14.6187359 C52.3503081,14.769712 52.5012842,14.75084 52.7277484,14.6564799 C53.0297007,14.5432478 53.4071411,14.4111437 53.5958612,14.3922717 C54.3507419,14.2601675 54.6526942,14.5243758 54.9546465,15.2037684 C55.2565988,15.845417 55.464191,16.4115775 56.6720001,19.5065884 L58.0496573,23.0922717 C58.766794,24.9606014 59.3895706,26.5835949 59.6160348,27.4705797 C59.7481389,28.0933563 59.823627,28.5840287 59.4273146,28.8293649 C59.2574665,28.942597 59.0121302,29.0935732 58.6913059,29.2068053 C58.4270977,29.3011654 58.3704816,29.3955255 58.4082257,29.5087576 C58.4648417,29.6597337 58.6346899,29.6597337 58.9177701,29.5465016 C59.7670109,29.2256773 61.1069242,28.6406448 61.5032365,28.4707966 C61.8240608,28.3575645 63.4281823,27.810276 64.6737354,27.3196036 C64.9568157,27.2063714 65.0889198,27.0931393 65.0323038,26.9421632 C64.9945597,26.8478031 64.8813276,26.8100591 64.7114795,26.8855472 C64.4472712,26.9799072 63.9754708,27.1308834 63.6357745,27.2063714 C62.9752539,27.3762196 62.6544296,26.9799072 62.3713493,26.4137467 C61.9372929,25.60225 61.3145163,23.9792565 60.5785077,22.0920547 L60.4652756,21.8089745 C60.4086595,21.6768704 60.4652756,21.6202543 60.5785077,21.5825103 L62.4468374,20.9031177 C62.5978135,20.8465016 62.7299176,20.8087576 62.8808938,20.9031177 C63.2772062,21.1107098 64.8058396,22.1109268 66.0891367,22.9035515 C67.9008504,24.0170005 69.0709155,24.6586491 70.1843645,24.7718812 C70.8448851,24.8473693 71.4299176,24.7341372 72.6188547,24.2812088 L74.6570326,23.488584 C74.8834968,23.3753519 75.0156009,23.2809918 74.9589849,23.1111437 L74.9589849,23.1111437 Z M63.2205901,19.072532 C62.9375098,19.4877163 62.6921736,19.6764365 61.8240608,19.9972608 C61.2956443,20.204853 60.6162517,20.3935732 60.1255793,20.4313172 C59.9557311,20.4313172 59.880243,20.3558291 59.7858829,20.1293649 L57.3891367,13.9393432 C57.3325207,13.7694951 57.3325207,13.675135 57.4646248,13.5807749 C57.653345,13.4297988 58.0307853,13.2599506 58.5780738,13.0523584 C59.842499,12.561686 62.1826291,12.618302 63.2960782,15.5245927 C63.9377268,17.2042022 63.6923905,18.3742673 63.2205901,19.072532 L63.2205901,19.072532 Z M86.3954274,20.5634213 C84.2440174,18.5818595 83.772217,16.1096252 83.8854491,13.9770873 C83.9609372,12.4861979 84.5837137,9.93847557 86.8672278,8.1267619 C88.5845814,6.76797665 90.8114795,6.01309596 94.2461866,6.18294411 C95.6615879,6.25843218 96.5108287,6.39053631 97.5487897,6.57925648 C98.4169025,6.73023262 99.1340391,6.95669683 99.8323038,7.06992893 C100.07764,7.10767296 100.172,7.22090507 100.172,7.35300919 C100.172,7.52285735 100.07764,7.78706559 100.002152,8.54194628 C99.9266639,9.25908294 99.8889198,10.4668921 99.8134317,10.9009485 C99.7756877,11.2217727 99.7190717,11.4104929 99.5114795,11.3916209 C99.3227593,11.3916209 99.2850153,11.2029007 99.3038873,10.9009485 C99.3227593,10.2215558 99.0585511,9.44780312 98.5112625,8.84389856 C97.7941259,8.05127383 96.0390283,7.35300919 93.9253623,7.2586491 C91.9249285,7.16428902 90.6038873,7.5794734 89.5470543,8.39097014 C87.7919567,9.76862741 87.2635402,11.8256773 87.1503081,13.9393432 C86.8860999,19.129148 90.9058396,21.9222066 93.9819784,22.0731827 C96.0201563,22.1864148 97.2657094,22.0165667 98.2281823,21.0729658 C98.6433667,20.6766534 98.983063,20.0538769 99.0774231,19.6764365 C99.1717832,19.3367402 99.2095272,19.2423801 99.3982474,19.2612521 C99.5680955,19.2801242 99.5869675,19.4311003 99.5869675,19.6009485 C99.5680955,19.8651567 99.2095272,21.7523584 98.9453189,22.4883671 C98.8132148,22.8469354 98.7188547,22.9601675 98.3036704,23.0922717 C97.3789415,23.3942239 95.6238439,23.45084 94.1518265,23.3942239 C91.0001996,23.1866318 88.3958612,22.394007 86.3954274,20.5634213 L86.3954274,20.5634213 Z M117.251176,11.6935732 C110.891306,9.03261873 106.62623,12.4673259 105.191957,15.9209051 C103.701067,19.4877163 104.323844,24.8473693 110.400633,27.4139636 C115.779158,29.6786057 120.685883,27.4517077 122.629701,22.8280634 C124.573519,18.2232912 122.516469,13.9204712 117.251176,11.6935732 L117.251176,11.6935732 Z M119.364842,22.337391 C116.911479,28.1688443 113.193692,27.3950916 111.721675,26.772315 C107.664191,25.0738335 106.62623,20.7143975 108.381328,16.5248096 C110.476122,11.504853 113.797597,11.3727489 116.232087,12.4107098 C119.704538,13.8638552 121.252043,17.8081068 119.364842,22.337391 L119.364842,22.337391 Z M128.914083,30.1126621 C127.215601,32.3395602 126.309744,33.5473693 126.46072,34.1512738 C126.573952,34.6419463 126.970265,35.1326187 128.385666,36.2083237 C129.348139,36.9443324 130.084148,37.4538769 130.895644,37.3406448 C131.273085,37.2840287 131.876989,36.9632044 132.160069,36.6612521 C132.292174,36.510276 132.424278,36.4347879 132.556382,36.54802 C132.669614,36.6423801 132.63187,36.7556122 132.480894,36.9632044 C132.329918,37.1519246 131.216469,38.3597337 130.688052,38.7560461 C130.29174,39.0579983 130.140764,39.0768704 129.178291,38.3597337 C127.85725,37.3595168 126.932521,36.6046361 126.121024,35.9629875 C125.309527,35.3024669 124.667879,34.7929224 123.93187,34.2267619 C123.724278,34.0757858 123.327965,33.7738335 122.875037,33.4530092 C122.459853,33.1321849 121.950308,32.8113606 121.59174,32.5282803 C121.365276,32.3395602 121.270915,32.207456 121.365276,32.0753519 C121.440764,31.9809918 121.535124,31.9998639 121.761588,32.15084 C122.025796,32.3584322 122.271132,32.4905363 122.459853,32.5848964 C122.875037,32.7924886 123.271349,32.4716643 123.724278,32.0376079 C124.365926,31.3770873 125.403887,29.99943 126.630568,28.3953085 L128.951827,25.3380417 C130.95226,22.6959593 131.329701,22.2052868 131.726013,21.6202543 C132.122325,20.9974777 132.197814,20.6011654 131.688269,20.0350049 C131.575037,19.8840287 131.367445,19.7141806 131.122109,19.5254604 C130.914516,19.3744842 130.839028,19.2423801 130.933388,19.129148 C131.027748,19.0159159 131.178725,19.072532 131.442933,19.2801242 C132.311046,19.9217727 133.424495,20.8653736 133.915167,21.242814 C134.368096,21.5825103 135.726881,22.5261111 136.444017,23.0733996 C136.689354,23.2621198 136.802586,23.3942239 136.708226,23.5263281 C136.613866,23.6395602 136.481761,23.6018161 136.274169,23.431968 C136.066577,23.2809918 135.764625,23.0733996 135.519289,22.9412955 C134.953128,22.6582153 134.575688,22.8469354 134.085015,23.431968 C133.632087,23.9603845 133.254646,24.4510569 131.254213,27.0931393 L128.914083,30.1126621 Z M141.463974,42.0775211 C139.312564,43.8703628 138.142499,44.8328357 138.161371,45.4556122 C138.161371,45.9651567 138.425579,46.5124452 139.5579,47.9089745 C140.331653,48.8525754 140.916686,49.513096 141.747054,49.588584 C142.143367,49.6263281 142.785015,49.4376079 143.143584,49.2111437 C143.313432,49.0979116 143.445536,49.0601675 143.558768,49.1922717 C143.672,49.3055038 143.596512,49.3998639 143.38892,49.569712 C143.2002,49.7206881 141.841414,50.645417 141.23751,50.9096252 C140.784581,51.0983454 140.614733,51.0983454 139.859853,50.1736166 C138.80302,48.9091914 138.067011,47.9467185 137.425362,47.1352218 C136.802586,46.323725 136.293041,45.6632044 135.689137,44.9460678 C135.519289,44.7573476 135.217336,44.3610352 134.839896,43.9458508 C134.5002,43.5306665 134.085015,43.0966101 133.801935,42.7569137 C133.613215,42.5304495 133.556599,42.3606014 133.669831,42.2662413 C133.764191,42.2096252 133.858551,42.2284973 134.047271,42.4360895 C134.273735,42.7002977 134.481328,42.8890179 134.632304,43.021122 C134.990872,43.3230743 135.443801,43.0966101 135.991089,42.7569137 C136.783714,42.2662413 138.104755,41.1527923 139.65226,39.8694951 L142.615167,37.4161328 C145.162889,35.3024669 145.63469,34.9061545 146.144234,34.4154821 C146.691523,33.9059376 146.842499,33.5473693 146.483931,32.8679767 C146.408443,32.6981285 146.238594,32.4716643 146.049874,32.2452001 C145.880026,32.0564799 145.842282,31.9055038 145.955514,31.8111437 C146.068746,31.7167836 146.20085,31.8111437 146.427315,32.0753519 C147.125579,32.9057207 147.993692,34.0569137 148.390004,34.5287142 C148.748573,34.9438986 149.862022,36.2083237 150.428182,36.8877163 C150.635774,37.1330526 150.692391,37.2840287 150.59803,37.3783888 C150.484798,37.4727489 150.352694,37.3972608 150.182846,37.1896686 C150.03187,37.0009485 149.767662,36.7367402 149.560069,36.54802 C149.088269,36.1328357 148.673085,36.2460678 148.06918,36.6989962 C147.50302,37.1141806 147.031219,37.4916209 144.464625,39.6241589 L141.463974,42.0775211 Z M152.504104,50.7209051 C155.467011,49.1922717 155.995427,48.9091914 156.599332,48.5506231 C157.240981,48.1731827 157.467445,47.8523584 157.240981,47.0974777 C157.203237,46.9087576 157.05226,46.5501892 156.901284,46.267109 C156.788052,46.0406448 156.76918,45.9085406 156.901284,45.8330526 C157.033388,45.7575645 157.165492,45.8896686 157.316469,46.1916209 C157.599549,46.7389094 157.882629,47.342814 158.146837,47.8523584 C158.392174,48.3996469 158.618638,48.8714474 158.769614,49.1545276 C159.10931,49.8150482 161.204104,53.872532 161.411696,54.2499723 C161.657033,54.6274127 161.864625,54.9293649 161.977857,55.0614691 C162.053345,55.1558291 162.166577,55.2501892 162.223193,55.3445493 C162.279809,55.4389094 162.204321,55.5143975 162.109961,55.5521415 C161.977857,55.6276296 161.694777,55.6465016 160.770048,56.042814 C160.562456,56.118302 159.694343,56.5146144 159.430135,56.6089745 C159.316902,56.6467185 159.184798,56.6655905 159.10931,56.5146144 C159.033822,56.3636383 159.10931,56.2881502 159.29803,56.1937901 C159.430135,56.118302 159.750959,55.9295819 159.939679,55.7031177 C160.203887,55.3822934 160.335991,55.0614691 159.920807,53.9668921 C159.769831,53.5894517 158.712998,51.4380417 158.505406,51.0228573 C158.44879,50.9284973 158.373302,50.9096252 158.241197,50.9851133 L153.315601,53.5139636 C153.183497,53.5894517 153.108009,53.6460678 153.183497,53.7592999 C153.409961,54.2122283 154.61777,56.5523584 154.90085,57.0052868 C155.183931,57.4770873 155.410395,57.7601675 155.693475,57.8356556 C155.919939,57.8922717 156.052043,57.9300157 156.10866,58.0243758 C156.146404,58.0998639 156.146404,58.1942239 156.033171,58.25084 C155.919939,58.307456 155.561371,58.4018161 154.52341,58.8170005 C154.127098,59.0057207 153.315601,59.345417 153.183497,59.4020331 C153.032521,59.4775211 152.806056,59.5907532 152.711696,59.4209051 C152.636208,59.2699289 152.692824,59.1944409 152.787184,59.1378248 C152.975905,59.0245927 153.221241,58.8924886 153.447705,58.6848964 C153.787401,58.3829441 153.919505,57.9488877 153.617553,57.156263 C153.447705,56.7410786 152.428616,54.7217727 152.18328,54.2311003 C152.126664,54.1367402 152.032304,54.1556122 151.937944,54.2122283 L150.40931,55.004853 C149.74879,55.3445493 147.955948,56.2504062 147.389787,56.5523584 C146.068746,57.2883671 145.955514,57.7601675 147.031219,59.8360895 C147.295427,60.3645059 147.748356,61.2137467 148.239028,61.6289311 C148.748573,62.0441155 149.276989,62.0818595 150.145102,61.8176513 C150.371566,61.7421632 150.484798,61.7421632 150.541414,61.8931393 C150.616902,62.0629875 150.465926,62.1384756 150.277206,62.2328357 C149.824278,62.4592999 148.427748,62.9877163 147.993692,63.0820764 C147.40866,63.1953085 147.314299,63.0254604 146.917987,62.2517077 C146.125362,60.7230743 145.596946,59.5718812 145.162889,58.6848964 C144.747705,57.7790396 144.445753,57.137391 144.124928,56.5334864 C144.011696,56.3070222 143.785232,55.8540938 143.502152,55.3822934 C143.256816,54.9104929 142.954863,54.4009485 142.747271,54.0046361 C142.615167,53.7404278 142.596295,53.5705797 142.747271,53.4950916 C142.841631,53.4384756 142.935991,53.4950916 143.068096,53.7404278 C143.219072,54.0423801 143.38892,54.2688443 143.521024,54.4386925 C143.804104,54.7972608 144.294777,54.6840287 144.898681,54.4764365 C145.766794,54.1556122 147.295427,53.3629875 149.088269,52.4382586 L152.504104,50.7209051 Z M152.843801,81.0104929 C152.258768,81.085981 152.221024,81.085981 152.032304,80.8217727 C151.069831,79.4629875 150.522542,77.2738335 150.258334,75.4998639 C149.446837,69.9326187 151.239679,64.6484539 157.203237,63.7803411 C160.656816,63.2707966 163.355514,64.79943 164.846404,66.7055038 C166.431653,68.7059376 166.865709,70.7063714 167.14879,72.6124452 C167.375254,74.1788226 167.412998,76.2170005 167.375254,76.6888009 C167.356382,77.1794734 167.33751,77.9909701 167.394126,78.5193866 C167.412998,78.8024669 167.33751,78.8590829 167.186534,78.877955 C166.941197,78.915699 166.318421,78.8402109 163.619722,79.2365233 C163.280026,79.2931393 163.166794,79.2365233 163.12905,79.0478031 C163.110178,78.896827 163.204538,78.8213389 163.374386,78.7835949 C163.865059,78.6514908 164.544451,78.4250265 165.072868,77.7456339 C165.6579,76.9718812 166.393909,75.0091914 166.016469,72.442597 C165.827748,71.1970439 165.506924,69.5363064 164.016035,68.1397771 C162.808226,67.007456 161.072,66.4412955 158.411046,66.8187359 C153.749657,67.4981285 150.730135,71.1215558 151.428399,75.8961762 C151.522759,76.4812088 151.635991,77.2738335 151.937944,77.80225 C152.145536,78.1230743 152.428616,78.1608183 152.806056,78.1230743 L154.844234,77.821122 C155.919939,77.6701458 156.750308,77.5380417 157.391957,77.4248096 C158.127965,77.2927055 158.44879,77.0473693 158.486534,76.2736166 C158.505406,76.0848964 158.467662,75.688584 158.429918,75.3866318 C158.392174,75.1790396 158.429918,75.0469354 158.54315,75.0280634 C158.712998,75.0091914 158.788486,75.1601675 158.82623,75.4809918 C158.996078,76.6510569 159.147054,78.1042022 159.241414,78.7835949 C159.335774,79.4818595 159.581111,80.6707966 159.694343,81.4256773 C159.732087,81.7276296 159.713215,81.8974777 159.543367,81.9163498 C159.411263,81.9352218 159.354646,81.8031177 159.335774,81.6521415 C159.316902,81.4634213 159.260286,81.3124452 159.184798,81.048237 C158.977206,80.4443324 158.580894,80.2744842 157.826013,80.3688443 C157.165492,80.4443324 156.29738,80.5575645 155.221675,80.7274127 L152.843801,81.0104929 Z M162.034473,87.0117944 C165.355948,87.0872825 165.978725,87.1061545 166.676989,87.0684105 C167.412998,87.0495385 167.771566,86.8796903 167.941414,86.1248096 C167.99803,85.9360895 168.016902,85.5586491 168.035774,85.2378248 C168.035774,84.9924886 168.092391,84.8415124 168.243367,84.8603845 C168.394343,84.8603845 168.432087,85.0302326 168.432087,85.3699289 C168.413215,85.9927055 168.375471,86.6532261 168.375471,87.2193866 C168.337727,87.8232912 168.299983,88.3328357 168.299983,88.672532 C168.281111,89.4085406 168.167879,93.9755688 168.186751,94.4096252 C168.205623,94.8436816 168.243367,95.20225 168.299983,95.3909701 C168.318855,95.5042022 168.375471,95.6551784 168.375471,95.7495385 C168.375471,95.8627706 168.281111,95.8816426 168.186751,95.8816426 C168.035774,95.8816426 167.771566,95.7684105 166.771349,95.6740504 C166.544885,95.6363064 165.601284,95.5608183 165.337076,95.5230743 C165.242716,95.4853302 165.09174,95.4475862 165.09174,95.277738 C165.110612,95.1078899 165.204972,95.0701458 165.393692,95.0701458 C165.544668,95.0701458 165.922109,95.0512738 166.186317,94.9569137 C166.582629,94.8059376 166.846837,94.5794734 167.016686,93.4471524 C167.05443,93.069712 167.167662,90.6540938 167.167662,90.1822934 C167.167662,90.0690613 167.111046,90.0124452 166.960069,90.0124452 L161.430568,89.8803411 C161.279592,89.8803411 161.185232,89.8992131 161.185232,90.0313172 C161.185232,90.5408617 161.109744,93.1640721 161.147488,93.6924886 C161.185232,94.2397771 161.241848,94.5983454 161.44944,94.8059376 C161.619289,94.9757858 161.732521,95.0701458 161.732521,95.183378 C161.732521,95.277738 161.694777,95.3532261 161.562673,95.3343541 C161.430568,95.3154821 161.072,95.221122 159.958551,95.1078899 C159.524495,95.0701458 158.656382,94.9946578 158.486534,94.9757858 C158.316686,94.9757858 158.071349,94.9757858 158.090221,94.7681936 C158.090221,94.5983454 158.165709,94.5606014 158.278942,94.5606014 C158.505406,94.5417294 158.788486,94.5417294 159.071566,94.4851133 C159.505623,94.3907532 159.845319,94.0699289 159.958551,93.2206881 C160.015167,92.7866318 160.090655,90.5031177 160.090655,89.9558291 C160.090655,89.842597 160.015167,89.823725 159.883063,89.804853 L158.165709,89.767109 C157.429701,89.748237 155.410395,89.6727489 154.768746,89.6916209 C153.258985,89.6916209 152.919289,90.0501892 152.862673,92.3903194 C152.843801,92.9942239 152.824928,93.9566968 153.070265,94.5417294 C153.315601,95.1456339 153.768529,95.4287142 154.655514,95.6174344 C154.90085,95.6551784 154.976338,95.7117944 154.976338,95.8627706 C154.976338,96.0514908 154.80649,96.0514908 154.580026,96.0514908 C154.089354,96.0326187 152.598464,95.8250265 152.164408,95.6929224 C151.598247,95.5230743 151.598247,95.3154821 151.617119,94.4473693 C151.654863,92.7300157 151.730351,91.4655905 151.786968,90.4653736 C151.862456,89.4840287 151.9002,88.7668921 151.9002,88.0874994 C151.9002,87.8421632 151.919072,87.3326187 151.919072,86.7853302 C151.937944,86.2569137 151.9002,85.6718812 151.919072,85.2000808 C151.937944,84.9170005 151.99456,84.7471524 152.145536,84.7471524 C152.258768,84.7471524 152.315384,84.8415124 152.315384,85.1245927 C152.315384,85.464289 152.353128,85.7473693 152.390872,85.9360895 C152.46636,86.4078899 152.938161,86.521122 153.579809,86.6343541 C154.504538,86.7664582 156.221892,86.8042022 158.222325,86.8608183 L162.034473,87.0117944 Z M45.6507419,153.384679 C45.8583341,152.931751 46.5188547,152.441079 47.3303515,152.818519 C47.9908721,153.120471 48.2928244,153.780992 47.9908721,154.42264 C47.6889198,155.045417 46.9906552,155.366241 46.2546465,155.026545 C45.4620218,154.649105 45.4054057,153.894224 45.6507419,153.384679 L45.6507419,153.384679 Z M26.4563905,117.810927 L24.7984838,121.534376 L21.0746573,119.876847 L22.7325641,116.15302 L26.4563905,117.810927 Z M152.713584,116.127543 L154.37149,119.851369 L150.647664,121.509276 L148.989946,117.78545 L152.713584,116.127543 Z" id="Shape"></path>
                    <path d="M88.6356862,42.73894 C89.484927,41.2857946 87.4278771,38.7569443 88.8055343,36.9263586 C89.8057513,36.7376385 91.1645365,36.8131265 92.1647534,37.284927 L92.2024975,36.7942545 C91.5797209,35.8883977 90.3719118,36.4734302 89.4283109,36.28471 C86.8617165,37.3981591 88.5979421,40.3233218 88.0695257,42.2671395 C87.5977252,42.720068 87.1825408,41.8896992 86.7673565,42.3803716 C87.0693087,42.5124758 87.9185495,42.9087881 88.6356862,42.73894 L88.6356862,42.73894 Z M112.036988,135.570393 C104.733517,133.645448 101.317682,141.666055 95.8259248,143.534385 C90.9758163,144.79881 84.0120419,143.251304 80.9547751,140.061933 C80.2942545,139.873213 79.1996775,139.722237 78.5957729,140.250654 C79.3129096,141.496207 81.3322155,142.722888 82.5588966,143.326792 C82.6910007,144.251521 81.7662719,144.836554 80.5773348,145.232866 C82.5211526,145.421586 84.4838424,145.534818 86.4654042,145.534818 C92.5044497,145.534818 98.3170311,144.628962 103.808788,142.93048 C103.412476,141.835903 103.959764,140.326142 104.676901,139.722237 C106.111174,138.571044 107.56432,135.249569 109.847834,137.117899 C110.319634,137.533083 109.338289,138.552172 108.809873,138.929612 C108.564537,139.099461 108.168224,139.344797 107.979504,139.476901 C108.904233,140.40163 110.338506,139.476901 111.451955,138.948484 C112.376684,138.420068 113.395773,137.646315 113.471261,136.929179 C113.414645,136.419634 112.603148,135.664753 112.036988,135.570393 L112.036988,135.570393 Z M88.7866623,38.417248 L89.8057513,39.0777686 C90.63612,39.2664888 91.3532567,38.8513044 91.9005452,38.5870962 C91.2211526,37.4925191 89.3150788,37.5680072 88.7866623,38.417248 L88.7866623,38.417248 Z M84.9933868,44.1920853 L85.7105235,44.5883977 C86.3710441,45.0790701 88.1261417,45.1545582 88.8055343,44.0977252 C88.1638857,43.6447968 85.6539074,43.4560766 84.9933868,44.1920853 L84.9933868,44.1920853 Z M76.2367708,139.118333 C78.0484844,136.608354 81.5586797,134.721153 82.7287447,131.928094 C83.1439291,123.605534 81.5586797,116.283192 80.2376385,108.375816 C80.1055343,113.018333 81.8417599,124.586879 80.7094389,129.002931 C80.4829747,133.305751 74.5760332,137.853907 74.8591135,140.363886 C75.0667057,141.647183 77.2747317,142.326576 78.2372046,142.817248 C77.614428,142.005751 75.7460983,140.628094 76.2367708,139.118333 L76.2367708,139.118333 Z M71.3866623,137.250003 C68.1784194,137.117899 64.9513044,139.741109 61.7241894,140.080805 C64.0454476,141.15651 66.4421938,142.100111 68.9333001,142.873864 C69.2352523,140.797942 74.274081,139.552389 71.3866623,137.250003 L71.3866623,137.250003 Z M85.5029313,38.5304801 C85.6539074,38.0209356 84.6725625,37.4925191 84.0309139,37.4925191 C83.2382892,37.4925191 82.6721287,38.0209356 82.1059682,38.5304801 C83.1628011,38.3417599 84.4460983,39.3797209 85.5029313,38.5304801 L85.5029313,38.5304801 Z M53.7035821,112.791868 C53.5148619,118.434602 54.6094389,125.417248 50.6840593,128.05933 C48.9855777,129.323756 47.7400246,129.946532 46.7586797,130.059764 C48.4194172,131.588398 50.1745148,133.022671 51.9862285,134.343712 C54.6094389,127.946098 55.4398077,120.000979 54.0055343,113.074949 L53.7035821,112.791868 L53.7035821,112.791868 Z M77.7465322,98.184927 C74.7270094,99.6003283 73.2738641,102.053691 71.6131265,104.318333 C69.7825408,108.50792 72.5755994,112.33894 72.9719118,116.396424 C73.1417599,118.849786 73.2927361,121.303148 74.330697,123.47343 C74.8024975,115.169743 71.6886146,104.846749 77.7465322,98.184927 L77.7465322,98.184927 Z M105.88471,118.377986 C103.7333,117.340025 105.450654,114.924406 104.469309,113.320285 C103.45022,115.226359 103.35586,117.547617 103.223756,119.831131 C103.072779,120.75586 103.563452,121.435252 104.469309,121.548484 C106.903799,119.982107 108.847617,117.792953 109.961066,115.566055 C108.658897,116.679504 107.677552,118.472346 105.88471,118.377986 L105.88471,118.377986 Z M89.3150788,27.7356862 C90.9569443,28.0753825 92.2779855,28.603799 92.3534736,29.0567274 L91.5042328,29.698376 C92.8630181,29.8116081 93.2782024,29.7738641 93.8066189,30.8684411 C93.6178988,30.9439291 93.6556428,31.2081374 93.6556428,31.3591135 C93.5801547,31.1515213 93.5990267,31.6799378 93.5235387,31.906402 C94.3350354,32.4914345 95.3541244,33.1519552 95.3541244,34.2087881 C95.1654042,35.9261417 97.5810224,38.7003283 95.3541244,39.455209 C95.7881808,40.4176818 95.3352523,41.9085712 94.7124758,42.8521721 C94.4671395,43.2107404 93.2027144,44.1543413 92.6742979,44.0788532 C93.1460983,42.6823239 93.1838424,39.1532567 94.2595473,37.6434953 C93.0706103,36.6810224 93.9953391,34.5107404 93.3536905,34.057812 C91.5608489,32.1328662 89.3528228,31.3968575 87.8053174,29.0755994 C87.0315647,31.944146 83.9176818,30.774081 81.5020636,33.5671395 C82.0870962,33.7369877 81.8606319,34.7749486 81.2567274,35.190133 C80.2187664,36.3035821 80.6905669,37.6623673 79.1241894,38.2285278 C79.9168142,38.7192003 79.5771178,39.8137773 79.5771178,40.4931699 C79.5582458,40.9838424 79.1053174,41.0027144 78.9165972,41.663235 L78.8033651,41.5311309 L78.4636688,42.3426276 C76.7651873,41.0404584 79.0675734,39.6628011 78.3504367,38.2096558 C77.9541244,38.5493521 77.8975083,39.3797209 77.2369877,39.3797209 C76.7085712,38.2096558 77.4257079,37.1528228 77.8975083,36.19035 C78.0862285,35.6996775 78.7467491,35.8506536 78.690133,35.2278771 L78.3693087,34.8881808 C78.2938207,35.5864454 77.7654042,34.9636688 77.576684,34.6805886 C77.6521721,32.944363 79.5582458,32.944363 80.4263586,31.906402 C80.0866623,31.2836254 79.5771178,32.3970745 79.5016298,31.5667057 C79.3695257,30.792953 80.1621504,30.1890484 80.879287,29.9059682 C81.2755994,29.9059682 81.6530398,29.9814562 81.8606319,29.5473998 C81.0302632,28.1886146 83.4081374,28.4905669 84.1818901,27.7168142 C52.7977252,28.9246233 27.7168142,54.8170311 27.7168142,86.5975083 C27.7168142,102.450003 33.9634519,116.849352 44.1165972,127.436554 C44.2298293,125.417248 46.4189834,123.341326 48.0042328,120.359547 C48.9667057,118.132649 49.8159465,114.811174 49.9669226,112.584276 C48.6270094,115.037638 48.192953,117.415513 45.6263586,120.378419 C45.6263586,120.378419 44.5883977,121.925925 42.814428,121.661717 C42.6634519,121.623973 39.7949053,120.963452 44.0033651,115.415079 C50.2122588,107.639808 51.0426276,95.5617165 61.6864454,91.711825 C61.8374215,91.655209 62.0072697,91.7873131 61.9883977,91.9571612 L61.6487014,93.9575951 C61.6109573,94.1651873 61.7619335,94.3350354 61.9695257,94.3539074 L77.0671395,95.2031482 L77.53894,95.1465322 L76.9727795,96.7317816 C79.0675734,95.6749486 80.1432784,91.8061851 82.1059682,90.1643196 C83.2760332,89.2395907 84.7103066,89.1263586 85.6916515,87.8241894 C87.333517,88.6734302 88.8244064,90.1077035 90.7493521,89.8434953 C93.2027144,87.352389 95.5805886,89.3150788 98.4302632,88.7300463 C101.128962,92.3723456 100.109873,97.8829747 98.0905669,101.449786 C99.2040159,102.261283 99.354992,103.676684 99.0152957,104.922237 C98.3736471,106.941543 97.4677903,109.017465 95.7693087,110.65933 C91.9571612,110.999027 89.5981591,107.809656 86.7862285,105.828094 L86.6918684,105.97907 C92.8630181,112.546532 99.6192003,119.151738 99.6758163,128.417899 C101.430914,127.927226 101.128962,124.794471 103.940892,126.191001 C104.997725,126.474081 103.035035,129.493604 102.902931,129.64458 C103.82766,131.324189 105.488398,127.58753 106.601847,127.927226 C111.187747,127.983842 114.263886,131.852606 116.64176,135.268441 L117.566489,136.589482 C134.211608,126.191001 145.289482,107.65868 145.289482,86.5408923 C145.213994,55.0057513 120.435035,29.2265755 89.3150788,27.7356862 L89.3150788,27.7356862 Z M83.3137773,36.7753825 C84.5215864,36.5866623 85.5972914,37.1150788 86.5408923,36.9263586 C86.0124758,35.8695257 84.5215864,35.8695257 83.4647534,36.1337339 L81.6152957,36.9263586 C82.4645365,34.9070528 82.9363369,33.3784194 85.6161634,32.9066189 C86.6163803,31.868658 88.2393738,30.5853608 89.3339508,31.88753 L90.63612,32.7367708 L92.4478337,34.6994606 L92.6365539,36.8319985 C92.6365539,36.8319985 92.6931699,37.360415 91.9760332,38.5870962 C93.0328662,40.4365539 91.0135604,45.9660549 88.2016298,47.4003283 C86.7296124,47.7966406 85.163235,46.8719118 83.9554259,46.6077035 C84.7291786,47.9853608 86.7484844,48.8157296 88.2016298,49.268658 C89.3528228,49.4573782 91.0890484,49.7027144 92.5233218,49.4573782 C91.9949053,52.3447968 88.9753825,56.2324324 86.8051005,56.7608489 C85.1254909,57.2137773 83.1061851,56.7608489 81.7473998,55.9304801 C80.3508706,54.9113912 78.4070528,51.8352523 79.4072697,51.420068 L81.3888315,50.0801547 C81.5586797,45.6452306 77.7842762,39.1343847 83.3137773,36.7753825 L83.3137773,36.7753825 Z M78.7467491,42.6634519 L78.9732133,42.0406753 L79.5205018,42.3992437 C80.1810224,42.8333001 79.2562936,43.5315647 79.9545582,44.0599812 C79.69035,44.2864454 78.4636688,43.3239725 78.7467491,42.6634519 L78.7467491,42.6634519 Z M49.5517382,98.9398077 C48.7213695,98.4302632 47.2116081,98.4302632 46.3812393,98.9398077 C43.0786363,100.789265 41.4178988,104.790133 40.3233218,107.75304 C39.7571612,108.092736 39.0211526,108.168224 38.7946883,107.394471 C37.7001113,106.922671 38.454992,105.865838 38.454992,105.41291 C41.3990267,102.148051 44.0977252,98.4868792 46.2491352,94.7690918 C44.928094,92.3723456 41.5688749,94.1463152 39.9647534,92.0137773 C39.1532567,90.1643196 38.3417599,87.8241894 37.0018467,86.3710441 C39.549569,85.0688749 42.795556,86.6541244 44.2298293,89.2018467 C45.0601981,90.8059682 45.1923022,92.7309139 46.3623673,94.1651873 C47.117248,93.7500029 47.8155126,92.78753 48.211825,92.0326493 C48.211825,92.0326493 48.7591135,91.5985929 48.9478337,91.2022805 C48.4949053,91.2022805 47.6645365,91.2211526 47.7400246,90.654992 C48.0231048,89.9001113 49.268658,90.8625842 49.4007621,89.8434953 C48.7968575,89.560415 46.7586797,90.1831916 47.2493521,88.8055343 L49.6083543,88.5979421 C49.1931699,88.48471 47.2116081,88.3148619 47.7588966,87.6354693 C48.6647534,87.1447968 50.344363,87.6543413 51.0237556,87.0504367 L51.8918684,88.8810224 C50.4387231,92.0326493 48.230697,94.93894 46.0981591,97.6376385 C46.0981591,97.9018467 46.041543,98.2981591 46.3812393,98.2981591 C49.4007621,97.8263586 48.7779855,93.4480506 52.3636688,93.919851 L54.2131265,94.0708272 C53.5148619,96.1278771 52.2881808,98.5812393 49.5517382,98.9398077 L49.5517382,98.9398077 Z M61.6298293,88.9942545 C57.2892654,92.6176818 55.4775517,92.3912176 51.7031482,91.711825 C51.5710441,90.7682241 52.1938207,90.2020636 52.533517,89.1074866 C53.2883977,89.3905669 55.0434953,89.5981591 55.7606319,88.6168142 C53.3261417,89.1641027 53.1751656,86.7107404 51.7597643,86.1068359 C51.7597643,86.1068359 47.6456645,86.9938207 47.6834085,85.4085712 C48.0608489,85.5218033 49.8914345,84.8612827 49.8914345,84.8612827 C53.665838,83.6346016 56.6476168,88.3526059 60.0823239,85.2387231 L62.7621504,83.6534736 C62.9319985,85.6161634 61.9883977,87.2391569 61.6298293,88.9942545 L61.6298293,88.9942545 Z M76.0480506,93.1460983 C71.8207187,93.3914345 67.4046667,92.806402 63.0829747,92.806402 C63.6113912,88.0695257 64.2152957,83.3137773 64.5738641,78.652389 C66.2534736,79.1241894 67.2536905,76.6896992 68.5936037,76.2178988 C71.9528228,76.7651873 74.0476168,73.1606319 77.4634519,74.9346016 C77.2558597,81.0868792 76.0480506,86.8428445 76.0480506,93.1460983 L76.0480506,93.1460983 Z M77.4257079,73.4625842 C76.0480506,73.6701764 74.9534736,72.5001113 73.6324324,72.9719118 C70.9526059,75.3120419 66.1213695,73.4625842 64.6682241,77.8031482 L63.3660549,78.4070528 C62.6111742,76.1424107 64.53612,73.8022805 65.4985929,71.6508706 C73.3682241,66.8196341 81.4831916,71.9150788 89.1263586,73.6324324 C90.598376,73.9910007 90.3907838,71.9716949 91.0135604,71.1601981 L93.2782024,62.7998944 C96.1467491,61.9129096 98.0528228,65.0079204 99.33612,67.6122588 C98.1283109,72.9152957 97.0526059,76.1801547 92.768658,80.3697426 C88.0883977,80.1621504 86.3710441,79.2940376 82.3701764,77.3879638 C83.1439291,75.1421938 78.671261,73.8777686 77.4257079,73.4625842 L77.4257079,73.4625842 Z M79.9356862,75.2554259 C78.9732133,80.8981591 79.1241894,87.409005 77.9541244,93.1272263 L77.1237556,93.1272263 C77.3313478,87.2202849 78.0107404,81.1057513 78.5014129,75.1421938 C79.0487014,74.9912176 79.3883977,75.444146 79.9356862,75.2554259 L79.9356862,75.2554259 Z M98.4868792,84.7480506 C97.9018467,85.5029313 97.7886146,86.6541244 96.9205018,87.2202849 C93.5801547,85.5595473 89.3339508,89.1263586 86.8239725,85.219851 C85.8048836,86.1445799 84.6536905,87.5788532 82.992953,86.8239725 C82.1814562,86.23894 81.3322155,87.2957729 81.1057513,86.0313478 C81.1057513,84.2007621 80.1998944,79.78471 81.4454476,78.4636688 C82.5400246,78.8977252 84.8990267,80.3131265 86.3333001,80.7471829 C88.8055343,81.6907838 90.4473998,82.2569443 94.1651873,81.9738641 C96.071261,82.1248402 96.033517,80.1244064 97.146966,78.5202849 C97.4677903,77.5011959 98.4302632,75.8782024 99.354992,75.2554259 C101.997074,78.0296124 99.0152957,81.6907838 98.4868792,84.7480506 L98.4868792,84.7480506 Z M118.661066,115.113127 C117.887313,117.641977 116.188832,126.568441 113.131565,127.455426 C108.262584,127.738506 103.110523,125.020936 101.506402,122.81291 C96.9393738,114.792302 101.374298,106.16779 101.166706,97.5998944 C103.7333,94.0519552 101.01573,89.8812393 100.959114,86.0690918 C102.412259,83.3137773 103.053907,80.0866623 105.677118,77.9729964 L106.790567,77.8408923 C108.583409,81.9927361 107.65868,87.1825408 106.35651,91.3721287 C107.186879,90.9758163 108.394688,88.8244064 109.847834,90.0133434 C110.583842,91.5231048 111.150003,93.3725625 109.942194,94.8634519 C108.979721,95.7315647 108.054992,97.8263586 108.394688,97.8829747 C111.017899,95.7315647 113.112693,93.1083543 112.187964,89.6547751 C110.149786,79.78471 105.110957,72.5001113 100.374081,63.7434953 C99.354992,62.4413261 97.6187664,60.7239725 95.8259248,60.9126927 L92.2968575,61.5165972 C92.3723456,59.4218033 93.900979,55.7606319 94.4671395,53.4582458 C92.5799378,55.9682241 91.9760332,57.7044497 91.1456645,60.7617165 C91.0135604,61.214645 90.9569443,61.7053174 90.9758163,62.1771178 C91.0135604,63.6868792 90.9192003,67.5178988 89.2773348,70.2165972 C88.5035821,71.3300463 87.0126927,71.8207187 85.9369877,71.3866623 C80.803799,69.4994606 75.1421938,69.8202849 75.1988098,65.9892654 L74.8779855,60.4597643 C73.7645365,63.0263586 73.5380723,65.9703933 73.3870962,68.3860116 C71.9150788,68.5558597 71.4055343,68.820068 69.8769009,68.895556 C69.8202849,66.2534736 72.4434953,65.611825 71.5753825,63.1584627 C72.0283109,61.8562936 73.0285278,60.9881808 72.5001113,59.6860116 C70.7261417,64.4606319 65.4042328,64.2719118 61.9695257,66.7818901 C61.7808055,68.2350354 61.1957729,69.4805886 60.195556,70.5940376 C63.9322155,69.4239725 65.9703933,64.0831916 70.6317816,64.0831916 C69.3673565,66.649786 70.0467491,68.0651873 64.0077035,70.5940376 C62.6300463,70.0844931 61.1957729,70.6695257 60.195556,71.3866623 C58.8745148,73.0285278 57.6855777,75.0100896 56.911825,77.0482675 C58.6103066,76.7085712 58.6103066,73.8966406 60.5352523,73.5569443 C62.1771178,73.4437122 61.271261,73.6324324 62.8565105,73.23612 C60.8560766,75.2365539 61.8562936,76.3688749 61.1957729,77.0482675 C59.6671395,77.9541244 58.025274,75.7838424 56.911825,77.7087881 L53.8734302,83.5024975 C54.6094389,83.8988098 55.3265755,83.2949053 55.9116081,83.030697 C56.6476168,80.9170311 57.7988098,79.9734302 59.4972914,78.9732133 C60.6862285,78.8977252 61.1014129,79.1996775 61.8374215,79.5959899 C60.8749486,81.3133434 61.4977252,81.5964237 59.6671395,82.4456645 C57.6289617,83.5591135 57.1760332,82.7664888 53.665838,84.2762502 C52.9675734,83.8044497 51.9673565,84.125274 51.5521721,84.049786 C48.9855777,81.8606319 46.5322155,85.7482675 43.814645,84.9367708 C42.5124758,84.2196341 41.1159465,83.5024975 39.530697,83.3515213 C40.0591135,82.5022805 41.2291786,80.803799 42.6823239,80.3319985 C43.871261,80.1998944 44.98471,79.9356862 46.1547751,80.5207187 C47.3437122,81.7662719 48.7968575,83.4081374 50.382107,82.6910007 C49.4385061,81.5964237 49.4762502,80.6528228 48.8723456,79.6714779 C46.8907838,79.5959899 45.6263586,77.3690918 44.0599812,76.5953391 C42.5502198,75.2554259 42.6823239,73.23612 42.4747317,71.3866623 C44.3808055,71.3111742 45.9471829,72.0471829 47.2116081,73.5569443 C50.3066189,76.4066189 48.3439291,80.6528228 51.495556,83.3515213 C53.1940376,82.6343847 53.8545582,80.6528228 54.6471829,79.0675734 C54.703799,77.0482675 57.4024975,74.5382892 54.8359031,72.9719118 C54.3074866,72.9719118 53.7224541,72.8209356 53.3827578,73.23612 C49.3818901,73.7456645 47.3248402,70.009005 45.3621504,67.2348185 C48.5326493,67.0460983 52.2693087,67.2348185 54.0432784,70.2732133 L56.4211526,73.8966406 C56.4777686,72.8209356 56.874081,71.046966 56.4211526,69.6126927 C55.3643196,67.6877469 52.9298293,66.7630181 52.609005,64.53612 L53.7224541,58.5536905 C57.0816732,61.9883977 58.7046667,66.8385061 57.0061851,71.5187664 L57.1949053,73.8966406 C58.9688749,70.5940376 62.4035821,67.2348185 60.8183326,62.9508706 C58.5914345,62.1771178 57.3458814,59.7426276 56.874081,57.6289617 C57.8554259,55.4586797 56.4588966,53.4205018 57.1949053,51.1181157 C60.3465322,54.0055343 62.328094,58.025274 60.9504367,62.1771178 C60.7428445,63.1018467 61.7241894,63.4981591 61.9317816,64.2719118 C63.6491352,61.5732133 67.1970745,59.100979 64.8946883,55.4020636 C63.7812393,54.4773348 62.5923022,53.628094 62.1959899,52.2504367 C61.7996775,49.8914345 63.441543,48.3061851 63.3094389,45.9283109 C64.9513044,47.5135604 67.1970745,49.0799378 67.1215864,51.43894 C67.9708272,54.2131265 64.8192003,55.4775517 66.1213695,58.2139942 C67.2348185,57.7610658 67.7066189,56.3834085 68.3482675,55.3831916 C68.0274432,51.8352523 69.1408923,48.4194172 71.9716949,45.9094389 C72.160415,47.9476168 73.0473998,50.5330831 71.8584627,52.4202849 C69.2352523,53.9300463 68.6313478,56.8174649 66.4610658,58.8556428 C65.4608489,61.0825408 63.7623673,63.1395907 62.38471,65.0456645 L62.38471,65.630697 C63.8944714,66.2912176 64.8192003,64.6682241 65.5363369,63.5925191 C65.9326493,62.2714779 66.5931699,60.9693087 67.7066189,60.120068 C69.0465322,59.3274432 70.8582458,59.9690918 71.9905669,58.8556428 C71.4055343,58.7424107 70.8205018,58.3838424 70.0844931,58.5348185 C72.5944714,56.1569443 74.8968575,53.7979421 78.1051005,52.0994606 C78.5769009,53.5337339 79.2751656,54.741543 80.0677903,55.83612 C81.8417599,57.7421938 84.8046667,58.7424107 87.1636688,57.8176818 C90.7116081,56.3834085 91.9382892,52.9298293 93.3536905,49.28753 C101.67625,49.6649703 103.110523,58.8556428 106.601847,64.517248 C110.395122,73.4059682 114.414862,82.2192003 115.886879,92.0326493 C115.452823,97.8074866 108.885361,99.6192003 105.337422,103.072779 C106.111174,103.54458 106.601847,102.336771 107.375599,102.299027 C109.470393,101.902714 110.866923,103.35586 112.225708,104.676901 C113.848701,108.03612 113.376901,108.640025 113.395773,113.584493 C113.093821,120.548268 112.05586,121.831565 111.451955,124.077335 C111.451955,124.077335 114.509222,124.228311 116.075599,112.546532 C115.981239,108.03612 118.019417,101.223322 113.471261,98.7133434 L114.433734,97.9395907 C120.6615,101.261066 119.529179,108.885361 118.661066,115.113127 L118.661066,115.113127 Z M105.922454,58.4593304 L114.452606,54.2508706 L123.020502,58.4593304 L105.922454,58.4593304 L105.922454,58.4593304 Z M135.853474,78.709005 L127.700762,78.709005 L127.738506,67.744363 L133.607704,67.744363 C133.626576,67.1782024 133.551087,66.8007621 133.607704,66.4799378 L126.266489,66.4799378 L126.285361,78.7278771 L118.491218,78.7278771 L118.491218,67.800979 C120.85022,67.800979 122.473213,67.800979 124.454775,67.782107 C124.473647,67.5556428 124.454775,66.8196341 124.454775,66.4799378 L117.0192,66.4799378 L117.056944,78.709005 L115.226359,78.709005 C115.207487,78.0296124 113.471261,74.1985929 111.735035,70.1977252 C111.735035,70.1977252 111.716163,68.7445799 111.584059,67.8575951 C112.867356,67.8575951 112.754124,67.8387231 115.452823,67.819851 L115.452823,66.4799378 L110.47061,66.4799378 L110.451738,68.3482675 C109.99881,67.2536905 109.847834,66.4799378 109.149569,65.0456645 L136.061066,65.0456645 L136.061066,66.4988098 L135.740241,66.4988098 L135.853474,78.709005 L135.853474,78.709005 Z M115.509439,81.6530398 L114.830046,79.5582458 L137.231131,79.5582458 C137.231131,79.5771178 137.268875,80.3319985 137.268875,81.6152957 L115.509439,81.6530398 L115.509439,81.6530398 Z M137.268875,64.0643196 L108.696641,64.0643196 L108.243712,62.8187664 L137.268875,62.8187664 L137.268875,64.0643196 L137.268875,64.0643196 Z M107.790784,61.1391569 C107.639808,60.7805886 107.243495,60.0257079 106.828311,59.4784194 C114.471478,59.4218033 118.585578,59.5727795 126.134385,59.5727795 L126.134385,59.0254909 L114.30163,52.7977252 C110.546098,54.3641027 109.187313,55.2699595 105.941326,56.911825 L105.148701,55.4020636 C108.791001,53.4393738 111.168875,52.0428445 114.999894,50.2311309 L113.641109,49.5139942 C109.734602,51.2879638 107.922888,52.3259248 104.450437,54.0998944 C104.242845,53.7601981 104.035252,53.4771178 103.469092,52.7788532 C107.828528,50.5142111 109.357161,49.5706103 113.490133,47.5324324 C121.472996,51.7031482 129.871044,56.1003283 137.797291,60.7994606 L137.646315,61.1580289 L107.790784,61.1580289 L107.790784,61.1391569 Z" id="Shape"></path>
                </g>
            </g>
        </g>
    </g>
</svg>